<?xml version="1.0" encoding="UTF-8" standalone="no"?>
<!-- Created with Inkscape (http://www.inkscape.org/) -->

<svg
   width="71.722679mm"
   height="55.424343mm"
   viewBox="0 0 71.722679 55.424343"
   version="1.1"
   id="svg5"
   xml:space="preserve"
   inkscape:version="1.2.1 (9c6d41e410, 2022-07-14)"
   sodipodi:docname="Couvercle_boitier_Ronan_Le_Corronc.svg"
   xmlns:inkscape="http://www.inkscape.org/namespaces/inkscape"
   xmlns:sodipodi="http://sodipodi.sourceforge.net/DTD/sodipodi-0.dtd"
   xmlns="http://www.w3.org/2000/svg"
   xmlns:svg="http://www.w3.org/2000/svg"><sodipodi:namedview
     id="namedview7"
     pagecolor="#505050"
     bordercolor="#ffffff"
     borderopacity="1"
     inkscape:showpageshadow="0"
     inkscape:pageopacity="0"
     inkscape:pagecheckerboard="1"
     inkscape:deskcolor="#505050"
     inkscape:document-units="mm"
     showgrid="false"
     inkscape:zoom="10.582793"
     inkscape:cx="45.167659"
     inkscape:cy="8.5043709"
     inkscape:window-width="1366"
     inkscape:window-height="705"
     inkscape:window-x="-8"
     inkscape:window-y="-8"
     inkscape:window-maximized="1"
     inkscape:current-layer="g256"><inkscape:page
       x="0"
       y="0"
       width="71.722679"
       height="55.424343"
       id="page272" /><inkscape:page
       x="-20.86533"
       y="-19.687033"
       width="209.90277"
       height="297.03894"
       id="page274" /></sodipodi:namedview><defs
     id="defs2"><marker
       id="DistanceX"
       orient="auto"
       refX="0"
       refY="0"
       style="overflow:visible"><path
         d="M 3,-3 -3,3 M 0,-5 V 5"
         style="stroke:#000000;stroke-width:0.5"
         id="path197" /></marker><pattern
       id="Hatch"
       patternUnits="userSpaceOnUse"
       width="8"
       height="8"
       x="0"
       y="0"><path
         d="M8 4 l-4,4"
         stroke="#000000"
         stroke-width="0.25"
         linecap="square"
         id="path200" /><path
         d="M6 2 l-4,4"
         stroke="#000000"
         stroke-width="0.25"
         linecap="square"
         id="path202" /><path
         d="M4 0 l-4,4"
         stroke="#000000"
         stroke-width="0.25"
         linecap="square"
         id="path204" /></pattern><symbol
       id="*MODEL_SPACE" /><symbol
       id="*PAPER_SPACE" /><clipPath
       clipPathUnits="userSpaceOnUse"
       id="clipPath260"><path
         d="m 834,10333 h 3692 v 2922 H 834 v -2922"
         id="path258" /></clipPath></defs><g
     inkscape:label="Calque 1"
     inkscape:groupmode="layer"
     id="layer1"
     transform="translate(-240.86534,-19.687033)"><path
       style="fill:#000000;stroke-width:0.0444654"
       d="m 293.47058,67.552466 c -0.0442,-0.06101 -0.65761,-0.318097 -0.75894,-0.318097 -0.0116,0 -0.0317,0.04002 -0.0444,0.08894 -0.0141,0.05397 -0.0607,0.08893 -0.11838,0.08893 -0.0891,0 -0.0943,-0.01903 -0.082,-0.300141 l 0.0131,-0.300142 0.46689,-0.173698 c 0.25678,-0.09553 0.48288,-0.200584 0.50244,-0.233444 0.0196,-0.03286 0.0746,-0.05975 0.12228,-0.05975 0.0764,0 0.0867,0.03191 0.0867,0.266793 0,0.234885 -0.0103,0.266794 -0.0867,0.266794 -0.0477,0 -0.10509,-0.03283 -0.12754,-0.07294 -0.0674,-0.120284 -0.14146,-0.02378 -0.14146,0.184104 0,0.207889 0.0742,0.304388 0.14146,0.184105 0.0225,-0.04011 0.0798,-0.07294 0.12754,-0.07294 0.0753,0 0.0867,0.03167 0.0867,0.239801 0,0.260745 -0.0837,0.355181 -0.18776,0.211692 z m -0.34582,-0.559958 v -0.15293 l -0.21018,0.07161 -0.21017,0.07161 0.17682,0.07801 c 0.24061,0.106165 0.24353,0.105346 0.24353,-0.06831 z m 2.97348,0.559236 c -0.0529,-0.0718 -0.63536,-0.317375 -0.75276,-0.317375 -0.023,0 -0.0419,0.04141 -0.0419,0.09202 0,0.07 -0.0239,0.08862 -0.10005,0.07781 -0.092,-0.01306 -0.10004,-0.03738 -0.10004,-0.302513 v -0.288304 l 0.48553,-0.178967 c 0.26706,-0.09843 0.49384,-0.203806 0.50395,-0.234165 0.0264,-0.07906 0.17435,-0.0682 0.20633,0.01514 0.0148,0.03868 0.0269,0.127091 0.0269,0.196458 0,0.06937 -0.0122,0.157774 -0.0269,0.196458 -0.0343,0.08944 -0.19535,0.09244 -0.19535,0.0036 0,-0.03668 -0.03,-0.0667 -0.0667,-0.0667 -0.0512,0 -0.0667,0.05682 -0.0667,0.24456 0,0.187743 0.0155,0.244561 0.0667,0.244561 0.0367,0 0.0667,-0.03001 0.0667,-0.0667 0,-0.0888 0.16102,-0.0858 0.19535,0.0036 0.0625,0.16267 -0.004,0.463251 -0.10255,0.463251 -0.0205,0 -0.065,-0.03727 -0.0985,-0.08281 z m -0.35003,-0.559236 v -0.15293 l -0.2025,0.069 c -0.11138,0.03795 -0.19491,0.07659 -0.18564,0.08587 0.0127,0.01278 0.30665,0.128024 0.37703,0.147859 0.006,0.0017 0.0111,-0.06569 0.0111,-0.149797 z m 2.99062,0.556809 c -0.0691,-0.07279 -0.66123,-0.314948 -0.77,-0.314948 -0.0229,0 -0.0418,0.04002 -0.0418,0.08894 0,0.05929 -0.0297,0.08893 -0.089,0.08893 -0.0802,0 -0.0889,-0.02965 -0.0889,-0.302607 v -0.302609 l 0.48912,-0.174941 c 0.2896,-0.103577 0.48912,-0.19906 0.48912,-0.23407 0,-0.03588 0.0393,-0.05354 0.10005,-0.04492 0.0899,0.01277 0.10004,0.039 0.10004,0.258769 0,0.219764 -0.0102,0.246001 -0.10004,0.258769 -0.0692,0.0098 -0.10005,-0.0086 -0.10005,-0.05929 0,-0.04042 -0.025,-0.06525 -0.0556,-0.05518 -0.0746,0.02459 -0.10258,0.478214 -0.0295,0.478214 0.0292,0 0.0773,-0.03326 0.10705,-0.07393 0.10156,-0.13888 0.20032,-0.0397 0.20032,0.201167 0,0.248761 -0.0828,0.322465 -0.2109,0.187704 z m -0.37512,-0.61639 c -0.0135,-0.07608 -0.0243,-0.07644 -0.21117,-0.0069 l -0.1969,0.07328 0.1969,0.06622 c 0.20969,0.07052 0.24357,0.04924 0.21117,-0.132644 z m 3.02172,0.619539 c -0.0442,-0.06101 -0.65761,-0.318097 -0.75894,-0.318097 -0.0117,0 -0.0317,0.04002 -0.0444,0.08894 -0.0141,0.05397 -0.0607,0.08893 -0.11838,0.08893 -0.0891,0 -0.0943,-0.01903 -0.082,-0.300141 l 0.0131,-0.300142 0.46689,-0.173698 c 0.25678,-0.09553 0.48288,-0.200584 0.50244,-0.233444 0.0196,-0.03286 0.0745,-0.05975 0.12228,-0.05975 0.0764,0 0.0867,0.03191 0.0867,0.266793 0,0.234885 -0.0104,0.266794 -0.0867,0.266794 -0.0477,0 -0.10509,-0.03283 -0.12754,-0.07294 -0.0674,-0.120284 -0.14146,-0.02378 -0.14146,0.184104 0,0.217944 0.0656,0.293446 0.15215,0.175091 0.10469,-0.143163 0.20357,-0.0476 0.20357,0.196713 0,0.240393 -0.0875,0.329271 -0.18776,0.190854 z m -0.34583,-0.559958 v -0.15293 l -0.21016,0.07161 -0.21018,0.07161 0.17682,0.07801 c 0.24061,0.106165 0.24352,0.105346 0.24352,-0.06831 z m 2.97453,0.56079 c -0.0536,-0.07294 -0.63504,-0.318929 -0.7538,-0.318929 -0.023,0 -0.0419,0.04141 -0.0419,0.09202 0,0.07 -0.0239,0.08862 -0.10005,0.07781 -0.092,-0.01306 -0.10004,-0.03738 -0.10004,-0.302513 v -0.288304 l 0.48553,-0.178967 c 0.26706,-0.09843 0.49383,-0.203806 0.50395,-0.234165 0.0101,-0.03036 0.0568,-0.0552 0.10362,-0.0552 0.0745,0 0.0852,0.03351 0.0852,0.266793 0,0.237149 -0.01,0.266793 -0.0889,0.266793 -0.0494,0 -0.089,-0.02965 -0.089,-0.06669 0,-0.03668 -0.03,-0.06669 -0.0667,-0.06669 -0.0512,0 -0.0667,0.05682 -0.0667,0.244559 0,0.187743 0.0155,0.24456 0.0667,0.24456 0.0367,0 0.0667,-0.03001 0.0667,-0.06669 0,-0.03759 0.0398,-0.06669 0.0912,-0.06669 0.0827,0 0.09,0.02326 0.0778,0.252163 -0.0142,0.269118 -0.073,0.336933 -0.17363,0.200162 z m -0.35107,-0.56079 v -0.15293 l -0.2025,0.069 c -0.11138,0.03795 -0.19493,0.07659 -0.18564,0.08587 0.0127,0.01278 0.30665,0.128024 0.37702,0.147859 0.007,0.0017 0.0112,-0.06569 0.0112,-0.149797 z m 2.99413,0.560585 c -0.0718,-0.07559 -0.66184,-0.318724 -0.77351,-0.318724 -0.0231,0 -0.0418,0.04002 -0.0418,0.08894 0,0.05929 -0.0297,0.08893 -0.089,0.08893 -0.0802,0 -0.0889,-0.02965 -0.0889,-0.301991 v -0.301992 l 0.46843,-0.17158 c 0.25762,-0.09437 0.48468,-0.200641 0.50456,-0.236161 0.0199,-0.03552 0.0743,-0.05724 0.12075,-0.04829 0.0709,0.01365 0.0846,0.0558 0.0846,0.260245 0,0.219131 -0.0102,0.245396 -0.10004,0.258159 -0.0673,0.0096 -0.10005,-0.0086 -0.10005,-0.05558 0,-0.03838 -0.03,-0.06979 -0.0667,-0.06979 -0.0512,0 -0.0667,0.05682 -0.0667,0.244559 0,0.252706 0.053,0.310809 0.15542,0.170638 0.0968,-0.132418 0.20031,-0.04034 0.20031,0.178246 0,0.24708 -0.0889,0.339075 -0.20738,0.214401 z m -0.37863,-0.620166 c -0.0135,-0.07608 -0.0243,-0.07644 -0.21117,-0.0069 l -0.1969,0.07328 0.1969,0.06622 c 0.20968,0.07052 0.24357,0.04924 0.21117,-0.132644 z m -18.92629,0.472626 c 0.0113,-0.07597 0.0997,-0.127782 0.43041,-0.252269 l 0.4162,-0.156659 -0.42732,-0.157568 c -0.37696,-0.139001 -0.42732,-0.170089 -0.42732,-0.263842 0,-0.06752 0.0203,-0.09797 0.0556,-0.0835 0.0306,0.01252 0.27177,0.107212 0.536,0.210413 0.44855,0.17519 0.47952,0.195151 0.46689,0.300885 -0.0119,0.0996 -0.0725,0.136417 -0.50265,0.305527 -0.26902,0.105756 -0.50552,0.192359 -0.52557,0.192451 -0.0201,8.9e-5 -0.03,-0.04286 -0.0222,-0.09544 z m -10.47908,0.0076 c -0.14208,-0.229883 -0.0901,-0.599996 0.094,-0.670003 0.11875,-0.04514 0.26148,0.0029 0.29346,0.09888 0.0115,0.03474 0.0517,0.01943 0.11504,-0.04395 0.11974,-0.119747 0.23293,-0.123481 0.37026,-0.01221 0.18474,0.149687 0.11984,0.670855 -0.0836,0.670855 -0.0491,0 -0.0577,-0.02614 -0.0333,-0.100048 0.0643,-0.193972 0.0477,-0.398159 -0.0365,-0.450366 -0.0647,-0.0401 -0.093,-0.03297 -0.14452,0.03644 -0.0352,0.04747 -0.064,0.132512 -0.064,0.188978 0,0.148946 -0.1209,0.127364 -0.15495,-0.02766 -0.0158,-0.07168 -0.0552,-0.152407 -0.0877,-0.179396 -0.0902,-0.07483 -0.21605,0.07127 -0.18686,0.216844 0.0498,0.248333 0.0498,0.284032 9e-5,0.301648 -0.0283,0.01003 -0.065,-0.0034 -0.0813,-0.03001 z m 5.41893,-0.04135 c -0.14021,-0.0855 -0.23926,-0.284095 -0.23926,-0.47975 0,-0.142573 0.12059,-0.369113 0.19649,-0.369113 0.0895,0 0.11945,0.118619 0.0454,0.180056 -0.0352,0.02924 -0.0641,0.129295 -0.0641,0.22235 0,0.201231 0.15729,0.353506 0.36514,0.353506 0.14188,0 0.39078,-0.208393 0.39078,-0.327176 0,-0.147264 -0.0886,-0.29534 -0.17676,-0.29534 -0.0732,0 -0.0901,0.02902 -0.0901,0.155629 0,0.125985 -0.0169,0.155629 -0.0889,0.155629 -0.0782,0 -0.0889,-0.02965 -0.0889,-0.24456 v -0.24456 h 0.22118 c 0.19996,0 0.2277,0.01259 0.28903,0.131188 0.0877,0.16972 0.087,0.488712 -9.3e-4,0.615085 -0.16033,0.228884 -0.5124,0.297142 -0.75852,0.147056 z m 2.61078,-0.0295 c -0.18218,-0.153292 -0.25108,-0.407866 -0.16569,-0.612216 0.035,-0.08351 0.0877,-0.166838 0.1174,-0.185184 0.0871,-0.05383 0.13324,0.07378 0.0629,0.174144 -0.0882,0.125893 -0.0791,0.308249 0.0217,0.432598 0.0674,0.08324 0.12806,0.104972 0.29295,0.104972 0.16489,0 0.22555,-0.02174 0.29296,-0.104972 0.14494,-0.179 0.0847,-0.49531 -0.0944,-0.49531 -0.0702,0 -0.0874,0.03058 -0.0874,0.155629 0,0.108693 -0.0201,0.155629 -0.0667,0.155629 -0.0513,0 -0.0667,-0.05709 -0.0667,-0.246996 v -0.246999 l 0.21121,0.01355 c 0.19529,0.01253 0.21743,0.02627 0.29362,0.182232 0.11066,0.22655 0.0674,0.44632 -0.12594,0.639651 -0.19479,0.194808 -0.47761,0.208524 -0.68589,0.03326 z m -13.38835,-0.01899 c 0,-0.08399 0.0297,-0.08894 0.53359,-0.08894 0.50394,0 0.53358,0.0049 0.53358,0.08894 0,0.08399 -0.0297,0.08893 -0.53358,0.08893 -0.50395,0 -0.53359,-0.0049 -0.53359,-0.08893 z m 2.66792,-0.242043 c 0,-0.291607 0.0118,-0.339201 0.0988,-0.400188 0.15305,-0.107202 0.32547,-0.08691 0.43401,0.05109 0.10207,0.129759 0.0849,0.132651 0.38983,-0.06552 0.0946,-0.06144 0.10004,-0.05881 0.10004,0.04793 0,0.08691 -0.0436,0.136927 -0.18898,0.216992 -0.12031,0.06624 -0.19413,0.140153 -0.20319,0.203426 -0.0129,0.09043 0.004,0.09938 0.18898,0.09938 0.17355,0 0.20319,0.01297 0.20319,0.08894 0,0.08378 -0.0297,0.08893 -0.51135,0.08893 h -0.51136 z m 0.48913,6.44e-4 c 0,-0.08385 -0.0314,-0.183897 -0.0699,-0.222328 -0.14733,-0.147329 -0.28585,-0.04759 -0.28585,0.205813 0,0.167487 9.3e-4,0.168969 0.17786,0.168969 0.17292,0 0.17787,-0.0042 0.17787,-0.152453 z m 4.75779,-0.0032 c 0,-0.303847 0.007,-0.333491 0.089,-0.333491 0.0782,0 0.0889,0.02965 0.0889,0.24456 0,0.239769 0.002,0.24456 0.12795,0.24456 0.12482,0 0.1274,-0.0047 0.10596,-0.194897 -0.0178,-0.157638 -0.004,-0.212893 0.0721,-0.289026 0.21293,-0.212921 0.58325,-0.03532 0.58325,0.279715 0,0.187234 -0.0817,0.38207 -0.16015,0.38207 -0.0835,0 -0.12438,-0.08898 -0.0672,-0.146164 0.0658,-0.06576 0.0633,-0.311412 -0.004,-0.378529 -0.16389,-0.163887 -0.35862,0.0592 -0.25984,0.297677 0.0302,0.073 0.0418,0.153935 0.0258,0.179866 -0.0161,0.02593 -0.15801,0.04715 -0.31553,0.04715 h -0.28641 z m -7.63405,-0.0873 c -0.2928,-0.127346 -0.37865,-0.579895 -0.15706,-0.827896 0.23516,-0.263198 0.71878,-0.212878 0.87599,0.09115 0.14433,0.279107 0.0385,0.629313 -0.2231,0.738639 -0.18702,0.07814 -0.31293,0.07766 -0.49583,-0.0019 z m 0.53796,-0.244787 c 0.12787,-0.127863 0.11128,-0.348915 -0.0357,-0.475313 -0.29794,-0.256282 -0.76098,0.02957 -0.59811,0.369254 0.116,0.241933 0.44317,0.296681 0.63379,0.106059 z m 7.09613,-0.27454 c 3e-5,-0.09195 0.0517,-0.123576 0.42133,-0.257819 0.23172,-0.08416 0.41603,-0.158284 0.40959,-0.164727 -0.007,-0.0064 -0.19105,-0.07986 -0.41021,-0.163168 -0.31352,-0.119154 -0.40154,-0.171744 -0.41272,-0.246578 -0.007,-0.05233 0.003,-0.09512 0.0242,-0.09512 0.0211,0 0.25763,0.08799 0.52557,0.195533 0.4234,0.16995 0.48894,0.210107 0.5008,0.306897 0.014,0.114459 -0.0159,0.129617 -1.00301,0.508457 -0.0348,0.01336 -0.0556,-0.01789 -0.0555,-0.08347 z m -1.75728,0.0049 c -0.0173,-0.02794 -0.0105,-0.07172 0.015,-0.0973 0.0598,-0.05975 0.19908,-0.0076 0.17476,0.06538 -0.0247,0.07433 -0.15057,0.09548 -0.18986,0.03191 z m -3.48968,-0.398776 c 0,-0.286555 0.013,-0.355724 0.0667,-0.355724 0.0519,0 0.0667,0.05929 0.0667,0.266793 v 0.266793 h 0.13339 0.1334 v -0.266829 c 0,-0.23715 0.01,-0.266793 0.089,-0.266793 0.0792,0 0.0889,0.02964 0.0889,0.26961 v 0.269609 l 0.14452,-0.01393 c 0.14287,-0.01377 0.14467,-0.01684 0.15785,-0.26961 0.01,-0.187583 0.0305,-0.255676 0.0778,-0.255676 0.0509,0 0.0645,0.07461 0.0645,0.355723 V 66.4339 h -0.51135 -0.51135 z m 13.17671,0.24157 c -0.037,-0.09658 0.057,-0.187399 0.12437,-0.120056 0.057,0.05692 0.0217,0.189744 -0.0504,0.189744 -0.026,0 -0.0593,-0.03136 -0.074,-0.06969 z m 0.29632,-0.04148 c 0,-0.05405 0.0717,-0.06669 0.37797,-0.06669 0.30631,0 0.37795,0.01264 0.37795,0.06669 0,0.05406 -0.0717,0.06669 -0.37795,0.06669 -0.30633,0 -0.37797,-0.01264 -0.37797,-0.06669 z m -5.60118,-0.07781 c 6.8e-4,-0.0731 0.0995,-0.171901 0.36536,-0.36684 l 0.3639,-0.266793 -0.36536,-0.01292 c -0.32881,-0.01153 -0.36536,-0.02154 -0.36536,-0.09995 0,-0.08169 0.0333,-0.08713 0.53359,-0.08713 0.50472,0 0.53358,0.0048 0.53358,0.08932 0,0.06051 -0.11386,0.17167 -0.35296,0.344607 -0.19412,0.140408 -0.35419,0.270294 -0.35572,0.288636 -9.3e-4,0.01834 0.15731,0.03335 0.35295,0.03335 0.32609,0 0.35573,0.0074 0.35573,0.08894 0,0.08399 -0.0297,0.08894 -0.53358,0.08894 -0.52415,0 -0.53356,-0.0018 -0.53213,-0.100048 z m 2.66647,-0.0057 c 0,-0.07984 0.0845,-0.169802 0.3446,-0.36684 l 0.34461,-0.261064 -0.34461,-0.01298 c -0.30807,-0.01162 -0.3446,-0.02221 -0.3446,-0.100047 0,-0.08139 0.0333,-0.08706 0.51135,-0.08706 0.50099,0 0.51132,0.002 0.51019,0.100046 -6.7e-4,0.07341 -0.0985,0.171063 -0.36683,0.36684 l -0.36569,0.266793 0.36684,0.01292 c 0.33028,0.01163 0.36684,0.0216 0.36684,0.100047 0,0.08148 -0.0332,0.08713 -0.51135,0.08713 -0.50885,0 -0.51135,-5.07e-4 -0.51135,-0.105776 z m 7.93708,-0.04552 c -0.20241,-0.08934 -0.29418,-0.217757 -0.2969,-0.415452 -0.004,-0.241252 0.0715,-0.359822 0.28937,-0.458761 0.60703,-0.275616 1.25018,0.158468 0.98748,0.666482 -0.12109,0.234146 -0.66089,0.348573 -0.97995,0.207731 z m 0.63629,-0.25261 c 0.29223,-0.101874 0.19768,-0.369316 -0.14896,-0.421298 -0.34755,-0.05212 -0.64851,0.115084 -0.54735,0.304095 0.0834,0.155774 0.42211,0.212791 0.69631,0.117203 z m 5.17976,6.8e-4 c -0.28306,-0.277794 -0.33717,-0.312573 -0.46688,-0.300109 -0.18687,0.01796 -0.22369,0.172429 -0.0781,0.327445 0.11271,0.119979 0.0897,0.242471 -0.0456,0.242471 -0.12218,0 -0.26716,-0.245789 -0.26737,-0.453291 -3.3e-4,-0.249664 0.16082,-0.413887 0.39981,-0.407621 0.16494,0.0044 0.21671,0.03485 0.44905,0.264764 l 0.26262,0.259874 v -0.150736 c 0,-0.0829 -0.032,-0.186067 -0.0711,-0.22925 -0.0971,-0.107253 -0.0431,-0.17305 0.14193,-0.17305 h 0.15455 l -0.0126,0.455249 c -0.0101,0.363052 -0.0261,0.457601 -0.0794,0.466854 -0.0367,0.0064 -0.21078,-0.129789 -0.38687,-0.302602 z m -21.62422,0.179575 c -0.0282,-0.0526 -0.0511,-0.188344 -0.0511,-0.301657 0,-0.158452 0.0226,-0.224265 0.0976,-0.285025 0.12734,-0.103116 0.23282,-0.09996 0.3323,0.01 l 0.0805,0.08895 0.0623,-0.08895 c 0.037,-0.0528 0.1127,-0.08895 0.18629,-0.08895 0.24656,0 0.3757,0.303704 0.2535,0.596168 -0.0711,0.170123 -0.19655,0.203098 -0.16664,0.04379 0.0421,-0.224078 0.0249,-0.386975 -0.0454,-0.431888 -0.10416,-0.06649 -0.21493,0.03534 -0.21493,0.197558 0,0.182389 -0.11666,0.164429 -0.15189,-0.02338 -0.0314,-0.16752 -0.13577,-0.234866 -0.23555,-0.152045 -0.0612,0.05078 -0.0616,0.08756 -0.006,0.409759 0.0211,0.120521 -0.081,0.139057 -0.1416,0.02572 z m 24.47949,0.04668 c -0.0148,-0.02395 -0.004,-0.122498 0.0256,-0.218989 0.0644,-0.214903 0.0347,-0.304124 -0.11381,-0.341384 -0.14057,-0.03528 -0.2459,0.04481 -0.2459,0.186945 0,0.161826 -0.15738,0.139496 -0.21673,-0.03074 -0.0398,-0.114263 -0.0677,-0.13416 -0.17109,-0.122279 -0.10646,0.01222 -0.12251,0.03263 -0.11619,0.147585 0.004,0.07337 0.0217,0.190163 0.0393,0.259546 0.0289,0.114459 0.0221,0.12476 -0.074,0.111164 -0.23287,-0.03294 -0.26521,-0.62777 -0.0406,-0.74794 0.13116,-0.0702 0.2913,-0.05352 0.37508,0.03906 0.0745,0.08233 0.0788,0.0817 0.18801,-0.02752 0.0922,-0.09222 0.13993,-0.107206 0.2726,-0.08567 0.22913,0.03718 0.33011,0.157722 0.35576,0.424698 0.0157,0.163292 9.3e-4,0.256114 -0.0517,0.337202 -0.0751,0.11465 -0.17842,0.145841 -0.22632,0.06834 z m 1.96702,-0.183451 c -0.34892,-0.201631 -0.38906,-0.238223 -0.38906,-0.354639 v -0.129807 h 0.40103 0.40104 l -0.0279,-0.111164 c -0.0232,-0.09255 -0.012,-0.111164 0.0669,-0.111164 0.0602,0 0.11026,0.04054 0.13711,0.111164 0.0524,0.13805 0.12256,0.143784 0.14142,0.01157 0.007,-0.05477 0.0501,-0.106436 0.094,-0.114797 0.072,-0.01374 0.0785,0.01836 0.0667,0.333036 -0.0102,0.274103 -0.0272,0.348241 -0.0797,0.348241 -0.043,0 -0.0718,-0.05228 -0.0809,-0.147212 -0.0231,-0.240208 -0.11779,-0.140479 -0.1326,0.139608 -0.012,0.226517 -0.0232,0.252053 -0.11116,0.251078 -0.0538,-5.76e-4 -0.27291,-0.102259 -0.48691,-0.225916 z m 0.39707,-0.291182 c -0.0111,-0.01108 -0.13746,-0.01407 -0.28085,-0.0067 l -0.26072,0.01349 0.26679,0.158933 0.26679,0.158931 0.014,-0.152277 c 0.007,-0.08375 0.005,-0.16134 -0.007,-0.172417 z m 2.92777,0.47539 c -0.0163,-0.02633 -0.007,-0.114465 0.0192,-0.19585 0.0793,-0.240226 -0.007,-0.381945 -0.23245,-0.383193 -0.16221,-8.83e-4 -0.24918,0.167543 -0.17293,0.334902 0.10264,0.22527 0.081,0.242468 -0.30578,0.242468 h -0.3574 l 0.0127,-0.411304 c 0.0117,-0.377401 0.0201,-0.411306 0.10171,-0.411306 0.0788,0 0.0904,0.03402 0.10208,0.300142 0.0124,0.282193 0.0194,0.300141 0.11826,0.300141 0.0959,0 0.10484,-0.01812 0.10198,-0.207354 -0.003,-0.172565 0.0171,-0.224787 0.11766,-0.311257 0.15098,-0.129868 0.45856,-0.142462 0.60394,-0.02473 0.19791,0.160247 0.20913,0.773368 0.0147,0.801562 -0.0518,0.0075 -0.10752,-0.0079 -0.1238,-0.03422 z m -10.48747,-0.03132 c -0.0163,-0.0163 -0.0297,-0.08633 -0.0297,-0.155629 v -0.125986 h -0.43529 -0.43528 l 9.2e-4,0.117941 c 6.8e-4,0.06486 -0.0235,0.126657 -0.0545,0.137312 -0.0657,0.02265 -0.18834,-0.243887 -0.18834,-0.409453 v -0.112591 h 0.55581 0.55582 v -0.133396 c 0,-0.101241 0.0204,-0.133396 0.0842,-0.133396 0.11093,0 0.13816,0.08328 0.13816,0.422421 0,0.154964 -0.0122,0.313402 -0.0269,0.352086 -0.0277,0.07228 -0.11313,0.09325 -0.16569,0.0407 z m -8.47426,-0.248265 c 0.002,-0.07948 -0.0103,-0.199654 -0.0274,-0.267048 -0.0523,-0.205147 0.0322,-0.255421 0.42931,-0.255421 0.28172,0 0.35027,0.01305 0.35027,0.0667 0,0.05232 -0.0611,0.06669 -0.28357,0.06669 -0.33418,0 -0.42808,0.06666 -0.34644,0.245876 0.0458,0.100473 0.0748,0.109847 0.34004,0.109847 0.26034,0 0.28997,0.0091 0.28997,0.08893 0,0.08195 -0.0296,0.08893 -0.37792,0.08893 h -0.37793 z M 271.5219,65.473551 c 0.0136,-0.269021 0.0345,-0.350568 0.10229,-0.400189 0.17042,-0.124624 0.46305,-0.05618 0.52251,0.122212 0.0115,0.03457 0.0777,0.01189 0.19216,-0.0659 0.20843,-0.141635 0.24286,-0.146111 0.24286,-0.03157 0,0.05616 -0.071,0.128671 -0.20009,0.204319 -0.14917,0.08742 -0.20009,0.144476 -0.20009,0.224202 0,0.0971 0.0184,0.106938 0.20009,0.106938 0.17045,0 0.20009,0.01318 0.20009,0.08893 0,0.08404 -0.0297,0.08894 -0.53844,0.08894 h -0.53845 z m 0.47309,-0.0512 c -0.013,-0.202024 -0.0193,-0.211211 -0.14694,-0.211211 -0.1276,0 -0.134,0.0092 -0.14695,0.211211 l -0.0135,0.211211 h 0.1605 0.1605 z m 2.99627,0.110169 c -0.0412,-0.04958 -0.0367,-0.09557 0.0204,-0.209817 0.088,-0.176488 0.039,-0.378356 -0.0919,-0.378356 -0.0616,0 -0.10394,0.06326 -0.16247,0.242812 -0.12071,0.3703 -0.30241,0.455935 -0.51541,0.242927 -0.0988,-0.09877 -0.11143,-0.142267 -0.0918,-0.31584 0.0254,-0.225246 0.13419,-0.375093 0.21424,-0.295046 0.0354,0.03542 0.0355,0.07393 3.2e-4,0.139683 -0.0743,0.138943 -0.0602,0.349438 0.0257,0.382402 0.0872,0.03346 0.13094,-0.02373 0.19488,-0.25477 0.0886,-0.320152 0.34307,-0.441495 0.53124,-0.253332 0.11829,0.118301 0.12264,0.509421 0.007,0.659325 -0.0675,0.0877 -0.0876,0.09381 -0.13232,0.04001 z m 1.81468,-0.313742 c 0,-0.09633 0.0456,-0.125707 0.39946,-0.256804 0.2197,-0.08142 0.38478,-0.162524 0.36684,-0.18024 -0.0179,-0.01771 -0.1927,-0.09087 -0.38835,-0.162552 -0.27706,-0.101523 -0.35886,-0.151263 -0.36993,-0.224963 -0.007,-0.05205 0.007,-0.09462 0.0311,-0.09462 0.0249,0 0.25644,0.08337 0.51445,0.185254 0.43766,0.172833 0.46912,0.193475 0.46912,0.307885 0,0.114712 -0.0309,0.134663 -0.47801,0.308881 -0.2629,0.102437 -0.49301,0.195178 -0.51136,0.206091 -0.0183,0.01091 -0.0334,-0.02911 -0.0334,-0.08894 z m 5.25791,-0.352245 c 0.0284,-0.340476 0.0919,-0.485305 0.25533,-0.581819 0.25051,-0.147972 0.6059,-0.05527 0.7334,0.191291 0.0385,0.07442 0.0675,0.245958 0.0675,0.399436 v 0.269001 h -0.53967 -0.53968 z m 0.89027,-0.100047 c -0.0297,-0.512412 -0.7234,-0.491304 -0.7234,0.02201 v 0.181681 l 0.36685,-0.01292 0.36683,-0.01292 z m 1.76667,0.06225 c 0,-0.299749 0.007,-0.323345 0.15117,-0.466886 0.12905,-0.129045 0.18179,-0.151183 0.36018,-0.151183 0.17838,0 0.23112,0.02214 0.36016,0.151183 0.14355,0.143541 0.15119,0.167137 0.15119,0.466886 v 0.315705 h -0.51135 -0.51135 z m 0.8893,0.0065 c 0,-0.185239 -0.0805,-0.339698 -0.20709,-0.397378 -0.28936,-0.131841 -0.54882,0.05603 -0.54882,0.397378 v 0.131304 h 0.37796 0.37795 z m -14.09554,-0.402281 c 0,-0.326081 0.007,-0.355724 0.089,-0.355724 0.079,0 0.0889,0.02964 0.0889,0.266793 v 0.266792 h 0.1334 0.1334 v -0.266792 c 0,-0.207507 0.0148,-0.266793 0.0667,-0.266793 0.0519,0 0.0667,0.05929 0.0667,0.266793 v 0.266792 h 0.15563 0.15563 v -0.266792 c 0,-0.23715 0.01,-0.266793 0.089,-0.266793 0.0815,0 0.0889,0.02964 0.0889,0.355724 v 0.355723 h -0.53358 -0.53359 z m 2.66792,-0.222327 c 0,-0.286556 0.013,-0.355725 0.0667,-0.355725 0.0519,0 0.0667,0.05929 0.0667,0.266793 v 0.266793 h 0.13339 0.1334 v -0.266664 c 0,-0.237149 0.01,-0.266793 0.089,-0.266793 0.0791,0 0.0889,0.02964 0.0889,0.266793 v 0.266793 h 0.15563 0.15564 v -0.266793 c 0,-0.207505 0.0148,-0.266793 0.0667,-0.266793 0.0537,0 0.0667,0.06917 0.0667,0.355725 v 0.355723 h -0.51135 -0.51135 z m -2.66792,-0.666982 c 0,-0.32608 0.007,-0.355724 0.089,-0.355724 0.079,0 0.0889,0.02965 0.0889,0.266793 v 0.266792 h 0.1334 0.1334 v -0.266792 c 0,-0.203426 0.0153,-0.266793 0.0645,-0.266793 0.0473,0 0.068,0.06809 0.0778,0.255676 l 0.0134,0.255676 0.23345,0.01344 c 0.1971,0.01135 0.23344,0.02692 0.23344,0.100048 0,0.08102 -0.0344,0.0866 -0.53359,0.0866 h -0.53358 z m 2.66792,-0.222327 c 0,-0.326081 0.0124,-0.40019 0.0667,-0.40019 0.0466,0 0.0667,0.04695 0.0667,0.155629 v 0.155558 h 0.44464 c 0.41502,0 0.44466,0.0059 0.44466,0.08893 0,0.08301 -0.0297,0.08894 -0.44466,0.08894 h -0.44465 v 0.15563 c 0,0.108692 -0.0201,0.155627 -0.0667,0.155627 -0.0544,0 -0.0667,-0.07411 -0.0667,-0.400188 z m 7.15894,-0.489085 v -0.711446 h 0.35716 c 0.44876,0 0.64604,0.07585 0.73193,0.2814 0.0474,0.113568 0.0522,0.191114 0.0189,0.311547 -0.0625,0.226116 -0.18512,0.296361 -0.5176,0.296361 h -0.27913 v 0.266793 0.266793 h -0.15562 -0.15563 z m 0.76353,-0.118054 c 0.17332,-0.156854 0.0406,-0.3266 -0.25535,-0.3266 h -0.19693 v 0.200095 0.200094 h 0.18549 c 0.11019,0 0.21848,-0.02987 0.26679,-0.07359 z m 0.84793,0.740811 c -0.21816,-0.133017 -0.32159,-0.334657 -0.3218,-0.627297 -3.1e-4,-0.457458 0.29217,-0.72577 0.75866,-0.695986 0.43373,0.0277 0.66426,0.28202 0.66391,0.732448 -1.9e-4,0.254034 -0.11495,0.464714 -0.3218,0.590835 -0.19688,0.120034 -0.58209,0.120034 -0.77897,0 z m 0.54814,-0.198734 c 0.29745,-0.12428 0.35727,-0.618032 0.097,-0.80035 -0.12524,-0.08772 -0.386,-0.08773 -0.51122,-1.9e-5 -0.25968,0.181891 -0.20628,0.670968 0.0872,0.798474 0.1809,0.0786 0.144,0.07839 0.32706,0.0019 z m 0.89327,-0.121596 c -0.0647,-0.227475 -0.15633,-0.548654 -0.20367,-0.713732 l -0.0861,-0.300141 h 0.16597 0.16597 l 0.10326,0.433538 c 0.0568,0.238446 0.11787,0.460922 0.13575,0.494392 0.0192,0.036 0.0828,-0.142104 0.15574,-0.435944 0.11965,-0.482296 0.12661,-0.4964 0.23874,-0.483274 0.10565,0.01237 0.12547,0.04982 0.23286,0.44016 0.0646,0.234652 0.12664,0.454417 0.13795,0.488368 0.0113,0.03395 0.0763,-0.16304 0.1445,-0.437756 l 0.12392,-0.499484 h 0.15054 c 0.0861,0 0.15053,0.02247 0.15053,0.05251 0,0.02888 -0.0836,0.349031 -0.18598,0.711447 l -0.18598,0.658939 h -0.16172 -0.16173 l -0.10496,-0.444655 c -0.0578,-0.24456 -0.11677,-0.444654 -0.13121,-0.444654 -0.0144,0 -0.077,0.195091 -0.13916,0.433538 l -0.11293,0.433537 -0.15735,0.0134 -0.15737,0.0134 z m 1.79386,-0.302427 v -0.711446 h 0.48913 0.48911 v 0.131526 0.131525 l -0.3446,0.01298 -0.34461,0.01298 v 0.133395 0.133397 l 0.34461,0.01298 0.3446,0.01298 v 0.131525 0.131526 h -0.35571 -0.35573 v 0.155629 0.155629 h 0.35573 0.35571 v 0.133396 0.133397 h -0.48911 -0.48913 z m 1.24504,-0.0053 v -0.71675 l 0.42813,0.01873 c 0.41596,0.0182 0.43175,0.02278 0.55582,0.161634 0.18486,0.206894 0.17617,0.418756 -0.0249,0.608408 -0.0839,0.07915 -0.13661,0.16155 -0.11708,0.183111 0.0196,0.02156 0.0901,0.134247 0.15682,0.250413 l 0.1213,0.211211 h -0.17253 c -0.16349,0 -0.17945,-0.01283 -0.30436,-0.244405 -0.11054,-0.204898 -0.15162,-0.244429 -0.25413,-0.244559 -0.11859,-1.51e-4 -0.12228,0.0072 -0.12228,0.244404 0,0.242089 -9.2e-4,0.24456 -0.13339,0.24456 h -0.1334 z m 0.71436,-0.08519 c 0.0488,-0.02612 0.086,-0.09276 0.086,-0.154065 0,-0.134278 -0.11604,-0.200094 -0.35279,-0.200094 h -0.18078 v 0.200094 0.200095 h 0.18078 c 0.0994,0 0.21949,-0.02072 0.26678,-0.04603 z m 7.37835,0.706397 c 0,-0.02809 0.11382,-0.348244 0.25295,-0.711448 l 0.25294,-0.660366 h 0.18798 0.18795 l 0.20992,0.544701 c 0.11544,0.299586 0.23718,0.612177 0.27052,0.694645 0.0786,0.194499 0.0842,0.183548 -0.0939,0.183548 -0.12668,0 -0.16689,-0.02402 -0.22347,-0.133397 -0.066,-0.127545 -0.0817,-0.133396 -0.35918,-0.133396 -0.28245,0 -0.29143,0.0035 -0.33669,0.133396 -0.0394,0.112966 -0.0697,0.133397 -0.19779,0.133397 -0.0843,0 -0.15127,-0.02263 -0.15127,-0.05108 z m 0.8893,-0.511289 c 0,-0.01583 -0.0433,-0.147538 -0.0962,-0.292682 l -0.0962,-0.263898 -0.0819,0.214868 c -0.15018,0.394135 -0.15473,0.370495 0.0712,0.370495 0.11171,0 0.2031,-0.01296 0.2031,-0.02878 z m 0.71145,-0.149078 v -0.711447 h 0.15021 c 0.13795,0 0.17696,0.03537 0.47801,0.433537 l 0.32779,0.433539 0.0127,-0.433539 0.0127,-0.433537 h 0.13179 0.1318 v 0.711447 0.711447 h -0.13101 c -0.11485,0 -0.17103,-0.0552 -0.45577,-0.447853 l -0.32477,-0.447854 -0.0126,0.447854 -0.0127,0.447853 h -0.15407 -0.15408 z m 1.46736,0.660367 c 0,-0.02809 0.11383,-0.348244 0.25296,-0.711448 l 0.25294,-0.660366 h 0.18851 c 0.18655,0 0.18943,0.0024 0.27685,0.233443 0.0927,0.244832 0.37624,0.978174 0.42987,1.111636 0.0263,0.06545 0.007,0.07782 -0.12797,0.07782 -0.13196,0 -0.17106,-0.02285 -0.22822,-0.133396 -0.066,-0.127545 -0.0817,-0.133397 -0.35918,-0.133397 -0.28246,0 -0.29144,0.0035 -0.3367,0.133397 -0.0394,0.112966 -0.0697,0.133396 -0.19778,0.133396 -0.0843,0 -0.15128,-0.02263 -0.15128,-0.05108 z m 0.88931,-0.511289 c 0,-0.01583 -0.0433,-0.147538 -0.0962,-0.292682 l -0.0962,-0.263898 -0.0819,0.214868 c -0.15018,0.394135 -0.15473,0.370495 0.0712,0.370495 0.11171,0 0.2031,-0.01296 0.2031,-0.02878 z m 0.71144,-0.149078 v -0.711447 h 0.13207 0.13207 l 0.0125,0.566934 0.0125,0.566934 0.30014,0.01315 c 0.29985,0.01313 0.30014,0.01328 0.30014,0.144514 v 0.131364 h -0.44465 -0.44466 z m 1.36083,0.610668 c -0.22155,-0.127018 -0.33817,-0.345168 -0.33796,-0.632207 3.5e-4,-0.423595 0.27468,-0.689575 0.71129,-0.689575 0.44628,0 0.71112,0.264824 0.71112,0.711114 0,0.3049 -0.10871,0.496668 -0.35188,0.620722 -0.23421,0.119479 -0.51331,0.115648 -0.73257,-0.01006 z m 0.62893,-0.234321 c 0.0536,-0.03757 0.12069,-0.145666 0.14902,-0.240217 0.044,-0.146744 0.0393,-0.196955 -0.0321,-0.342997 -0.17163,-0.351467 -0.57245,-0.351006 -0.74515,8.15e-4 -0.15614,0.318146 0.0343,0.650664 0.37258,0.650664 0.0869,0 0.20196,-0.03074 0.2556,-0.06831 z m 1.05274,0.245308 c -0.49582,-0.245433 -0.49699,-1.025978 -0.002,-1.260922 0.22447,-0.106518 0.56039,-0.09387 0.74006,0.02786 0.19206,0.130127 0.20999,0.197974 0.0692,0.262093 -0.0931,0.04244 -0.12901,0.03939 -0.19247,-0.01634 -0.13137,-0.11537 -0.26589,-0.133437 -0.4264,-0.05727 -0.28184,0.133745 -0.3448,0.514682 -0.1219,0.737588 0.17598,0.175981 0.40386,0.179046 0.57237,0.0077 l 0.12027,-0.122279 -0.23345,-0.01344 c -0.22577,-0.013 -0.23344,-0.01774 -0.23344,-0.144513 v -0.131072 h 0.37796 0.37796 v 0.123974 c 0,0.06818 -0.0451,0.211775 -0.10006,0.319085 -0.17511,0.3415 -0.57241,0.453584 -0.94828,0.267528 z m 1.71531,-0.621655 v -0.711447 h 0.13339 0.1334 v 0.711447 0.711447 h -0.1334 -0.13339 z m 0.57805,0 v -0.711447 h 0.146 c 0.13291,0 0.17478,0.03863 0.46689,0.430946 l 0.32089,0.430947 v -0.430815 -0.430946 h 0.15562 0.15563 v 0.711447 0.711447 h -0.13447 c -0.11914,0 -0.17111,-0.05049 -0.45577,-0.442735 -0.17671,-0.243503 -0.33631,-0.443598 -0.35465,-0.444653 -0.0183,-10e-4 -0.0334,0.198173 -0.0334,0.442734 v 0.444654 h -0.1334 -0.1334 z m -29.92524,-1.378427 v -0.133396 h 6.53642 6.53642 v 0.133396 0.133396 h -6.53642 -6.53642 z m 16.00756,-0.04446 V 61.23149 h 7.60358 7.6036 v 0.133397 0.133396 h -7.6036 -7.60358 z"
       id="path179"
       sodipodi:nodetypes="cscsscssssscscssccccccssccsssscscsscsssssssccccssssccsssscsssssssssscccscscccscsscssssscsssccccccsscssssscssssssssssscssccsccccssssscsssssssssssscscsccsscssssssssscscssscsssscsscccsssssssssscsccccscsscsssssscssssssssssscsssssssscsscsssscsssscssscscsccssssssssssssscscssssssccccccsscccssscscssccccssssssssssssccsssscssssssscssscscsssssscsssssssssssccscsssccssscssscsssssssscccscssssscsssssscsssscccssccscscssssccccccccccssscsssscssscccscccccscccssscccscssssssscsscsssssssscsssscccsccssscsssssccccssscssssscccsssccccsscccsscssscccsssscccscsscccssscccssscccccsscccssscccssscccccsscccssscssscccsscssscssccccssssccccccsscccssssssssssssssscscccsscsssccsscccccsccccccccccccccccccccccccccccccccssssscsssssccssscccssssscccssssssssssscssssccsscccccccssccccccsscsssssssssssscssssccccccssccccssssssscscsscccssssssscsscccsccccccccccccccsscccccccsssscccccccccccccccccccccc" /><path
       style="fill:#000000;stroke-width:0.0443769"
       d="m 273.20595,41.634129 c 0.15805,-0.454758 0.28734,-0.835164 0.28734,-0.845339 0,-0.0102 0.1082,-0.0185 0.24038,-0.0185 h 0.2404 l 0.26994,0.809908 c 0.14848,0.445454 0.26996,0.824873 0.26996,0.843161 0,0.01828 -0.0991,0.03325 -0.22018,0.03325 -0.21932,0 -0.22037,-5.35e-4 -0.26797,-0.17751 l -0.0478,-0.177505 h -0.23796 -0.23795 l -0.0392,0.166413 c -0.0391,0.165975 -0.0399,0.166446 -0.29174,0.179688 l -0.25258,0.01329 z m 0.65091,0.133482 c 0.0134,-0.01275 -0.008,-0.136594 -0.0467,-0.275021 l -0.0701,-0.251691 -0.0721,0.241742 c -0.0396,0.132958 -0.064,0.256716 -0.0542,0.275021 0.0203,0.03782 0.20755,0.04543 0.24305,0.0099 z m 0.92337,-0.154175 v -0.843161 l 0.45486,1.67e-4 c 0.69348,3.38e-4 0.85834,0.134206 0.83699,0.679997 -0.003,0.07593 -0.0581,0.178691 -0.13978,0.26031 l -0.13487,0.134862 0.17924,0.285871 c 0.0985,0.157226 0.17924,0.2947 0.17924,0.305491 0,0.01074 -0.10847,0.01963 -0.24106,0.01963 h -0.24108 l -0.14637,-0.266258 c -0.11223,-0.204205 -0.16985,-0.266263 -0.24709,-0.266263 -0.0934,-1.1e-5 -0.10068,0.01904 -0.10068,0.266252 v 0.266258 h -0.19969 -0.19969 z m 0.77861,-0.108928 c 0.13263,-0.132609 0.13518,-0.175462 0.0176,-0.293086 -0.0627,-0.06265 -0.13587,-0.08706 -0.23298,-0.07766 -0.12942,0.01248 -0.14281,0.02837 -0.15566,0.184794 -0.008,0.09409 -0.003,0.198932 0.009,0.232978 0.0378,0.09848 0.2425,0.07185 0.36137,-0.04704 z m 0.86334,0.110042 v -0.852365 l 0.46284,0.01513 c 0.51251,0.01673 0.63586,0.06994 0.7959,0.343233 0.11276,0.192672 0.11746,0.717588 0.008,0.947434 -0.12821,0.270275 -0.32684,0.361158 -0.83363,0.381512 l -0.43355,0.01743 z m 0.68569,0.42422 c 0.18753,-0.07836 0.24622,-0.185149 0.24622,-0.448027 0,-0.168544 -0.0236,-0.229626 -0.12968,-0.33574 -0.0871,-0.08717 -0.17451,-0.129723 -0.26627,-0.129723 h -0.13654 v 0.458561 c 0,0.562166 0.007,0.57197 0.28631,0.454925 z m 1.28133,0.353069 c -0.26146,-0.11372 -0.3009,-0.233129 -0.31874,-0.964931 l -0.016,-0.65664 h 0.22551 0.22551 l 0.0121,0.630736 0.0121,0.63074 0.11787,0.0661 c 0.0948,0.05315 0.14044,0.05585 0.23297,0.01368 l 0.11505,-0.05245 v -0.644416 -0.644417 h 0.22189 0.22188 l -1.9e-4,0.654559 c -1.7e-4,0.766208 -0.0475,0.902812 -0.34144,0.984416 -0.23041,0.06398 -0.53932,0.0564 -0.709,-0.01737 z m 1.40562,-0.112754 V 42.10158 h 0.19969 0.19969 v -0.488145 -0.488146 h -0.19969 -0.19969 v -0.17751 -0.177505 h 0.62128 0.62128 v 0.177505 0.17751 h -0.1997 -0.1997 v 0.488146 0.488145 h 0.1997 0.1997 v 0.177505 0.177511 h -0.62128 -0.62128 z m 1.59758,-0.66565 v -0.843161 l 0.23297,3.33e-4 0.23298,3.37e-4 0.26626,0.490575 0.26626,0.490569 0.0121,-0.490821 0.0121,-0.490859 h 0.19824 0.19824 v 0.843161 0.843167 l -0.23299,-5.05e-4 -0.23297,-5.04e-4 -0.26626,-0.495965 -0.26625,-0.495964 -0.0121,0.496533 -0.0121,0.496544 h -0.19824 -0.19824 z m 1.99846,0.765436 c -0.2477,-0.124957 -0.33434,-0.323345 -0.33429,-0.765436 4e-5,-0.437226 0.0592,-0.590016 0.28841,-0.745495 0.13357,-0.09064 0.19694,-0.103075 0.45337,-0.08905 0.25697,0.01405 0.31665,0.03411 0.43296,0.145545 0.16098,0.154229 0.2225,0.351052 0.22284,0.712874 5.1e-4,0.514517 -0.26347,0.819145 -0.70979,0.819145 -0.10981,0 -0.2689,-0.03492 -0.3535,-0.07758 z m 0.5507,-0.375918 c 0.0952,-0.135816 0.094,-0.644846 -10e-4,-0.781531 -0.0973,-0.138991 -0.32547,-0.118244 -0.40699,0.03701 -0.0734,0.139935 -0.0532,0.67156 0.0295,0.771152 0.0878,0.105827 0.2967,0.09117 0.37921,-0.02661 z m 5.2609,-2.05398 c -0.049,-0.05899 -0.0478,-0.08162 0.007,-0.136663 0.0897,-0.08969 0.22333,-0.03347 0.20611,0.08671 -0.0166,0.116553 -0.13513,0.144275 -0.21341,0.04994 z m 0.41571,3.39e-4 c -0.0352,-0.09161 0.0121,-0.199699 0.0881,-0.199699 0.0344,0 0.0874,0.02992 0.11774,0.06657 0.044,0.05309 0.044,0.08002 0,0.133132 -0.0303,0.03664 -0.0834,0.06656 -0.11774,0.06656 -0.0344,0 -0.074,-0.02998 -0.0881,-0.06656 z m 0.42588,-0.0021 c -0.047,-0.05652 -0.0454,-0.08056 0.009,-0.13476 0.0369,-0.0369 0.0988,-0.05336 0.14041,-0.03739 0.0942,0.03615 0.0971,0.178412 0.004,0.214019 -0.0929,0.03567 -0.0882,0.03696 -0.15356,-0.04183 z m 0.41728,0.0021 c -0.0352,-0.09161 0.0121,-0.199699 0.0881,-0.199699 0.0344,0 0.0874,0.02992 0.11773,0.06657 0.044,0.05309 0.044,0.08002 0,0.133132 -0.0303,0.03664 -0.0834,0.06656 -0.11773,0.06656 -0.0344,0 -0.074,-0.02998 -0.0881,-0.06656 z m 0.42746,-3.39e-4 c -0.0491,-0.05916 -0.0471,-0.08217 0.0121,-0.141098 0.0952,-0.09517 0.22063,-0.04232 0.20244,0.0853 -0.0173,0.121547 -0.13431,0.152024 -0.21417,0.05581 z m 0.41571,3.39e-4 c -0.0352,-0.09161 0.0121,-0.199699 0.0881,-0.199699 0.0344,0 0.0874,0.02992 0.11774,0.06657 0.044,0.05309 0.044,0.08002 0,0.133132 -0.0303,0.03664 -0.0834,0.06656 -0.11774,0.06656 -0.0344,0 -0.074,-0.02998 -0.0881,-0.06656 z m 0.42745,-3.39e-4 c -0.049,-0.05899 -0.0478,-0.08162 0.007,-0.136663 0.0897,-0.08969 0.22335,-0.03347 0.20611,0.08671 -0.0166,0.116553 -0.13512,0.144275 -0.2134,0.04994 z m 0.41697,0.0038 c -0.0404,-0.105209 0.0168,-0.211472 0.10458,-0.194556 0.0491,0.0094 0.0779,0.05542 0.0779,0.124702 0,0.126501 -0.14006,0.180139 -0.18239,0.06985 z m 0.42461,-0.0055 c -0.047,-0.05652 -0.0454,-0.08056 0.009,-0.13476 0.0369,-0.0369 0.0988,-0.05336 0.14042,-0.03739 0.0942,0.03615 0.0971,0.178411 0.004,0.214019 -0.0929,0.03567 -0.0881,0.03696 -0.15354,-0.04183 z m 0.41855,0.0055 c -0.0404,-0.105209 0.0168,-0.211472 0.10458,-0.194556 0.0491,0.0094 0.0779,0.05542 0.0779,0.124702 0,0.126501 -0.14008,0.180139 -0.18239,0.06985 z m 0.41167,0.03368 c -0.0537,-0.05364 -0.0307,-0.182333 0.0371,-0.20835 0.0991,-0.03803 0.1997,0.01481 0.1997,0.104807 0,0.102269 -0.16553,0.174695 -0.23668,0.103544 z m 0.41391,-0.03728 c -0.0491,-0.05916 -0.0471,-0.08218 0.0121,-0.141104 0.0952,-0.09517 0.22065,-0.04231 0.20245,0.0853 -0.0173,0.121547 -0.13432,0.152025 -0.21418,0.05581 z m 0.45514,0.0375 c -0.12754,-0.05148 -0.0329,-0.236872 0.12096,-0.236872 0.053,0 0.091,0.123024 0.0615,0.199693 -0.0258,0.06714 -0.0805,0.07829 -0.18247,0.03717 z m 0.38803,-0.0375 c -0.0491,-0.05916 -0.0473,-0.08218 0.0121,-0.141104 0.0952,-0.09517 0.22065,-0.04231 0.20244,0.0853 -0.0173,0.121547 -0.13431,0.152025 -0.21418,0.05581 z m 0.45513,0.0375 c -0.081,-0.03266 -0.0678,-0.178252 0.0189,-0.211568 0.0416,-0.01599 0.10351,5.03e-4 0.14042,0.03739 0.0542,0.05421 0.0557,0.07824 0.009,0.134759 -0.0597,0.07197 -0.0773,0.07609 -0.16826,0.03942 z m 0.40435,-0.03717 c -0.0352,-0.09161 0.0121,-0.199694 0.0881,-0.199694 0.0344,0 0.0874,0.02992 0.11773,0.06656 0.044,0.05309 0.044,0.08002 0,0.133132 -0.0303,0.03664 -0.0834,0.06656 -0.11773,0.06656 -0.0344,0 -0.074,-0.02992 -0.0881,-0.06656 z m 0.39939,0 c -0.0352,-0.09161 0.0121,-0.199694 0.0881,-0.199694 0.0344,0 0.0874,0.02992 0.11774,0.06656 0.044,0.05309 0.044,0.08002 0,0.133132 -0.0303,0.03664 -0.0834,0.06656 -0.11774,0.06656 -0.0344,0 -0.074,-0.02992 -0.0881,-0.06656 z m -20.89541,-0.04124 c -0.67519,-0.133656 -1.12112,-0.36947 -1.60251,-0.847462 -0.27375,-0.271821 -0.39821,-0.436958 -0.5197,-0.689539 -0.43018,-0.894382 -0.35388,-2.078089 0.18513,-2.871806 0.3766,-0.554569 0.99074,-0.996445 1.67027,-1.201754 0.2831,-0.08554 0.45959,-0.108042 0.8659,-0.110405 1.2596,-0.0074 2.30352,0.58623 3.06368,1.741978 l 0.0682,0.103733 0.19592,-0.260611 c 0.56928,-0.757176 1.15709,-1.193822 1.93086,-1.434255 1.15291,-0.358251 2.31929,-0.07361 3.13924,0.766094 1.13935,1.166791 1.03036,3.16317 -0.22869,4.188775 -1.06068,0.864031 -2.63448,0.90402 -3.84022,0.09757 -0.32484,-0.217275 -0.84201,-0.726128 -1.04511,-1.028309 -0.0611,-0.09079 -0.12418,-0.165208 -0.14044,-0.165375 -0.0162,-1.65e-4 -0.10149,0.09769 -0.18937,0.217473 -0.28375,0.386548 -0.87373,0.905839 -1.2538,1.103575 -0.72269,0.375981 -1.61045,0.52668 -2.29937,0.390317 z m 1.01618,-1.02366 c 0.76936,-0.162992 1.48413,-0.713743 1.9817,-1.526934 l 0.14676,-0.239838 -0.14214,-0.274148 c -0.50302,-0.970187 -1.476,-1.618229 -2.43202,-1.619817 -0.84307,-0.0011 -1.56961,0.503646 -1.7958,1.248314 -0.13344,0.439387 -0.10753,1.061992 0.0592,1.423454 0.36778,0.797197 1.23419,1.189832 2.1823,0.988969 z m -1.17149,-1.797429 v -0.31064 h 0.88753 0.88755 v 0.31064 0.310634 h -0.88755 -0.88753 z m 7.65461,1.730839 c 0.38141,-0.131213 0.76704,-0.430855 0.97863,-0.760368 0.27883,-0.434233 0.32498,-1.243536 0.0989,-1.734561 -0.57945,-1.258596 -2.28648,-1.470672 -3.42944,-0.426059 -0.24001,0.219345 -0.54508,0.639569 -0.72818,1.00301 l -0.0957,0.190067 0.15934,0.303223 c 0.63767,1.213478 1.89894,1.80918 3.01649,1.424688 z m -1.08682,-1.131753 v -0.288452 h -0.31064 -0.31065 v -0.308612 -0.308607 l 0.29955,-0.01316 0.29956,-0.01302 0.0134,-0.299547 0.0134,-0.299544 h 0.30862 0.3086 v 0.31064 0.310639 h 0.28846 0.28844 v 0.310641 0.310633 h -0.28844 -0.28846 v 0.288453 0.288452 h -0.31063 -0.31065 z m 7.35178,2.255829 c -0.0537,-0.05365 -0.0307,-0.182337 0.037,-0.20835 0.0767,-0.02944 0.19971,0.0085 0.19971,0.06154 0,0.142017 -0.14903,0.234454 -0.23668,0.146806 z m 7.54421,-0.03336 c -0.0336,-0.08753 0.0861,-0.207193 0.17361,-0.173601 0.10001,0.03835 0.0593,0.211701 -0.0534,0.227791 -0.0533,0.0077 -0.10552,-0.01593 -0.12015,-0.0542 z m -7.92201,-0.08115 c -0.0282,-0.02815 -0.0512,-0.08844 -0.0512,-0.133992 0,-0.06412 0.0275,-0.07966 0.12163,-0.06879 0.14618,0.01689 0.18601,0.14408 0.0654,0.208666 -0.0595,0.03186 -0.0999,0.03008 -0.13582,-0.0059 z m 8.35211,-0.01128 c -0.0389,-0.10133 0.0156,-0.199699 0.11049,-0.199699 0.0979,0 0.1526,0.146865 0.0813,0.218144 -0.0685,0.06849 -0.16191,0.05951 -0.19182,-0.01844 z m -8.75783,-0.176941 c -0.0721,-0.08683 -0.0255,-0.200263 0.0822,-0.200263 0.10498,0 0.15884,0.122634 0.0902,0.20532 -0.0647,0.07804 -0.10431,0.07688 -0.17236,-0.0048 z m 9.12301,-0.0062 c -0.0377,-0.09809 0.0763,-0.215403 0.17317,-0.178245 0.0451,0.01726 0.0677,0.06647 0.0589,0.128099 -0.0177,0.124621 -0.18927,0.161683 -0.23207,0.05014 z m -9.47802,-0.215788 c -0.0721,-0.08683 -0.0255,-0.200263 0.0821,-0.200263 0.10499,0 0.15885,0.122635 0.0902,0.20532 -0.0647,0.07804 -0.10431,0.07688 -0.17237,-0.0048 z m 9.83304,-0.0062 c -0.0377,-0.0981 0.0763,-0.215403 0.17316,-0.178245 0.0451,0.01726 0.0677,0.06646 0.0589,0.128111 -0.0177,0.124608 -0.18928,0.161678 -0.23208,0.05014 z m 0.34611,-0.257452 c -0.0412,-0.10733 0.0141,-0.202976 0.11733,-0.202976 0.0753,0 0.0904,0.02322 0.0791,0.121654 -0.0158,0.136476 -0.1534,0.193462 -0.19643,0.08131 z m -10.5186,-0.04769 c -0.0352,-0.09161 0.0121,-0.199698 0.0881,-0.199698 0.0889,0 0.17679,0.119707 0.14631,0.199129 -0.0333,0.0867 -0.20116,0.0871 -0.23438,5.05e-4 z m 1.70397,-0.260836 c -0.23229,-0.08572 -0.36472,-0.179591 -0.49583,-0.351487 -0.24206,-0.31736 -0.26198,-0.442616 -0.28202,-1.77294 l -0.0185,-1.231463 h 0.17862 0.1786 l 0.0142,1.275838 c 0.014,1.26205 0.0153,1.277899 0.12337,1.466636 0.16227,0.283377 0.34524,0.377263 0.77486,0.397589 0.30849,0.01459 0.38623,0.0027 0.55778,-0.08601 0.23852,-0.123212 0.37623,-0.316002 0.4408,-0.617118 0.0269,-0.124997 0.0477,-0.707542 0.0477,-1.329686 v -1.107236 h 0.15532 0.15533 v 1.190127 c 0,1.309746 -0.0258,1.488517 -0.26184,1.814356 -0.20107,0.27756 -0.47088,0.388018 -0.98072,0.401513 -0.27475,0.0072 -0.4794,-0.0102 -0.58759,-0.05009 z m 6.39575,0.0021 c -0.56552,-0.210838 -0.90863,-0.66314 -1.01582,-1.339094 -0.1129,-0.712232 0.13904,-1.460986 0.61365,-1.823388 0.57623,-0.439977 1.55286,-0.359881 2.02827,0.166338 0.60854,0.673589 0.60126,1.98718 -0.0145,2.626083 -0.2833,0.293928 -0.54364,0.399024 -1.02944,0.415564 -0.27785,0.0094 -0.47631,-0.006 -0.58212,-0.04548 z m 1.07547,-0.331412 c 0.45642,-0.238428 0.67206,-0.683955 0.66776,-1.379598 -0.005,-0.793636 -0.31576,-1.278573 -0.9166,-1.429868 -0.58294,-0.146784 -1.14914,0.131803 -1.40713,0.692359 -0.0893,0.19402 -0.10216,0.291546 -0.10216,0.776598 0,0.532869 0.005,0.565119 0.13677,0.819031 0.23186,0.44807 0.55675,0.639939 1.08961,0.643462 0.23854,0.0016 0.33955,-0.02161 0.53171,-0.12199 z m 1.62195,0.360611 c -0.0495,-0.04962 -0.033,-0.178547 0.0295,-0.230497 0.0953,-0.07911 0.20904,0.03465 0.16014,0.160231 -0.0377,0.09679 -0.12928,0.130702 -0.18966,0.07026 z m -11.05713,-0.103155 c -0.0525,-0.165465 0.0891,-0.244462 0.19957,-0.111345 0.044,0.05309 0.044,0.08002 0,0.133133 -0.0771,0.09276 -0.16631,0.08302 -0.19957,-0.02178 z m 4.28225,-1.620155 v -1.664134 h 0.17482 0.17482 l 0.96789,1.453344 0.96788,1.453343 0.0121,-1.453343 0.0121,-1.453344 h 0.15471 0.15472 v 1.664134 1.664134 h -0.19498 -0.19498 l -0.95883,-1.451997 -0.95882,-1.451999 v 1.451999 1.451997 h -0.15532 -0.15531 z m 6.99676,1.368292 c -0.0162,-0.01624 -0.0297,-0.07619 -0.0297,-0.133133 0,-0.07963 0.0246,-0.103545 0.10619,-0.103545 0.13143,0 0.17934,0.107532 0.0885,0.198412 -0.0737,0.07373 -0.11908,0.08425 -0.16504,0.03825 z m -11.5009,-0.103156 c -0.0358,-0.112673 0.005,-0.177902 0.11049,-0.177902 0.0869,0 0.15939,0.144091 0.11156,0.221484 -0.0478,0.07723 -0.19269,0.04881 -0.22201,-0.0436 z m 11.6535,-0.327599 c -0.074,-0.08909 -0.0107,-0.212528 0.10041,-0.196573 0.10901,0.01561 0.1533,0.162752 0.0658,0.218236 -0.0823,0.05213 -0.10767,0.04881 -0.16611,-0.02167 z m -11.79164,-0.04672 c -0.0404,-0.10521 0.0168,-0.211473 0.10458,-0.194556 0.0491,0.0094 0.0777,0.05542 0.0777,0.124702 0,0.1265 -0.14006,0.180139 -0.18239,0.06985 z m 11.9053,-0.321313 c -0.0162,-0.01624 -0.0295,-0.07405 -0.0295,-0.128394 0,-0.113828 0.0989,-0.169031 0.17209,-0.09595 0.0722,0.07216 0.0611,0.195725 -0.0204,0.226982 -0.0869,0.03336 -0.0861,0.03336 -0.12217,-0.0027 z m -11.99405,-0.07808 c -0.0404,-0.105209 0.0168,-0.211473 0.10458,-0.194556 0.0491,0.0094 0.0779,0.05542 0.0779,0.124702 0,0.1265 -0.14006,0.180139 -0.18238,0.06985 z m 11.99067,-0.408206 c -0.0164,-0.04285 -0.003,-0.10345 0.0309,-0.137107 0.0848,-0.08487 0.21708,-0.02365 0.20047,0.09282 -0.017,0.119318 -0.18983,0.152403 -0.23132,0.0443 z m -12.02277,-0.0016 c -0.055,-0.05497 -0.0301,-0.182628 0.041,-0.209889 0.10028,-0.03846 0.15132,0.0059 0.15132,0.131145 0,0.07546 -0.0247,0.108324 -0.0813,0.108324 -0.0447,0 -0.0946,-0.01329 -0.11089,-0.0296 z m 12.01387,-0.388719 c -0.0404,-0.10521 0.0168,-0.211471 0.10458,-0.194556 0.0491,0.0094 0.0779,0.05542 0.0779,0.124702 0,0.1265 -0.14007,0.180144 -0.1824,0.06985 z M 286.6018,36.80172 c -0.0404,-0.105209 0.0168,-0.21147 0.10458,-0.194555 0.0491,0.0094 0.0779,0.05542 0.0779,0.124715 0,0.126501 -0.14006,0.180138 -0.18238,0.06985 z m 11.89302,-0.355015 c -0.0412,-0.107331 0.0141,-0.202976 0.11733,-0.202976 0.0753,0 0.0904,0.02323 0.0791,0.121654 -0.0158,0.136476 -0.15339,0.193461 -0.19643,0.08131 z m -11.76832,-0.03433 c -0.0723,-0.07228 -0.067,-0.146424 0.0156,-0.214861 0.0567,-0.04699 0.081,-0.04495 0.13747,0.01154 0.0544,0.05442 0.0583,0.08815 0.0184,0.162602 -0.0575,0.107236 -0.0957,0.116338 -0.17141,0.0407 z m 11.60184,-0.368328 c -0.0383,-0.09977 0.015,-0.199698 0.10659,-0.199698 0.0851,0 0.15674,0.144954 0.10941,0.221484 -0.0421,0.06808 -0.18712,0.05342 -0.21599,-0.02178 z m -11.46029,-0.04108 c -0.0404,-0.105209 0.0168,-0.211472 0.10458,-0.194556 0.0491,0.0094 0.0779,0.05542 0.0779,0.124702 0,0.126501 -0.14008,0.180139 -0.1824,0.06985 z m 11.26055,-0.32473 c -0.0565,-0.105612 0.003,-0.202349 0.11021,-0.181548 0.0549,0.0106 0.0835,0.05369 0.0835,0.125802 0,0.135177 -0.13089,0.172882 -0.19359,0.05575 z m -11.02485,0.0048 c -0.0514,-0.05143 -0.0352,-0.179598 0.0295,-0.233328 0.0763,-0.06323 0.17609,0.04033 0.15327,0.15889 -0.0159,0.08251 -0.12875,0.128474 -0.18283,0.07444 z m 10.77784,-0.307947 c -0.0362,-0.03626 -0.0542,-0.0964 -0.04,-0.133589 0.0384,-0.09997 0.21171,-0.0593 0.22779,0.05347 0.0169,0.11854 -0.0996,0.168281 -0.18779,0.08015 z m -10.5131,-0.0043 c -0.0585,-0.05852 -0.0279,-0.190072 0.0545,-0.23418 0.0626,-0.03352 0.0981,-0.028 0.13925,0.02145 0.0448,0.05394 0.0401,0.08303 -0.0244,0.154384 -0.0844,0.09333 -0.12163,0.106109 -0.16936,0.05834 z m 10.1882,-0.266071 c -0.0761,-0.03073 -0.0697,-0.125507 0.0134,-0.194341 0.0566,-0.04704 0.0812,-0.04473 0.1392,0.01329 0.12377,0.123722 0.0176,0.249668 -0.15252,0.181029 z m -9.90714,-0.102175 c 0,-0.121668 0.15101,-0.19789 0.22217,-0.112136 0.0783,0.09428 0.0203,0.199328 -0.10981,0.199328 -0.082,0 -0.11236,-0.02349 -0.11236,-0.08719 z m 9.54728,-0.149352 c -0.0755,-0.09086 -0.0136,-0.214572 0.0992,-0.198477 0.0671,0.0097 0.0942,0.04511 0.0942,0.123775 0,0.126595 -0.11384,0.170572 -0.19345,0.0747 z m -9.17617,-0.05175 c -0.0153,-0.03995 -0.008,-0.09317 0.0176,-0.118218 0.0724,-0.07235 0.21031,-0.0236 0.21031,0.07432 0,0.112875 -0.18765,0.14901 -0.22797,0.04393 z m 0.39933,-0.133267 c -0.0391,-0.101893 0.0158,-0.199693 0.11196,-0.199693 0.10364,0 0.14113,0.08196 0.0863,0.188602 -0.049,0.09515 -0.16355,0.101571 -0.19828,0.01114 z m 8.40079,0.03701 c -0.0432,-0.04323 -0.0361,-0.18302 0.0107,-0.212013 0.0773,-0.04779 0.18151,0.02992 0.18151,0.135402 0,0.07339 -0.0251,0.106189 -0.0813,0.106189 -0.0447,0 -0.0947,-0.01329 -0.11089,-0.0296 z m -0.37788,-0.0985 c -0.0878,-0.05554 -0.0436,-0.204752 0.0604,-0.204752 0.0636,0 0.0882,0.02982 0.0882,0.10725 0,0.118365 -0.0568,0.155623 -0.1486,0.0975 z m -7.62346,-0.07149 c -0.0153,-0.03995 -0.008,-0.09317 0.0176,-0.118218 0.0723,-0.07233 0.21031,-0.0236 0.21031,0.07432 0,0.112888 -0.18765,0.14901 -0.22798,0.04392 z m 0.40015,-0.04237 c -0.0334,-0.08695 0.016,-0.157446 0.11008,-0.157446 0.10216,0 0.18268,0.08433 0.15336,0.160729 -0.0311,0.08111 -0.23193,0.07861 -0.26337,-0.0032 z m 0.43492,-0.0354 c 0.0173,-0.121667 0.18912,-0.161784 0.23057,-0.05382 0.0396,0.103169 -0.004,0.153665 -0.13331,0.153665 -0.0902,0 -0.10874,-0.01904 -0.0972,-0.09985 z m 0.40628,0.0303 c -0.0146,-0.03825 -0.007,-0.09005 0.0189,-0.115103 0.0737,-0.07373 0.20913,-0.02231 0.22448,0.08526 0.0121,0.0811 -0.007,0.0994 -0.10123,0.0994 -0.0639,0 -0.1274,-0.03105 -0.14211,-0.06955 z m 0.43688,-0.0303 c 0.0173,-0.121667 0.18913,-0.161784 0.23056,-0.05382 0.0396,0.103169 -0.004,0.153665 -0.13331,0.153665 -0.0902,0 -0.10874,-0.01904 -0.0972,-0.09985 z m 0.41605,0.05947 c -0.0137,-0.0222 -0.0121,-0.07318 0.003,-0.113291 0.0414,-0.107975 0.21328,-0.06786 0.23057,0.05382 0.0121,0.0808 -0.007,0.09985 -0.0972,0.09985 -0.0614,0 -0.12271,-0.01818 -0.13636,-0.04038 z m 0.42712,-0.05902 c 0.0158,-0.110928 0.16199,-0.16207 0.21554,-0.07542 0.0557,0.09011 -0.003,0.174808 -0.12042,0.174808 -0.0878,0 -0.10645,-0.01952 -0.095,-0.0994 z m 0.40628,0.02982 c -0.0146,-0.03825 -0.007,-0.09005 0.0189,-0.115103 0.0737,-0.07373 0.20913,-0.02231 0.22447,0.08526 0.0121,0.0811 -0.007,0.0994 -0.10122,0.0994 -0.0639,0 -0.1274,-0.03105 -0.1421,-0.06955 z m 0.42886,-0.0414 c 0,-0.08743 0.0226,-0.110941 0.10619,-0.110941 0.10915,0 0.16177,0.06859 0.12767,0.166413 -0.0107,0.03051 -0.0677,0.05547 -0.12659,0.05547 -0.0849,0 -0.10727,-0.02322 -0.10727,-0.110942 z m 0.4143,0.0414 c -0.0146,-0.03825 -0.007,-0.09005 0.0189,-0.115103 0.0737,-0.07373 0.20915,-0.02231 0.2245,0.08526 0.0121,0.0811 -0.007,0.0994 -0.10122,0.0994 -0.0639,0 -0.1274,-0.03105 -0.14211,-0.06955 z m 0.42887,-0.0414 c 0,-0.08743 0.0225,-0.110941 0.10619,-0.110941 0.10914,0 0.16177,0.06859 0.12767,0.166413 -0.0107,0.03051 -0.0677,0.05547 -0.1266,0.05547 -0.0848,0 -0.10726,-0.02322 -0.10726,-0.110942 z m 0.42406,0.07056 c -0.0137,-0.0222 -0.0121,-0.07318 0.003,-0.11329 0.0414,-0.107975 0.21328,-0.06786 0.23056,0.05382 0.0121,0.0808 -0.007,0.09985 -0.0972,0.09985 -0.0614,0 -0.1227,-0.01818 -0.13636,-0.04038 z m 0.4191,-0.04978 c 0,-0.110311 0.11156,-0.160567 0.19763,-0.08909 0.089,0.07386 0.0353,0.179227 -0.0914,0.179227 -0.0772,0 -0.10619,-0.02467 -0.10619,-0.09015 z m 0.4155,0.02371 c -0.0153,-0.03995 -0.008,-0.09317 0.0176,-0.118218 0.0724,-0.07233 0.21031,-0.0236 0.21031,0.07432 0,0.112875 -0.18765,0.14901 -0.22797,0.04387 z m 0.41369,0.0054 c -0.029,-0.07577 0.0509,-0.160729 0.15123,-0.160729 0.0818,0 0.12727,0.07843 0.0965,0.166414 -0.0262,0.07507 -0.21851,0.07067 -0.24782,-0.0056 z m 0.42947,-0.0054 c -0.0153,-0.03995 -0.008,-0.09317 0.0176,-0.118218 0.0724,-0.07233 0.21029,-0.0236 0.21029,0.07432 0,0.112875 -0.18763,0.14901 -0.22796,0.04387 z m 0.41677,0.01101 c -0.0356,-0.09682 0.0149,-0.166414 0.12082,-0.166414 0.10592,0 0.15771,0.06961 0.12391,0.166414 -0.0107,0.03051 -0.0655,0.05547 -0.12189,0.05547 -0.0564,0 -0.1117,-0.02494 -0.12284,-0.05547 z m 0.4183,-0.04441 c 0.0107,-0.07314 0.0439,-0.09984 0.12512,-0.09984 0.0812,0 0.11478,0.0267 0.12512,0.09984 0.0121,0.08535 -0.005,0.09985 -0.12512,0.09985 -0.11908,0 -0.13724,-0.01448 -0.12512,-0.09985 z m -27.16671,-1.719602 v -0.133132 h 18.74926 18.74927 v 0.133132 0.133133 h -18.74927 -18.74926 z m 23.61934,-0.499237 c -0.0244,-0.03051 -0.0909,-0.145335 -0.14761,-0.255171 -0.1486,-0.287605 -0.14954,-0.857445 -0.003,-1.185686 0.1317,-0.293049 0.20756,-0.362118 0.29808,-0.271606 0.0585,0.05853 0.0552,0.09107 -0.0294,0.284638 -0.13587,0.310774 -0.13795,0.846992 -0.004,1.145606 0.0737,0.164832 0.085,0.23153 0.047,0.277355 -0.0622,0.07495 -0.10431,0.07623 -0.16152,0.0048 z m 7.32016,-5.03e-4 c -0.0332,-0.0399 -0.0205,-0.132515 0.0436,-0.321738 0.11156,-0.329041 0.096,-0.881567 -0.0321,-1.143036 -0.0779,-0.159034 -0.0781,-0.171074 -0.005,-0.24407 0.0733,-0.07283 0.0817,-0.07107 0.16297,0.03417 0.0985,0.127521 0.20565,0.428629 0.24617,0.691476 0.0332,0.215091 -0.074,0.675299 -0.20753,0.891372 -0.0994,0.160765 -0.13742,0.177521 -0.20851,0.09184 z m 2.66359,-0.709491 0.0121,-0.543619 0.25856,-0.01342 c 0.24765,-0.01275 0.25794,-0.0091 0.24406,0.08875 -0.0107,0.07907 -0.0471,0.105317 -0.1587,0.11607 -0.11948,0.01154 -0.14422,0.0325 -0.14422,0.12203 0,0.106042 0.007,0.108136 0.37438,0.108136 h 0.3744 l 0.0138,-0.144225 c 0.0107,-0.110002 0.0349,-0.144225 0.1027,-0.144225 0.0815,0 0.0898,0.03384 0.10149,0.413798 0.0121,0.408901 0.0121,0.413626 -0.0887,0.399392 -0.0733,-0.01047 -0.10551,-0.04838 -0.11558,-0.136444 l -0.0141,-0.122031 h -0.37425 c -0.36962,0 -0.37426,0.0016 -0.37426,0.110942 0,0.09721 0.0192,0.110941 0.15531,0.110941 0.12579,0 0.15533,0.0169 0.15533,0.08875 0,0.07894 -0.0297,0.08875 -0.26762,0.08875 h -0.26764 z m 2.62461,0.477166 c -0.014,-0.03653 -0.0184,-0.224224 -0.009,-0.417059 0.0121,-0.266665 0.0361,-0.372941 0.10028,-0.443882 0.11223,-0.124031 0.35056,-0.124017 0.47459,1.6e-5 0.0921,0.09207 0.0953,0.09221 0.25012,0.01114 0.0863,-0.04521 0.16642,-0.117157 0.17814,-0.159865 0.0121,-0.04269 0.0589,-0.07766 0.10485,-0.07766 0.0656,0 0.0836,0.03277 0.0836,0.153189 0,0.133038 -0.0276,0.172056 -0.21078,0.296619 -0.3194,0.217323 -0.35895,0.304601 -0.13803,0.304601 0.0784,0 0.1628,-0.03207 0.19297,-0.07334 0.0897,-0.122554 0.15584,-0.02425 0.15584,0.231284 0,0.20732 -0.0121,0.241453 -0.084,0.241453 -0.0462,0 -0.0954,-0.02992 -0.10955,-0.06656 -0.0199,-0.05186 -0.10807,-0.06656 -0.39938,-0.06656 -0.29137,0 -0.37949,0.0147 -0.3994,0.06656 -0.033,0.08598 -0.15676,0.08605 -0.18975,1.34e-4 z m 0.50721,-0.421736 c 0.007,-0.06104 -0.0167,-0.150903 -0.0529,-0.199694 -0.0964,-0.129817 -0.22234,-0.03861 -0.24032,0.173972 -0.0137,0.162343 -0.0121,0.164725 0.13317,0.150822 0.11921,-0.01141 0.14955,-0.03513 0.16006,-0.125104 z m -19.37807,0.308215 c -0.42359,-0.0933 -0.65436,-0.570381 -0.47713,-0.986346 0.17055,-0.400246 0.73271,-0.55464 1.09088,-0.299602 0.16124,0.114808 0.17151,0.192582 0.0337,0.255365 -0.0805,0.03669 -0.12283,0.02896 -0.2046,-0.03728 -0.25626,-0.207513 -0.67019,5.03e-4 -0.67019,0.336871 0,0.235322 0.10539,0.406762 0.28698,0.466682 0.18007,0.05943 0.30247,0.03094 0.42303,-0.09846 0.11612,-0.124688 0.076,-0.167321 -0.15792,-0.167321 -0.18063,0 -0.19707,-0.0093 -0.19707,-0.110941 0,-0.109774 0.004,-0.110942 0.38304,-0.110942 h 0.38305 l -0.0248,0.184763 c -0.056,0.417306 -0.43282,0.663258 -0.869,0.567184 z M 283.43373,31.2111 v -0.692124 h 0.38899 c 0.45245,0 0.64676,0.07765 0.78544,0.313891 0.11679,0.19905 0.1137,0.580244 -0.007,0.74077 -0.1861,0.24925 -0.30182,0.297751 -0.74981,0.314216 l -0.41842,0.0154 z m 0.81333,0.326623 c 0.13989,-0.110029 0.19392,-0.34873 0.11961,-0.528225 -0.0644,-0.155693 -0.30296,-0.279441 -0.50154,-0.260256 l -0.14289,0.01379 -0.0121,0.432677 -0.0121,0.432672 h 0.21751 c 0.15185,0 0.2523,-0.02736 0.33278,-0.09068 z m 0.78424,-0.330908 v -0.687839 h 0.13318 0.13317 v 0.687839 0.68785 h -0.13317 -0.13318 z m 2.21885,0 v -0.687839 h 0.15532 0.15531 v 0.687839 0.68785 h -0.15531 -0.15532 z m 1.0109,0.122044 -0.0121,-0.565807 -0.1886,-0.01368 c -0.16668,-0.01208 -0.18861,-0.02623 -0.18861,-0.122044 v -0.108391 h 0.55473 0.5547 v 0.108512 c 0,0.09797 -0.0205,0.109827 -0.21079,0.12203 l -0.2108,0.01352 -0.0121,0.565807 -0.0121,0.565806 h -0.13049 -0.13049 z m 0.63145,0.554714 c 1.6e-4,-0.0062 0.11625,-0.31064 0.25783,-0.676752 l 0.25746,-0.665651 0.1989,-0.01316 0.19889,-0.01316 0.25329,0.657246 c 0.13931,0.361489 0.25329,0.671942 0.25329,0.689899 0,0.01796 -0.0703,0.03266 -0.15641,0.03266 -0.12606,0 -0.16463,-0.02156 -0.19861,-0.110942 -0.0395,-0.103772 -0.0623,-0.110941 -0.35307,-0.110941 -0.2946,0 -0.31235,0.0058 -0.33874,0.110941 -0.0238,0.09456 -0.0533,0.110942 -0.20054,0.110942 -0.0949,0 -0.17252,-0.0048 -0.17229,-0.01114 z m 0.91255,-0.554714 c -0.0137,-0.04269 -0.0634,-0.177506 -0.11021,-0.299544 -0.0709,-0.184295 -0.0909,-0.206848 -0.11774,-0.133132 -0.0179,0.04881 -0.0595,0.156094 -0.0924,0.238395 -0.0977,0.243598 -0.0828,0.271937 0.14268,0.271937 0.17295,0 0.19902,-0.01141 0.17774,-0.07766 z m 0.72899,-0.122044 v -0.687839 h 0.15532 0.15533 v 0.554711 0.554714 h 0.28844 0.28846 v 0.133133 0.133132 h -0.44378 -0.44377 z m 2.39636,0 v -0.687839 h 0.43772 c 0.41377,0 0.44412,0.0064 0.55471,0.116996 0.12606,0.126125 0.15973,0.385894 0.0713,0.551122 -0.0705,0.131629 -0.28211,0.219425 -0.529,0.219425 h -0.2241 v 0.244076 0.244075 h -0.15531 -0.15533 z m 0.78583,-0.185346 c 0.0573,-0.08683 0.0545,-0.105894 -0.0282,-0.188602 -0.0624,-0.06242 -0.14908,-0.09201 -0.26951,-0.09201 h -0.1775 v 0.202129 0.202128 l 0.20568,-0.01352 c 0.15268,-0.01007 0.22211,-0.03841 0.26951,-0.110123 z m 0.70569,0.263008 c -0.0949,-0.335601 -0.18241,-0.646492 -0.19452,-0.690874 -0.0189,-0.06927 0.001,-0.0787 0.1458,-0.06656 l 0.16781,0.01411 0.10955,0.460352 c 0.0604,0.25418 0.12417,0.43669 0.14215,0.407523 0.018,-0.02906 0.08,-0.241211 0.13775,-0.471449 0.10069,-0.40128 0.11008,-0.418615 0.22681,-0.418615 0.10579,0 0.12834,0.02473 0.17176,0.188602 0.16563,0.624322 0.20729,0.75471 0.22929,0.717837 0.0134,-0.02258 0.0693,-0.235789 0.12391,-0.473761 l 0.0993,-0.432678 h 0.17064 c 0.1168,0 0.16484,0.01753 0.15228,0.05547 -0.0107,0.03051 -0.0609,0.205239 -0.1129,0.388295 -0.052,0.183057 -0.13412,0.468758 -0.18255,0.634898 l -0.0881,0.302063 -0.16162,-0.01363 -0.16163,-0.01363 -0.11747,-0.465957 -0.11746,-0.465957 -0.0489,0.177511 c -0.0268,0.09762 -0.0822,0.312303 -0.12297,0.477048 l -0.0742,0.299549 h -0.16105 -0.16108 z m 1.88113,-0.07766 v -0.687839 h 0.21438 0.21441 l 0.16967,0.428709 0.16968,0.428704 0.16052,-0.417612 0.1605,-0.417612 0.20983,-0.01352 0.20983,-0.01352 v 0.690273 0.690274 h -0.1317 -0.1317 l -0.0121,-0.499242 -0.0121,-0.499241 -0.19619,0.501033 c -0.14515,0.370666 -0.21434,0.497542 -0.2659,0.487609 -0.043,-0.0083 -0.13807,-0.190823 -0.24758,-0.475033 l -0.17788,-0.461607 -0.0121,0.473241 -0.0121,0.47324 h -0.15382 -0.15382 z m -31.79608,0.335682 c -0.52366,-0.211038 -0.53275,-0.217108 -0.54499,-0.363903 l -0.0121,-0.149284 0.38966,-0.147332 c 0.21432,-0.08103 0.48451,-0.185533 0.60045,-0.232232 l 0.21079,-0.08491 v 0.127575 c 0,0.09907 -0.0248,0.133803 -0.11088,0.155424 -0.10418,0.02612 -0.11089,0.04564 -0.11089,0.316401 0,0.264734 0.009,0.292732 0.11089,0.339109 0.11625,0.05299 0.16117,0.260186 0.0554,0.255976 -0.0305,-0.0011 -0.2951,-0.09879 -0.58799,-0.216825 z m 0.24406,-0.383045 c 0,-0.226001 0.024,-0.221683 -0.37721,-0.06759 l -0.22188,0.08521 0.13317,0.0525 c 0.0732,0.02885 0.17307,0.06926 0.2219,0.08973 0.2003,0.08402 0.24406,0.05536 0.24406,-0.159827 z m 34.10369,0.197569 c -0.0732,-0.02301 -0.218,-0.03008 -0.32173,-0.01567 -0.1515,0.02108 -0.18861,0.01275 -0.18861,-0.04205 0,-0.03755 0.051,-0.101625 0.11317,-0.142413 0.0984,-0.06447 0.14439,-0.06716 0.35217,-0.02065 0.13143,0.02944 0.31018,0.04011 0.39717,0.02382 0.12619,-0.02366 0.15816,-0.01572 0.15816,0.03931 0,0.08797 -0.16997,0.208307 -0.28722,0.203336 -0.0495,-0.0021 -0.14989,-0.02263 -0.22311,-0.0457 z m -31.94073,-0.27972 c -0.22853,-0.08225 -0.2827,-0.135177 -0.36866,-0.36025 -0.0899,-0.235344 -0.0588,-0.457724 0.0877,-0.627995 l 0.10283,-0.119587 0.054,0.100927 c 0.0451,0.08436 0.0411,0.115211 -0.0248,0.188033 -0.1176,0.12991 -0.0953,0.379838 0.0463,0.521543 0.23358,0.233584 0.68831,0.108968 0.74833,-0.205089 0.0357,-0.186677 -0.049,-0.366574 -0.17255,-0.366574 -0.0948,0 -0.10659,0.01968 -0.10659,0.177505 0,0.147927 -0.0148,0.177511 -0.0887,0.177511 -0.0796,0 -0.0887,-0.0296 -0.0887,-0.288451 v -0.288452 h 0.21866 c 0.18108,0 0.23385,0.0193 0.30696,0.112244 0.13974,0.177639 0.16174,0.424975 0.0585,0.658217 -0.13196,0.298267 -0.45863,0.433648 -0.77321,0.320422 z m 8.19058,-0.285115 c -0.11894,-0.07746 -0.15429,-0.234701 -0.10189,-0.453166 0.0289,-0.120232 0.0385,-0.296598 0.0219,-0.395697 -0.0246,-0.145507 -0.0173,-0.178792 0.0392,-0.178792 0.0383,0 0.10324,0.05154 0.14446,0.114499 0.0665,0.101504 0.0687,0.146345 0.0192,0.394957 -0.0408,0.205088 -0.0427,0.304718 -0.008,0.37073 0.0266,0.04966 0.0483,0.09944 0.0483,0.110633 0,0.039 -0.11935,0.06582 -0.1638,0.03685 z m 2.58392,-0.0496 c -0.0677,-0.07476 -0.0754,-0.130528 -0.0485,-0.344998 0.0431,-0.342422 0.0434,-0.369642 0.004,-0.510999 -0.0413,-0.149808 0.0536,-0.168215 0.17505,-0.03395 0.0663,0.07326 0.074,0.127387 0.0454,0.321732 -0.0344,0.233563 -0.038,0.381495 -0.0134,0.539526 0.0185,0.118795 -0.0675,0.133978 -0.16286,0.02869 z m 24.72379,0.05743 c -0.0163,-0.01626 -0.0297,-0.126729 -0.0297,-0.245465 0,-0.224783 0.0769,-0.314947 0.1893,-0.221732 0.0383,0.03175 0.0785,0.02847 0.1321,-0.01074 0.0729,-0.05326 0.0725,-0.0606 -0.007,-0.132354 -0.0551,-0.04978 -0.094,-0.05966 -0.11317,-0.02869 -0.0161,0.02602 -0.0679,0.04725 -0.11532,0.04725 -0.0736,0 -0.0862,-0.0318 -0.0862,-0.217135 0,-0.258026 0.0924,-0.330125 0.2042,-0.159421 0.0392,0.05981 0.1399,0.151166 0.22382,0.203025 l 0.15257,0.09429 0.17831,-0.123574 c 0.0981,-0.06797 0.1978,-0.159972 0.2216,-0.204456 0.0238,-0.04446 0.0826,-0.08088 0.13049,-0.08088 0.0761,0 0.0871,0.03105 0.0871,0.244075 0,0.212014 -0.0107,0.244071 -0.0862,0.244071 -0.0474,0 -0.0983,-0.01974 -0.11331,-0.04387 -0.0165,-0.02677 -0.071,-0.01513 -0.13987,0.02998 l -0.11277,0.07388 0.10391,0.07856 c 0.0654,0.04946 0.11961,0.06299 0.14613,0.03658 0.0232,-0.02306 0.0792,-0.04199 0.12431,-0.04199 0.0713,0 0.0804,0.03094 0.0687,0.232561 -0.0107,0.179998 -0.031,0.235912 -0.0913,0.247367 -0.0463,0.0089 -0.0913,-0.02124 -0.11089,-0.07408 -0.0181,-0.04887 -0.1129,-0.147316 -0.21058,-0.218739 l -0.1775,-0.129857 -0.1886,0.13422 c -0.10378,0.07382 -0.18861,0.158647 -0.18861,0.188511 0,0.02987 -0.0315,0.06641 -0.0702,0.08123 -0.0869,0.03336 -0.0861,0.03336 -0.12216,-0.0027 z m 2.64412,1.71e-4 c -0.0836,-0.03374 -0.0736,-0.454593 0.0121,-0.487303 0.0369,-0.01416 0.0934,-0.0038 0.12566,0.02285 0.0431,0.03578 0.0811,0.03191 0.14366,-0.01449 0.0836,-0.06202 0.0836,-0.06416 -0.003,-0.128595 -0.0563,-0.04162 -0.0985,-0.04912 -0.11626,-0.02059 -0.0153,0.02473 -0.0654,0.03786 -0.11129,0.02912 -0.0988,-0.01877 -0.14251,-0.316555 -0.0608,-0.414946 0.0576,-0.06943 0.17712,-0.04006 0.17712,0.04355 0,0.05941 0.30568,0.289739 0.38453,0.289739 0.0258,0 0.14343,-0.08987 0.26136,-0.199694 0.28622,-0.266536 0.33041,-0.259939 0.33041,0.04934 v 0.24901 l -0.14918,-0.02799 c -0.19604,-0.0368 -0.31048,0.074 -0.17915,0.173402 0.10002,0.07566 0.15082,0.08315 0.15082,0.0222 0,-0.02441 0.04,-0.04435 0.0887,-0.04435 0.0768,0 0.0887,0.0296 0.0887,0.219265 0,0.120594 -0.0192,0.231154 -0.0427,0.245689 -0.0235,0.01454 -0.12136,-0.05218 -0.21751,-0.148319 -0.24316,-0.243157 -0.32455,-0.259692 -0.53575,-0.108807 -0.0962,0.06875 -0.18427,0.159935 -0.19565,0.202649 -0.0211,0.07882 -0.0513,0.08851 -0.15104,0.04827 z m -41.10415,-0.771203 c 0,-0.319902 0.0107,-0.36836 0.10887,-0.465956 0.15456,-0.154561 0.35016,-0.144821 0.52092,0.02596 0.13196,0.132005 0.13733,0.133267 0.25174,0.0593 0.34888,-0.225538 0.31659,-0.21766 0.31655,-0.07723 -4e-5,0.10635 -0.0364,0.14752 -0.22189,0.25174 -0.17164,0.09639 -0.22183,0.149122 -0.22183,0.232978 0,0.10047 0.0162,0.108378 0.22188,0.108378 0.20709,0 0.22188,0.0074 0.22188,0.110941 v 0.110942 h -0.59909 -0.59909 z m 0.57629,0.01316 c -0.001,-0.213489 -0.0509,-0.321823 -0.16058,-0.349364 -0.15792,-0.03963 -0.2382,0.05378 -0.2382,0.277135 v 0.194266 h 0.19969 c 0.18842,0 0.19967,-0.007 0.19909,-0.12203 z m 1.99757,-0.402304 c 0,-0.106525 0.0587,-0.166994 0.39867,-0.410489 0.21928,-0.157055 0.39901,-0.30053 0.3994,-0.318835 4e-4,-0.01828 -0.17901,-0.03331 -0.39867,-0.03331 -0.36981,0 -0.3994,-0.0066 -0.3994,-0.08875 0,-0.08437 0.0297,-0.08875 0.59909,-0.08875 0.59851,0 0.59909,1.02e-4 0.59909,0.10384 0,0.08033 -0.0964,0.173226 -0.42578,0.410484 l -0.42576,0.306655 0.42576,0.01275 c 0.41947,0.01248 0.42578,0.01432 0.42578,0.122044 v 0.10933 h -0.59909 -0.59909 z m 23.19109,-0.148886 c -0.0813,-0.11611 -0.0911,-0.319962 -0.0246,-0.510881 0.0322,-0.09251 0.0318,-0.170061 -0.001,-0.257924 -0.0659,-0.173471 0.009,-0.245098 0.13699,-0.130099 0.0844,0.07617 0.0915,0.1145 0.0644,0.351751 -0.0326,0.285797 -0.0341,0.341125 -0.0145,0.505843 0.0171,0.14294 -0.0732,0.166158 -0.16067,0.0413 z m 2.60769,-0.01818 c -0.0665,-0.101504 -0.0687,-0.146344 -0.0192,-0.394957 0.0431,-0.216856 0.0439,-0.302676 0.003,-0.378411 -0.0603,-0.112727 -0.007,-0.194298 0.0996,-0.153257 0.12552,0.04822 0.17915,0.253546 0.12176,0.466788 -0.0283,0.105316 -0.0385,0.276753 -0.0227,0.382578 0.0234,0.155447 0.0159,0.191756 -0.0395,0.191756 -0.0376,0 -0.10203,-0.05154 -0.14329,-0.114499 z m 12.96785,-0.103961 c -0.14186,-0.144034 -0.20603,-0.242312 -0.18832,-0.288452 0.0349,-0.09095 0.1566,-0.08933 0.25912,0.0032 0.0779,0.07045 0.0812,0.06138 0.0812,-0.223277 0,-0.223925 0.0165,-0.303039 0.0671,-0.322482 0.12713,-0.04881 0.19912,0.07099 0.19912,0.331305 0,0.192512 0.0121,0.235682 0.0533,0.194266 0.0756,-0.07559 0.243,-0.066 0.27436,0.01572 0.0322,0.08416 -0.34931,0.507931 -0.45739,0.507931 -0.0403,0 -0.17008,-0.09831 -0.28843,-0.218465 z m -24.9866,0.08643 c -0.0643,-0.0711 -0.0733,-0.127736 -0.0471,-0.299548 0.046,-0.302707 0.0478,-0.420101 0.008,-0.53361 -0.0282,-0.08123 -0.0187,-0.09985 0.0516,-0.09985 0.15245,0 0.18163,0.09596 0.1725,0.567505 -0.009,0.473215 -0.0373,0.528923 -0.18528,0.365502 z m 22.55177,0.05996 c -0.0173,-0.01732 -0.0314,-0.151043 -0.0314,-0.2972 0,-0.254635 -0.003,-0.262675 -0.0812,-0.192303 -0.10109,0.09153 -0.1583,0.09267 -0.23138,0.0048 -0.0487,-0.05865 -0.0217,-0.104646 0.18165,-0.310639 0.13129,-0.132985 0.25731,-0.241791 0.27993,-0.241791 0.072,0 0.48172,0.437482 0.46284,0.494087 -0.0392,0.117775 -0.15945,0.148779 -0.25203,0.065 -0.0882,-0.07986 -0.0893,-0.07792 -0.10243,0.201559 -0.0121,0.245041 -0.0252,0.283915 -0.10391,0.295173 -0.0498,0.0071 -0.10471,-0.0011 -0.12203,-0.0185 z m -5.2379,-0.09674 c -0.083,-0.0916 -0.0961,-0.31064 -0.0322,-0.533294 0.0286,-0.09957 0.026,-0.181983 -0.008,-0.256078 -0.0737,-0.16184 0.0189,-0.241384 0.1466,-0.125843 0.0828,0.07496 0.0908,0.115291 0.0646,0.329561 -0.0317,0.259812 -0.0358,0.414013 -0.0146,0.550006 0.018,0.115667 -0.0667,0.134953 -0.15657,0.03567 z m -27.29747,-0.0161 c -0.0107,-0.03256 -0.026,-0.109089 -0.0333,-0.170104 -0.0134,-0.109626 -0.0183,-0.110942 -0.43485,-0.110942 h -0.42158 l 0.0142,0.122044 c 0.0121,0.09765 -0.004,0.122031 -0.0756,0.122031 -0.066,0 -0.10216,-0.04414 -0.13606,-0.166415 -0.0925,-0.333037 -0.11022,-0.321731 0.50518,-0.321731 h 0.55191 l 0.014,-0.144225 c 0.009,-0.09244 0.0379,-0.144227 0.0804,-0.144227 0.0545,0 0.0666,0.07601 0.0666,0.417881 0,0.294769 -0.0164,0.423328 -0.0555,0.436366 -0.0305,0.0102 -0.0644,-0.0082 -0.0754,-0.04065 z m 2.64932,0.01936 c -0.0305,-0.01074 -0.0554,-0.08758 -0.0554,-0.170968 v -0.151622 h -0.42158 -0.42159 v 0.133132 c 0,0.100739 -0.0203,0.133133 -0.0835,0.133133 -0.0618,0 -0.0964,-0.05132 -0.13317,-0.197158 -0.0272,-0.108431 -0.0497,-0.218271 -0.0497,-0.244075 0,-0.03046 0.19365,-0.04693 0.5519,-0.04693 h 0.5519 l 0.0138,-0.144225 c 0.0107,-0.110002 0.0349,-0.144227 0.1027,-0.144227 0.0813,0 0.0898,0.03379 0.10149,0.405132 0.0134,0.408956 -0.0121,0.478148 -0.15691,0.427797 z m 2.61658,-0.02027 c -0.0295,-0.0296 -0.0538,-0.10972 -0.0538,-0.178063 v -0.124246 h -0.42476 -0.42476 l 0.0142,0.122031 c 0.0107,0.0964 -0.004,0.122043 -0.0725,0.122043 -0.0644,0 -0.10136,-0.05026 -0.14315,-0.194593 -0.031,-0.107022 -0.0456,-0.211863 -0.0326,-0.232979 0.0134,-0.02113 0.26218,-0.03839 0.55363,-0.03839 0.51974,0 0.52992,-0.0021 0.53059,-0.09985 0.001,-0.143147 0.067,-0.228355 0.15183,-0.195815 0.0614,0.02355 0.0707,0.09121 0.06,0.435552 -0.0121,0.401752 -0.0502,0.492801 -0.15867,0.384316 z m 2.6332,0.0011 c -0.0107,-0.03256 -0.026,-0.109089 -0.0333,-0.170104 -0.0134,-0.109626 -0.0183,-0.110942 -0.43485,-0.110942 h -0.42159 l 0.0142,0.122031 c 0.0107,0.09672 -0.004,0.122043 -0.0733,0.122043 -0.0929,0 -0.18502,-0.190431 -0.18502,-0.382461 0,-0.10141 0.008,-0.103142 0.54326,-0.115412 l 0.54324,-0.01248 0.023,-0.133132 c 0.0134,-0.07808 0.0503,-0.133133 0.0891,-0.133133 0.0538,0 0.0662,0.07725 0.0662,0.417886 0,0.294763 -0.0164,0.423329 -0.0554,0.436367 -0.0305,0.0102 -0.0644,-0.0082 -0.0754,-0.0407 z M 263.95225,28.81087 c 0,-0.391996 0.007,-0.42158 0.0887,-0.42158 0.0803,0 0.0887,0.0296 0.0887,0.31064 v 0.310639 h 0.15531 0.15533 V 28.69993 c 0,-0.281056 0.008,-0.31064 0.0887,-0.31064 0.0803,0 0.0887,0.0296 0.0887,0.31064 v 0.310639 h 0.17751 0.17752 V 28.69993 c 0,-0.281056 0.008,-0.31064 0.0887,-0.31064 0.0826,0 0.0887,0.0296 0.0887,0.42158 v 0.421581 h -0.59909 -0.59909 z m 2.57403,-0.721123 c 2e-4,-0.406714 0.0924,-0.601401 0.33221,-0.701607 0.19346,-0.08084 0.33995,-0.08084 0.53343,0 0.23983,0.100202 0.33201,0.294893 0.33221,0.701607 l 1.6e-4,0.343919 h -0.59909 -0.59909 l 1.6e-4,-0.343919 z m 1.02051,-0.08107 c 0,-0.416295 -0.42958,-0.616695 -0.71346,-0.332826 -0.10552,0.105585 -0.12968,0.167506 -0.12968,0.332826 v 0.20311 h 0.42157 0.42159 z m 27.23689,0.05527 c -0.36038,-0.213165 -0.38779,-0.239546 -0.3883,-0.373586 l -5.1e-4,-0.144225 h 0.39801 c 0.32971,0 0.39375,-0.01101 0.37326,-0.06444 -0.0367,-0.09552 0.0157,-0.152221 0.11626,-0.12591 0.0491,0.01289 0.0887,0.06053 0.0887,0.10678 0,0.04597 0.0299,0.08358 0.0666,0.08358 0.0371,0 0.0666,-0.03944 0.0666,-0.08875 0,-0.05916 0.0297,-0.08875 0.0887,-0.08875 0.0808,0 0.0887,0.02959 0.0887,0.332826 0,0.303244 -0.008,0.332829 -0.0887,0.332829 -0.069,0 -0.0887,-0.02959 -0.0887,-0.133133 0,-0.08875 -0.0222,-0.133132 -0.0666,-0.133132 -0.0518,0 -0.0666,0.05916 -0.0666,0.266262 0,0.24761 -0.007,0.266007 -0.0999,0.262643 -0.0549,-0.002 -0.27433,-0.106833 -0.48761,-0.232978 z m 0.40994,-0.140607 v -0.15532 l -0.27735,6.98e-4 -0.27737,6.97e-4 0.15533,0.09474 c 0.0854,0.05212 0.19526,0.120621 0.24407,0.152244 0.13504,0.08749 0.15532,0.07531 0.15532,-0.09315 z m -24.93537,0.271738 c -0.036,-0.04346 -0.0376,-0.09569 -0.005,-0.180398 0.0711,-0.18725 0.0546,-0.327249 -0.0451,-0.380608 -0.13277,-0.07106 -0.25438,-0.01345 -0.28722,0.136039 -0.0381,0.173575 -0.16418,0.172473 -0.23004,-0.002 -0.0552,-0.14631 -0.18718,-0.178224 -0.27908,-0.0675 -0.0413,0.04974 -0.0426,0.09973 -0.005,0.206318 0.0691,0.198232 0.0614,0.260568 -0.0326,0.260568 -0.10404,0 -0.18463,-0.175974 -0.18463,-0.403499 0,-0.320292 0.32284,-0.513716 0.51079,-0.306033 l 0.0808,0.08926 0.0831,-0.08926 c 0.12257,-0.131589 0.40661,-0.1214 0.54767,0.01967 0.0883,0.08836 0.10888,0.153513 0.10888,0.34514 0,0.141972 -0.0275,0.275567 -0.0691,0.334847 -0.08,0.114271 -0.12216,0.12246 -0.1927,0.03745 z m 2.39831,-0.245889 c -0.21469,-0.224258 -0.33236,-0.314221 -0.411,-0.314221 -0.21878,0 -0.28741,0.196932 -0.1223,0.350802 0.1078,0.100443 0.0846,0.226098 -0.0419,0.226098 -0.13317,0 -0.24148,-0.15969 -0.26317,-0.387848 -0.0161,-0.169407 -0.001,-0.235407 0.0763,-0.333277 0.08,-0.101343 0.13076,-0.12203 0.29956,-0.12203 0.18716,0 0.22253,0.01929 0.44731,0.244074 0.13424,0.134233 0.25101,0.244071 0.2595,0.244071 0.053,0 0.003,-0.288104 -0.0584,-0.332611 -0.12176,-0.08899 -0.0416,-0.208085 0.12888,-0.191652 l 0.14451,0.01394 v 0.44316 c 0,0.576862 -0.0451,0.592493 -0.45952,0.15951 z m 4.66708,0.220512 c -0.17731,-0.108122 -0.23581,-0.215968 -0.23581,-0.434759 0,-0.333628 0.39615,-0.536854 0.87644,-0.449623 0.50912,0.09246 0.63044,0.675881 0.18811,0.904615 -0.1898,0.09815 -0.65314,0.08684 -0.82874,-0.02023 z m 0.77498,-0.248798 c 0.23969,-0.167883 0.0205,-0.396096 -0.37497,-0.390381 -0.16291,0.0024 -0.26585,0.02857 -0.32602,0.083 -0.2089,0.189057 -0.0318,0.376453 0.35585,0.376453 0.15129,0 0.28461,-0.02669 0.34514,-0.06908 z m 8.49697,0.304025 c -0.0947,-0.01822 -0.0999,-0.03994 -0.0999,-0.41292 0,-0.216528 0.0196,-0.405804 0.0435,-0.420613 0.024,-0.01481 0.18372,0.01397 0.35502,0.06394 0.17128,0.04998 0.45123,0.131656 0.62207,0.181505 0.29416,0.08582 0.31065,0.0976 0.31065,0.221885 0,0.07218 -0.0161,0.131253 -0.0356,0.131253 -0.0196,0 -0.25423,-0.07964 -0.52142,-0.176963 -0.2672,-0.09733 -0.50077,-0.177207 -0.51908,-0.177508 -0.0183,-3.34e-4 -0.0333,0.0993 -0.0333,0.22134 0,0.12203 0.02,0.221884 0.0443,0.221884 0.0244,0 0.0443,0.03994 0.0443,0.08875 0,0.08836 -0.0208,0.09403 -0.21078,0.05743 z m 3.0027,-0.01114 c -0.19222,-0.05825 -0.33994,-0.177099 -0.41393,-0.333001 -0.0895,-0.188833 -0.095,-0.512124 -0.008,-0.512124 0.0718,0 0.11572,0.09462 0.11572,0.249718 0,0.120097 0.17953,0.327181 0.28363,0.327181 0.0506,0 0.0599,-0.03642 0.0401,-0.157745 -0.0654,-0.403117 0.40614,-0.627916 0.70025,-0.333814 0.16949,0.169488 0.18409,0.469536 0.0298,0.614 -0.18593,0.174176 -0.47034,0.229671 -0.74715,0.145785 z m 0.57087,-0.29293 c 0.17653,-0.123655 0.0995,-0.330312 -0.12324,-0.330312 -0.0635,0 -0.13935,0.02396 -0.16864,0.05326 -0.0785,0.07848 -0.0647,0.246285 0.0244,0.298209 0.10713,0.06242 0.15338,0.05877 0.26747,-0.02114 z m 2.65615,0.300433 c -0.0136,-0.02199 -0.005,-0.11082 0.0187,-0.197381 0.0678,-0.245342 -0.005,-0.388986 -0.19945,-0.388986 -0.19856,0 -0.27549,0.119883 -0.20559,0.320407 0.087,0.249658 0.0788,0.256493 -0.30906,0.256493 h -0.35668 l 0.0134,-0.410487 c 0.0121,-0.376647 0.02,-0.410485 0.10149,-0.410485 0.0787,0 0.0902,0.03396 0.10189,0.299543 0.0121,0.284878 0.0184,0.299544 0.12203,0.299544 0.10095,0 0.10887,-0.01608 0.10887,-0.218663 0,-0.18337 0.0189,-0.233509 0.11693,-0.310639 0.16851,-0.132542 0.4745,-0.12587 0.61377,0.01342 0.19626,0.196269 0.19034,0.744382 -0.008,0.77361 -0.051,0.0075 -0.10377,-0.0043 -0.11733,-0.02635 z m 7.64894,-0.298142 c -0.19204,-0.182931 -0.37172,-0.332603 -0.39928,-0.332603 -0.20876,0 -0.29129,0.233974 -0.13304,0.377204 0.13076,0.118379 0.11183,0.199698 -0.0467,0.199698 -0.1125,0 -0.14625,-0.02596 -0.1997,-0.153895 -0.15513,-0.371291 0.005,-0.689999 0.34828,-0.688975 0.1321,3.36e-4 0.32109,0.130958 0.52435,0.362359 l 0.16871,0.192061 0.003,-0.172617 c 10e-4,-0.111022 -0.0243,-0.19175 -0.0714,-0.226246 -0.10606,-0.07754 -0.0344,-0.15585 0.14253,-0.15585 h 0.15269 v 0.439022 c 0,0.582843 -0.033,0.593641 -0.48838,0.159842 z m 4.77245,0.266539 c -0.0967,-0.03443 -0.21108,-0.108444 -0.25417,-0.164467 -0.096,-0.124742 -0.10431,-0.425076 -0.0153,-0.552145 0.21935,-0.313169 0.9819,-0.313169 1.20124,0 0.0357,0.05107 0.065,0.17554 0.065,0.276613 0,0.396184 -0.50006,0.616918 -0.99677,0.439999 z m 0.6906,-0.290884 c 0.12525,-0.06707 0.0967,-0.266622 -0.0489,-0.339857 -0.1429,-0.07193 -0.47885,-0.07178 -0.62129,3.36e-4 -0.0808,0.0409 -0.11088,0.09189 -0.11088,0.187948 0,0.110539 0.0251,0.140747 0.15532,0.187108 0.16762,0.05967 0.48115,0.04188 0.62572,-0.03548 z m -26.11634,0.176485 c -0.1887,-0.224241 -0.12284,-0.583747 0.12793,-0.697987 0.15862,-0.07228 0.57811,-0.06687 0.72456,0.0093 0.2686,0.139747 0.41779,0.429942 0.37291,0.725341 -0.0164,0.107223 -0.0905,0.135519 -0.11626,0.04438 -0.008,-0.0305 -0.0387,-0.140225 -0.0669,-0.243815 -0.0375,-0.138097 -0.0873,-0.207044 -0.1867,-0.25844 -0.16342,-0.08451 -0.18812,-0.0682 -0.12968,0.08561 0.094,0.2472 -0.10861,0.472113 -0.42516,0.472113 -0.15308,0 -0.20615,-0.0241 -0.30077,-0.136535 z m 0.46201,-0.174104 c 0.10699,-0.107008 0.11035,-0.149555 0.0191,-0.240903 -0.12404,-0.124017 -0.41841,-0.04595 -0.41841,0.110942 0,0.06553 0.17095,0.218713 0.24408,0.218713 0.0367,0 0.10646,-0.03994 0.15532,-0.08875 z m 2.18731,0.210791 c -0.18003,-0.196688 -0.18473,-0.504217 -0.0107,-0.691161 0.11424,-0.122661 0.35383,-0.129145 0.45944,-0.01248 0.0744,0.08223 0.0784,0.08173 0.18236,-0.02219 0.0584,-0.05845 0.15803,-0.106269 0.22126,-0.106269 0.13579,0 0.31736,0.166968 0.3581,0.329296 0.0411,0.163986 -0.0156,0.415412 -0.11653,0.516339 -0.11531,0.115264 -0.36923,0.113962 -0.48566,-0.0024 l -0.0887,-0.08875 -0.0887,0.08875 c -0.11868,0.118714 -0.31679,0.113613 -0.43094,-0.01114 z m 0.93658,-0.179695 c 0.17336,-0.126756 -0.004,-0.472185 -0.18391,-0.35922 -0.10982,0.06872 -0.12714,0.287168 -0.0286,0.35922 0.0434,0.03171 0.0911,0.05766 0.10632,0.05766 0.015,0 0.063,-0.02595 0.10633,-0.05766 z m -0.53957,-0.102873 c 0.0466,-0.102417 0.0408,-0.125964 -0.0494,-0.199051 -0.13557,-0.109787 -0.27163,-0.04374 -0.27163,0.131857 0,0.151362 0.0285,0.183343 0.16366,0.183343 0.0697,0 0.12216,-0.03873 0.15743,-0.116151 z m -18.91504,-0.08354 c 0,-0.391998 0.007,-0.421582 0.0887,-0.421582 0.0803,0 0.0887,0.02959 0.0887,0.310639 v 0.310638 h 0.15531 0.15533 v -0.310888 c 0,-0.281055 0.008,-0.310639 0.0887,-0.310639 0.0803,0 0.0887,0.02959 0.0887,0.310639 v 0.310638 h 0.26627 c 0.25443,0 0.26626,0.005 0.26626,0.110941 v 0.110942 h -0.59909 -0.59909 z m 11.60933,0.351384 c -0.0148,-0.03861 -0.027,-0.108498 -0.027,-0.155318 0,-0.07797 -0.0356,-0.08513 -0.42327,-0.08513 h -0.42325 l 0.0134,0.122044 c 0.009,0.0947 -0.007,0.12203 -0.0713,0.12203 -0.1125,0 -0.24547,-0.412558 -0.1521,-0.471755 0.0322,-0.02047 0.28086,-0.03752 0.5524,-0.0379 l 0.49369,-6.97e-4 0.0267,-0.133132 c 0.0191,-0.09533 0.0521,-0.133133 0.11652,-0.133133 0.0839,0 0.0898,0.02786 0.0898,0.421582 0,0.384053 -0.008,0.421582 -0.084,0.421582 -0.0462,0 -0.0961,-0.03159 -0.11088,-0.0702 z m 22.49666,0.02955 c -0.0138,-0.02237 -0.005,-0.09356 0.0196,-0.158209 0.10337,-0.271836 0.0121,-0.457133 -0.20015,-0.403999 -0.0797,0.02002 -0.12056,0.067 -0.13926,0.160274 -0.0317,0.15834 -0.17871,0.185166 -0.2008,0.03664 -0.0199,-0.133374 -0.1473,-0.206969 -0.24716,-0.142716 -0.0783,0.05033 -0.082,0.09615 -0.0297,0.36007 0.0224,0.11321 0.0137,0.144224 -0.0405,0.144224 -0.21008,0 -0.28885,-0.529149 -0.10457,-0.702295 0.12552,-0.117949 0.31302,-0.124527 0.42271,-0.01482 0.0793,0.07929 0.0843,0.07864 0.17416,-0.02219 0.13264,-0.148881 0.33783,-0.138305 0.50202,0.02587 0.10968,0.109746 0.12968,0.164864 0.12968,0.357933 0,0.12552 -0.0207,0.266841 -0.0459,0.31405 -0.0475,0.08875 -0.19603,0.116687 -0.24022,0.04519 z m 5.35455,-0.01208 c -0.0295,-0.02959 -0.0538,-0.10972 -0.0538,-0.178063 v -0.124554 h -0.42476 -0.42476 l 0.0142,0.122031 c 0.0107,0.0964 -0.004,0.122043 -0.0725,0.122043 -0.0644,0 -0.10136,-0.05025 -0.14313,-0.194592 -0.031,-0.107021 -0.0457,-0.211867 -0.0326,-0.23298 0.0134,-0.0211 0.26219,-0.03838 0.55364,-0.03838 0.51973,0 0.52991,-0.0019 0.53058,-0.09985 10e-4,-0.143147 0.067,-0.228356 0.15184,-0.195817 0.0614,0.02357 0.0707,0.09122 0.0599,0.435551 -0.0121,0.401754 -0.0502,0.492804 -0.15865,0.384317 z"
       id="path193" /><path
       style="fill:#000000;stroke-width:0.0556423"
       d="m 252.66188,27.31296 c 0,-0.364907 0.0147,-0.424465 0.12367,-0.500782 0.19152,-0.134148 0.40727,-0.10875 0.54311,0.06394 0.12772,0.162376 0.1062,0.165994 0.4878,-0.08199 0.11833,-0.07689 0.1252,-0.0736 0.1252,0.05998 0,0.108759 -0.0545,0.171346 -0.23648,0.271537 -0.15056,0.0829 -0.24294,0.175382 -0.25426,0.25456 -0.0162,0.113169 0.005,0.124359 0.23648,0.124359 0.21716,0 0.25426,0.01623 0.25426,0.111285 0,0.104834 -0.0371,0.111285 -0.63989,0.111285 h -0.63989 z m 0.61207,8.47e-4 c 0,-0.104925 -0.0393,-0.230121 -0.0874,-0.278212 -0.18436,-0.184363 -0.3577,-0.05956 -0.3577,0.257547 0,0.209587 0.002,0.211441 0.22257,0.211441 0.21639,0 0.22257,-0.0053 0.22257,-0.190774 z m -0.61207,-1.255927 c 0,-0.358584 0.0162,-0.445139 0.0835,-0.445139 0.0649,0 0.0835,0.07419 0.0835,0.333854 v 0.333855 h 0.16693 0.16692 v -0.333855 c 0,-0.296759 0.0124,-0.333854 0.11129,-0.333854 0.099,0 0.11129,0.0371 0.11129,0.337379 v 0.337381 l 0.18083,-0.01743 c 0.17879,-0.01724 0.18103,-0.02106 0.19753,-0.33738 0.0122,-0.234734 0.0382,-0.319943 0.0974,-0.319943 0.0638,0 0.0807,0.09336 0.0807,0.445139 v 0.445139 h -0.63989 -0.63989 z m 1.01208,-0.682865 c -0.0515,-0.06204 -0.0459,-0.119594 0.0254,-0.262556 0.11017,-0.220851 0.0488,-0.473461 -0.11503,-0.473461 -0.0771,0 -0.13006,0.07917 -0.2033,0.303846 -0.15106,0.463379 -0.37842,0.57054 -0.64498,0.303991 -0.12359,-0.123596 -0.13942,-0.178029 -0.11494,-0.395232 0.0318,-0.281865 0.16793,-0.469377 0.26809,-0.36921 0.0443,0.04433 0.0445,0.0925 4.3e-4,0.174795 -0.0931,0.173867 -0.0754,0.437274 0.0321,0.478523 0.10911,0.04187 0.16386,-0.0297 0.24388,-0.318809 0.11088,-0.400627 0.4293,-0.552472 0.66476,-0.31701 0.14803,0.148037 0.15348,0.63747 0.009,0.825055 -0.0844,0.109743 -0.10971,0.11739 -0.16558,0.05007 z m -1.01208,-1.654117 c 0,-0.358584 0.0162,-0.445139 0.0835,-0.445139 0.0649,0 0.0835,0.07419 0.0835,0.333854 v 0.333855 h 0.16693 0.16692 v -0.333855 c 0,-0.296759 0.0124,-0.333854 0.11129,-0.333854 0.0989,0 0.11129,0.0371 0.11129,0.333854 v 0.333855 h 0.19474 0.19475 v -0.333855 c 0,-0.259664 0.0185,-0.333854 0.0835,-0.333854 0.0672,0 0.0835,0.08655 0.0835,0.445139 v 0.445113 h -0.63989 -0.63989 z m 0,-1.112848 c 0,-0.408045 0.0155,-0.500782 0.0835,-0.500782 0.0583,0 0.0835,0.05874 0.0835,0.194748 v 0.194749 h 0.55643 c 0.51932,0 0.55642,0.0074 0.55642,0.111285 0,0.103866 -0.0371,0.111284 -0.55642,0.111284 h -0.55643 v 0.194749 c 0,0.136015 -0.0252,0.194749 -0.0835,0.194749 -0.068,0 -0.0835,-0.09274 -0.0835,-0.500782 z"
       id="path410" /></g><g
     id="g254"
     transform="matrix(0.02116667,0,0,-0.02116667,-20.865337,277.35188)"><g
       id="g256"
       clip-path="url(#clipPath260)"><path
         d="m 1265,12862.5 c 0,-65.445 53.0542,-118.5 118.5,-118.5 65.4458,0 118.5,53.055 118.5,118.5 0,65.445 -53.0542,118.5 -118.5,118.5 -65.4458,0 -118.5,-53.055 -118.5,-118.5"
         style="fill:none;stroke:#ff0000;stroke-width:0.472441;stroke-linecap:round;stroke-linejoin:round;stroke-miterlimit:10;stroke-dasharray:none;stroke-opacity:1"
         id="path262" /><path
         d="m 4140,13021 v -189 H 1980.7421 1778 v 189 h 2362"
         style="fill:none;stroke:#ff0000;stroke-width:0.472441;stroke-linecap:round;stroke-linejoin:round;stroke-miterlimit:10;stroke-dasharray:none;stroke-opacity:1"
         id="path264"
         sodipodi:nodetypes="cccccc" /><path
         d="m 4140,10756 v -189 H 2250 v 189 h 1890"
         style="fill:none;stroke:#ff0000;stroke-width:0.472441;stroke-linecap:round;stroke-linejoin:round;stroke-miterlimit:10;stroke-dasharray:none;stroke-opacity:1"
         id="path266" /><path
         d="m 986,10485 h 3388 v 2618 H 986 v -2618"
         style="fill:none;stroke:#0000ff;stroke-width:0.472441;stroke-linecap:round;stroke-linejoin:round;stroke-miterlimit:10;stroke-dasharray:none;stroke-opacity:1"
         id="path268" /></g></g></svg>
