0
SECTION
2
HEADER
9
$INSUNITS
70
4
9
$ACADVER
1
AC1014
9
$HANDSEED
5
FFFF
0
ENDSEC
0
SECTION
2
TABLES
0
TABLE
2
VPORT
5
8
100
AcDbSymbolTable
0
ENDTAB
0
TABLE
2
LTYPE
5
5
100
AcDbSymbolTable
0
LTYPE
5
14
100
AcDbSymbolTableRecord
100
AcDbLinetypeTableRecord
2
BYBLOCK
70
0
0
LTYPE
5
15
100
AcDbSymbolTableRecord
100
AcDbLinetypeTableRecord
2
BYLAYER
70
0
0
ENDTAB
0
TABLE
2
LAYER
5
2
100
AcDbSymbolTable
70
2
0
LAYER
5
50
100
AcDbSymbolTableRecord
100
AcDbLayerTableRecord
2
0
70
0
6
CONTINUOUS
0
ENDTAB
0
TABLE
2
STYLE
5
3
100
AcDbSymbolTable
70
1
0
STYLE
5
11
100
AcDbSymbolTableRecord
100
AcDbTextStyleTableRecord
2
STANDARD
70
0
0
ENDTAB
0
TABLE
2
VIEW
5
6
100
AcDbSymbolTable
70
0
0
ENDTAB
0
TABLE
2
UCS
5
7
100
AcDbSymbolTable
70
0
0
ENDTAB
0
TABLE
2
APPID
5
9
100
AcDbSymbolTable
70
2
0
APPID
5
12
100
AcDbSymbolTableRecord
100
AcDbRegAppTableRecord
2
ACAD
70
0
0
ENDTAB
0
TABLE
2
DIMSTYLE
5
A
100
AcDbSymbolTable
70
1
0
ENDTAB
0
TABLE
2
BLOCK_RECORD
5
1
100
AcDbSymbolTable
70
1
0
BLOCK_RECORD
5
1F
100
AcDbSymbolTableRecord
100
AcDbBlockTableRecord
2
*MODEL_SPACE
0
BLOCK_RECORD
5
1B
100
AcDbSymbolTableRecord
100
AcDbBlockTableRecord
2
*PAPER_SPACE
0
ENDTAB
0
ENDSEC
0
SECTION
2
BLOCKS
0
BLOCK
5
20
100
AcDbEntity
100
AcDbBlockBegin
2
*MODEL_SPACE
0
ENDBLK
5
21
100
AcDbEntity
100
AcDbBlockEnd
0
BLOCK
5
1C
100
AcDbEntity
100
AcDbBlockBegin
2
*PAPER_SPACE
0
ENDBLK
5
1D
100
AcDbEntity
100
AcDbBlockEnd
0
ENDSEC
0
SECTION
2
ENTITIES
0
LWPOLYLINE
5
100
100
AcDbEntity
8
0
100
AcDbPolyline
90
4
70
1
43
0.0
10
-9.4999999999997762
20
40.000000000002558
10
-6.4999999999997744
20
40.000000000002686
10
-6.4999999999999218
20
25.000000000002011
10
-9.4999999999999218
20
25.000000000002554
0
LWPOLYLINE
5
101
100
AcDbEntity
8
0
100
AcDbPolyline
90
4
70
1
43
0.0
10
184.00000000000378
20
-40.000000000001847
10
181.00000000000378
20
-40.000000000001208
10
181.00000000000369
20
-25.000000000001226
10
184.00000000000372
20
-25.000000000001847
0
LWPOLYLINE
5
102
100
AcDbEntity
8
0
100
AcDbPolyline
90
4
70
1
43
0.0
10
-85.500000000000313
20
14.199999999997974
10
-85.500000000000625
20
44.199999999997992
10
-82.500000000000625
20
44.199999999998028
10
-82.500000000000298
20
14.199999999998006
0
LWPOLYLINE
5
103
100
AcDbEntity
8
0
100
AcDbPolyline
90
4
70
1
43
0.0
10
85.499999999999815
20
-14.199999999996692
10
85.499999999999844
20
-44.199999999996692
10
82.499999999999844
20
-44.199999999996692
10
82.499999999999801
20
-14.199999999996695
0
LWPOLYLINE
5
104
100
AcDbEntity
8
0
100
AcDbPolyline
90
4
70
1
43
0.0
10
-181.00000000000406
20
-25.000000000001435
10
-181.00000000000406
20
-40.000000000001428
10
-184.00000000000406
20
-40.000000000002061
10
-184.00000000000406
20
-25.000000000002068
0
LWPOLYLINE
5
105
100
AcDbEntity
8
0
100
AcDbPolyline
90
4
70
1
43
0.0
10
82.499999999999375
20
44.199999999999697
10
85.499999999999389
20
44.199999999999733
10
85.499999999999673
20
14.199999999999729
10
82.499999999999659
20
14.199999999999701
0
LWPOLYLINE
5
106
100
AcDbEntity
8
0
100
AcDbPolyline
90
4
70
1
43
0.0
10
6.4999999999995373
20
25.000000000002021
10
6.4999999999993729
20
40.000000000002686
10
9.4999999999993729
20
40.000000000002572
10
9.4999999999995381
20
25.000000000002562
0
LWPOLYLINE
5
107
100
AcDbEntity
8
0
100
AcDbPolyline
90
4
70
1
43
0.0
10
-6.500000000000135
20
-25.00000000000226
10
-6.5000000000001172
20
-40.000000000002913
10
-9.5000000000001172
20
-40.000000000002927
10
-9.500000000000135
20
-25.000000000002927
0
CIRCLE
5
108
100
AcDbEntity
8
0
100
AcDbCircle
10
-114.30000000000035
20
8.4999999999999947
30
0
40
1.5000000000000036
210
0
220
0
230
1
0
LWPOLYLINE
5
109
100
AcDbEntity
8
0
100
AcDbPolyline
90
4
70
1
43
0.0
10
-6.5000000000001545
20
-7.500000000003066
10
-9.5000000000001545
20
-7.5000000000025846
10
-9.5000000000000924
20
7.500000000002216
10
-6.5000000000000906
20
7.5000000000028173
0
LWPOLYLINE
5
110
100
AcDbEntity
8
0
100
AcDbPolyline
90
4
70
1
43
0.0
10
184.00000000000372
20
-7.5000000000018385
10
181.00000000000369
20
-7.4999999999968292
10
181.00000000000378
20
7.4999999999973976
10
184.00000000000378
20
7.5000000000023981
0
LWPOLYLINE
5
111
100
AcDbEntity
8
0
100
AcDbPolyline
90
4
70
1
43
0.0
10
-184.00000000000435
20
25.000000000002185
10
-184.00000000000449
20
40.000000000002167
10
-181.00000000000449
20
40.00000000000157
10
-181.00000000000435
20
25.000000000001577
0
LWPOLYLINE
5
112
100
AcDbEntity
8
0
100
AcDbPolyline
90
4
70
1
43
0.0
10
-82.500000000000156
20
-14.199999999996793
10
-82.500000000000156
20
-44.199999999996805
10
-85.500000000000171
20
-44.199999999996805
10
-85.500000000000171
20
-14.199999999996793
0
LWPOLYLINE
5
113
100
AcDbEntity
8
0
100
AcDbPolyline
90
4
70
1
43
0.0
10
-181.00000000000415
20
7.4999999999944542
10
-181.00000000000406
20
-7.4999999999943121
10
-184.00000000000406
20
-7.5000000000020641
10
-184.00000000000415
20
7.5000000000021725
0
LWPOLYLINE
5
114
100
AcDbEntity
8
0
100
AcDbPolyline
90
4
70
1
43
0.0
10
184.00000000000401
20
25.000000000002402
10
181.00000000000398
20
25.000000000001791
10
181.00000000000406
20
40.000000000001783
10
184.00000000000406
20
40.00000000000238
0
LWPOLYLINE
5
115
100
AcDbEntity
8
0
100
AcDbPolyline
90
4
70
1
43
0.0
10
6.4999999999997264
20
7.5000000000028244
10
9.4999999999997282
20
7.5000000000022284
10
9.4999999999998082
20
-7.5000000000025704
10
6.4999999999998082
20
-7.5000000000030598
0
LWPOLYLINE
5
116
100
AcDbEntity
8
0
100
AcDbPolyline
90
4
70
1
43
0.0
10
9.4999999999998082
20
-25.00000000000291
10
9.4999999999998082
20
-40.000000000002913
10
6.4999999999998082
20
-40.000000000002913
10
6.4999999999998082
20
-25.000000000002252
0
CIRCLE
5
117
100
AcDbEntity
8
0
100
AcDbCircle
10
-114.30000000000035
20
-51.5
30
0
40
1.5000000000000036
210
0
220
0
230
1
0
CIRCLE
5
118
100
AcDbEntity
8
0
100
AcDbCircle
10
-170.70870912959043
20
56.760000000000005
30
0
40
1.8617095996719257
210
0
220
-0
230
1
0
CIRCLE
5
119
100
AcDbEntity
8
0
100
AcDbCircle
10
-119.93000000000032
20
41.449209715493794
30
0
40
1.8621143784806546
210
0
220
-0
230
1
0
CIRCLE
5
120
100
AcDbEntity
8
0
100
AcDbCircle
10
-172.00000000000034
20
8.4999999999999947
30
0
40
1.8617095995753272
210
0
220
-0
230
1
0
CIRCLE
5
121
100
AcDbEntity
8
0
100
AcDbCircle
10
-119.93000000000035
20
13.509209715493789
30
0
40
1.8621143784806193
210
0
220
-0
230
1
0
CIRCLE
5
122
100
AcDbEntity
8
0
100
AcDbCircle
10
2.9624091188661557e-15
20
-51.499999999999986
30
0
40
1.5000000000000002
210
0
220
0
230
1
0
CIRCLE
5
123
100
AcDbEntity
8
0
100
AcDbCircle
10
156.99999999999957
20
-47.5
30
0
40
1.6000000000000014
210
0
220
0
230
1
0
CIRCLE
5
124
100
AcDbEntity
8
0
100
AcDbCircle
10
-172.00000000000034
20
-51.5
30
0
40
1.4999999999999858
210
0
220
0
230
1
0
CIRCLE
5
125
100
AcDbEntity
8
0
100
AcDbCircle
10
0
20
51.499999999999986
30
0
40
1.5000000000000002
210
0
220
0
230
1
0
CIRCLE
5
126
100
AcDbEntity
8
0
100
AcDbCircle
10
-187.00000000000028
20
-50.000000000000156
30
0
40
1.4999999999999858
210
0
220
0
230
1
0
CIRCLE
5
127
100
AcDbEntity
8
0
100
AcDbCircle
10
187.0000000000004
20
-50.000000000000178
30
0
40
1.4999999999999858
210
0
220
0
230
1
0
CIRCLE
5
128
100
AcDbEntity
8
0
100
AcDbCircle
10
156.99999999999957
20
47.5
30
0
40
1.6000000000000014
210
0
220
0
230
1
0
CIRCLE
5
129
100
AcDbEntity
8
0
100
AcDbCircle
10
-172.00000000000034
20
51.499999999999986
30
0
40
1.4999999999999858
210
0
220
0
230
1
0
CIRCLE
5
130
100
AcDbEntity
8
0
100
AcDbCircle
10
99.299999999999571
20
47.5
30
0
40
1.6000000000000014
210
0
220
0
230
1
0
CIRCLE
5
131
100
AcDbEntity
8
0
100
AcDbCircle
10
172.00000000000034
20
-51.499999999999972
30
0
40
1.4999999999999858
210
0
220
0
230
1
0
CIRCLE
5
132
100
AcDbEntity
8
0
100
AcDbCircle
10
186.99999999999892
20
50.000000000000206
30
0
40
1.4999999999999858
210
0
220
0
230
1
0
CIRCLE
5
133
100
AcDbEntity
8
0
100
AcDbCircle
10
-187.00000000000034
20
50.000000000000178
30
0
40
1.4999999999999858
210
0
220
0
230
1
0
CIRCLE
5
134
100
AcDbEntity
8
0
100
AcDbCircle
10
99.299999999999571
20
-47.5
30
0
40
1.6000000000000014
210
0
220
0
230
1
0
CIRCLE
5
135
100
AcDbEntity
8
0
100
AcDbCircle
10
172.00000000000034
20
51.499999999999986
30
0
40
1.4999999999999858
210
0
220
0
230
1
0
LWPOLYLINE
5
136
100
AcDbEntity
8
0
100
AcDbPolyline
90
28
70
1
43
0.0
10
197.00000000000318
20
-40.000000000002075
10
200.00000000000324
20
-39.999999999999986
10
200.00000000006023
20
-24.999999999999993
10
197.00000000000085
20
-25.00000000000195
10
197.00000000000324
20
-7.5000000000020695
10
200.00000000000335
20
-7.4999999999999911
10
200.00000000006014
20
7.5000000000000089
10
197.00000000000085
20
7.499999999998046
10
197.00000000000324
20
24.999999999997932
10
200.00000000000335
20
25.000000000000018
10
200.00000000006031
20
40
10
197.00000000000088
20
39.999999999998046
10
196.99999999999974
20
60
10
-197.00000000000017
20
60
10
-197.00000000000085
20
39.999999999998046
10
-200.00000000006037
20
40
10
-200.00000000000338
20
25.000000000000007
10
-197.00000000000318
20
24.999999999997932
10
-197.00000000000085
20
7.4999999999980549
10
-200.00000000006037
20
7.5000000000000089
10
-200.00000000000338
20
-7.4999999999999911
10
-197.00000000000318
20
-7.5000000000020695
10
-197.00000000000085
20
-25.000000000001947
10
-200.00000000006037
20
-24.999999999999993
10
-200.00000000000338
20
-39.999999999999993
10
-197.00000000000318
20
-40.000000000002068
10
-197.00000000000006
20
-60.000000000000185
10
196.99999999999977
20
-60.000000000000156
0
ENDSEC
0
SECTION
2
OBJECTS
0
DICTIONARY
5
C
100
AcDbDictionary
3
ACAD_GROUP
350
D
3
ACAD_MLINESTYLE
350
17
0
DICTIONARY
5
D
100
AcDbDictionary
0
DICTIONARY
5
1A
330
C
100
AcDbDictionary
0
DICTIONARY
5
17
100
AcDbDictionary
0
ENDSEC
0
EOF
