0
SECTION
2
HEADER
9
$INSUNITS
70
4
9
$ACADVER
1
AC1014
9
$HANDSEED
5
FFFF
0
ENDSEC
0
SECTION
2
TABLES
0
TABLE
2
VPORT
5
8
100
AcDbSymbolTable
0
ENDTAB
0
TABLE
2
LTYPE
5
5
100
AcDbSymbolTable
0
LTYPE
5
14
100
AcDbSymbolTableRecord
100
AcDbLinetypeTableRecord
2
BYBLOCK
70
0
0
LTYPE
5
15
100
AcDbSymbolTableRecord
100
AcDbLinetypeTableRecord
2
BYLAYER
70
0
0
ENDTAB
0
TABLE
2
LAYER
5
2
100
AcDbSymbolTable
70
2
0
LAYER
5
50
100
AcDbSymbolTableRecord
100
AcDbLayerTableRecord
2
0
70
0
6
CONTINUOUS
0
ENDTAB
0
TABLE
2
STYLE
5
3
100
AcDbSymbolTable
70
1
0
STYLE
5
11
100
AcDbSymbolTableRecord
100
AcDbTextStyleTableRecord
2
STANDARD
70
0
0
ENDTAB
0
TABLE
2
VIEW
5
6
100
AcDbSymbolTable
70
0
0
ENDTAB
0
TABLE
2
UCS
5
7
100
AcDbSymbolTable
70
0
0
ENDTAB
0
TABLE
2
APPID
5
9
100
AcDbSymbolTable
70
2
0
APPID
5
12
100
AcDbSymbolTableRecord
100
AcDbRegAppTableRecord
2
ACAD
70
0
0
ENDTAB
0
TABLE
2
DIMSTYLE
5
A
100
AcDbSymbolTable
70
1
0
ENDTAB
0
TABLE
2
BLOCK_RECORD
5
1
100
AcDbSymbolTable
70
1
0
BLOCK_RECORD
5
1F
100
AcDbSymbolTableRecord
100
AcDbBlockTableRecord
2
*MODEL_SPACE
0
BLOCK_RECORD
5
1B
100
AcDbSymbolTableRecord
100
AcDbBlockTableRecord
2
*PAPER_SPACE
0
ENDTAB
0
ENDSEC
0
SECTION
2
BLOCKS
0
BLOCK
5
20
100
AcDbEntity
100
AcDbBlockBegin
2
*MODEL_SPACE
0
ENDBLK
5
21
100
AcDbEntity
100
AcDbBlockEnd
0
BLOCK
5
1C
100
AcDbEntity
100
AcDbBlockBegin
2
*PAPER_SPACE
0
ENDBLK
5
1D
100
AcDbEntity
100
AcDbBlockEnd
0
ENDSEC
0
SECTION
2
ENTITIES
0
CIRCLE
5
100
100
AcDbEntity
8
0
100
AcDbCircle
10
84.473999999953136
20
15.025999999999989
30
0
40
1.5000000000000036
210
0
220
0
230
1
0
CIRCLE
5
101
100
AcDbEntity
8
0
100
AcDbCircle
10
-84.473999999953136
20
-15.026000000000018
30
0
40
1.5000000000000036
210
0
220
0
230
1
0
CIRCLE
5
102
100
AcDbEntity
8
0
100
AcDbCircle
10
-84.473999999953136
20
15.025999999999989
30
0
40
1.5000000000000036
210
0
220
0
230
1
0
CIRCLE
5
103
100
AcDbEntity
8
0
100
AcDbCircle
10
114.52599999995314
20
15.025999999999986
30
0
40
1.5000000000000036
210
0
220
0
230
1
0
CIRCLE
5
104
100
AcDbEntity
8
0
100
AcDbCircle
10
84.473999999953136
20
-15.026000000000018
30
0
40
1.5000000000000036
210
0
220
0
230
1
0
CIRCLE
5
105
100
AcDbEntity
8
0
100
AcDbCircle
10
-114.52599999995314
20
-15.026000000000014
30
0
40
1.5000000000000036
210
0
220
0
230
1
0
CIRCLE
5
106
100
AcDbEntity
8
0
100
AcDbCircle
10
-114.52599999995314
20
15.025999999999986
30
0
40
1.5000000000000036
210
0
220
0
230
1
0
CIRCLE
5
107
100
AcDbEntity
8
0
100
AcDbCircle
10
114.52599999995314
20
-15.026000000000014
30
0
40
1.5000000000000036
210
0
220
0
230
1
0
CIRCLE
5
108
100
AcDbEntity
8
0
100
AcDbCircle
10
-61.000000000000014
20
-15.500000000000043
30
0
40
1.5000000000000036
210
0
220
0
230
1
0
CIRCLE
5
109
100
AcDbEntity
8
0
100
AcDbCircle
10
30
20
-15.500000000000025
30
0
40
1.4999999999999991
210
0
220
0
230
1
0
CIRCLE
5
110
100
AcDbEntity
8
0
100
AcDbCircle
10
61.000000000000014
20
-15.500000000000034
30
0
40
1.5000000000000036
210
0
220
0
230
1
0
CIRCLE
5
111
100
AcDbEntity
8
0
100
AcDbCircle
10
-30
20
-15.500000000000028
30
0
40
1.4999999999999991
210
0
220
0
230
1
0
CIRCLE
5
112
100
AcDbEntity
8
0
100
AcDbCircle
10
45.500000000000007
20
-3.9412917374193057e-14
30
0
40
10.999999999999996
210
0
220
0
230
1
0
CIRCLE
5
113
100
AcDbEntity
8
0
100
AcDbCircle
10
-61.000000000000014
20
15.499999999999954
30
0
40
1.5000000000000036
210
0
220
0
230
1
0
CIRCLE
5
114
100
AcDbEntity
8
0
100
AcDbCircle
10
30
20
15.499999999999975
30
0
40
1.4999999999999991
210
0
220
0
230
1
0
CIRCLE
5
115
100
AcDbEntity
8
0
100
AcDbCircle
10
61.000000000000014
20
15.499999999999963
30
0
40
1.5000000000000036
210
0
220
0
230
1
0
CIRCLE
5
116
100
AcDbEntity
8
0
100
AcDbCircle
10
-30
20
15.499999999999972
30
0
40
1.4999999999999991
210
0
220
0
230
1
0
CIRCLE
5
117
100
AcDbEntity
8
0
100
AcDbCircle
10
-45.500000000000007
20
-4.3635129179960766e-14
30
0
40
11
210
0
220
0
230
1
0
LWPOLYLINE
5
118
100
AcDbEntity
8
0
100
AcDbPolyline
90
40
70
1
43
0.0
10
112.99999999998474
20
-23.499999999996206
42
0.41421356237365387
10
122.99999999998329
20
-13.499999999975715
10
122.99999999992798
20
13.500000000072578
42
0.41421356237237716
10
112.99999999993203
20
23.500000000052083
10
85.87952858913448
20
23.500000000063057
42
-0.17774409631138033
10
60.000000000013671
20
32.999999999996803
10
40.000000000003084
20
33.000000000016655
10
40.000000000003084
20
30.000000000018471
10
25.000000000003084
20
30.00000000000275
10
25.000000000003084
20
33.000000000002643
10
7.500000000003082
20
33.000000000000405
10
7.500000000003082
20
30.000000000000398
10
-7.500000000003082
20
30.000000000000398
10
-7.500000000003082
20
33.000000000000405
10
-25.000000000003084
20
33.000000000002643
10
-25.000000000003084
20
30.00000000000275
10
-40.00000000000307
20
30.000000000018471
10
-40.00000000000307
20
33.000000000016655
10
-60.000000000000426
20
32.999999999994444
42
-0.17774409631135707
10
-85.879528589118493
20
23.500000000063046
10
-112.99999999993204
20
23.50000000005209
42
0.41421356237237728
10
-122.99999999992799
20
13.500000000072577
10
-122.99999999998332
20
-13.499999999975349
42
0.41421356237366408
10
-112.99999999998435
20
-23.499999999995843
10
-85.879528589223213
20
-23.499999999998739
42
-0.17774409631218546
10
-60.000000000004349
20
-33.000000000005571
10
-40.00000000000307
20
-33.000000000016655
10
-40.00000000000307
20
-30.000000000018471
10
-25.000000000003084
20
-30.00000000000275
10
-25.000000000003084
20
-33.00000000000265
10
-7.500000000003082
20
-33.000000000000405
10
-7.500000000003082
20
-30.000000000000405
10
7.500000000003082
20
-30.000000000000405
10
7.500000000003082
20
-33.000000000000405
10
25.000000000003084
20
-33.00000000000265
10
25.000000000003084
20
-30.00000000000275
10
40.000000000003084
20
-30.000000000018471
10
40.000000000003084
20
-33.000000000016655
10
59.999999999998721
20
-32.999999999995701
42
-0.17774409631206417
10
85.879528589202891
20
-23.500000000000092
0
CIRCLE
5
119
100
AcDbEntity
8
0
100
AcDbCircle
10
50.000000000013003
20
23.000000000005553
30
0
40
1.5000000000000036
210
0
220
-0
230
1
0
CIRCLE
5
120
100
AcDbEntity
8
0
100
AcDbCircle
10
50.000000000012996
20
-23.000000000005553
30
0
40
1.5000000000000036
210
0
220
-0
230
1
0
CIRCLE
5
121
100
AcDbEntity
8
0
100
AcDbCircle
10
-50.000000000013003
20
23.000000000005549
30
0
40
1.5000000000000036
210
0
220
-0
230
1
0
CIRCLE
5
122
100
AcDbEntity
8
0
100
AcDbCircle
10
-50.000000000012996
20
-23.000000000005549
30
0
40
1.5000000000000036
210
0
220
-0
230
1
0
CIRCLE
5
123
100
AcDbEntity
8
0
100
AcDbCircle
10
-99.499999999953147
20
0
30
0
40
15
210
0
220
-0
230
1
0
CIRCLE
5
124
100
AcDbEntity
8
0
100
AcDbCircle
10
99.499999999953147
20
0
30
0
40
15
210
0
220
-0
230
1
0
ENDSEC
0
SECTION
2
OBJECTS
0
DICTIONARY
5
C
100
AcDbDictionary
3
ACAD_GROUP
350
D
3
ACAD_MLINESTYLE
350
17
0
DICTIONARY
5
D
100
AcDbDictionary
0
DICTIONARY
5
1A
330
C
100
AcDbDictionary
0
DICTIONARY
5
17
100
AcDbDictionary
0
ENDSEC
0
EOF
