0
SECTION
2
HEADER
9
$INSUNITS
70
4
9
$ACADVER
1
AC1014
9
$HANDSEED
5
FFFF
0
ENDSEC
0
SECTION
2
TABLES
0
TABLE
2
VPORT
5
8
100
AcDbSymbolTable
0
ENDTAB
0
TABLE
2
LTYPE
5
5
100
AcDbSymbolTable
0
LTYPE
5
14
100
AcDbSymbolTableRecord
100
AcDbLinetypeTableRecord
2
BYBLOCK
70
0
0
LTYPE
5
15
100
AcDbSymbolTableRecord
100
AcDbLinetypeTableRecord
2
BYLAYER
70
0
0
ENDTAB
0
TABLE
2
LAYER
5
2
100
AcDbSymbolTable
70
2
0
LAYER
5
50
100
AcDbSymbolTableRecord
100
AcDbLayerTableRecord
2
0
70
0
6
CONTINUOUS
0
ENDTAB
0
TABLE
2
STYLE
5
3
100
AcDbSymbolTable
70
1
0
STYLE
5
11
100
AcDbSymbolTableRecord
100
AcDbTextStyleTableRecord
2
STANDARD
70
0
0
ENDTAB
0
TABLE
2
VIEW
5
6
100
AcDbSymbolTable
70
0
0
ENDTAB
0
TABLE
2
UCS
5
7
100
AcDbSymbolTable
70
0
0
ENDTAB
0
TABLE
2
APPID
5
9
100
AcDbSymbolTable
70
2
0
APPID
5
12
100
AcDbSymbolTableRecord
100
AcDbRegAppTableRecord
2
ACAD
70
0
0
ENDTAB
0
TABLE
2
DIMSTYLE
5
A
100
AcDbSymbolTable
70
1
0
ENDTAB
0
TABLE
2
BLOCK_RECORD
5
1
100
AcDbSymbolTable
70
1
0
BLOCK_RECORD
5
1F
100
AcDbSymbolTableRecord
100
AcDbBlockTableRecord
2
*MODEL_SPACE
0
BLOCK_RECORD
5
1B
100
AcDbSymbolTableRecord
100
AcDbBlockTableRecord
2
*PAPER_SPACE
0
ENDTAB
0
ENDSEC
0
SECTION
2
BLOCKS
0
BLOCK
5
20
100
AcDbEntity
100
AcDbBlockBegin
2
*MODEL_SPACE
0
ENDBLK
5
21
100
AcDbEntity
100
AcDbBlockEnd
0
BLOCK
5
1C
100
AcDbEntity
100
AcDbBlockBegin
2
*PAPER_SPACE
0
ENDBLK
5
1D
100
AcDbEntity
100
AcDbBlockEnd
0
ENDSEC
0
SECTION
2
ENTITIES
0
CIRCLE
5
100
100
AcDbEntity
8
0
100
AcDbCircle
10
-84.474000000001354
20
15.026000000000002
30
0
40
1.5000000000000036
210
0
220
0
230
1
0
CIRCLE
5
101
100
AcDbEntity
8
0
100
AcDbCircle
10
84.474000000001354
20
15.026000000000002
30
0
40
1.5000000000000036
210
0
220
0
230
1
0
CIRCLE
5
102
100
AcDbEntity
8
0
100
AcDbCircle
10
114.52600000000133
20
15.026000000000002
30
0
40
1.5000000000000036
210
0
220
0
230
1
0
CIRCLE
5
103
100
AcDbEntity
8
0
100
AcDbCircle
10
-114.52600000000133
20
15.026000000000002
30
0
40
1.5000000000000036
210
0
220
0
230
1
0
CIRCLE
5
104
100
AcDbEntity
8
0
100
AcDbCircle
10
-84.474000000001354
20
-15.026000000000002
30
0
40
1.5000000000000036
210
0
220
0
230
1
0
CIRCLE
5
105
100
AcDbEntity
8
0
100
AcDbCircle
10
84.474000000001354
20
-15.026000000000002
30
0
40
1.5000000000000036
210
0
220
0
230
1
0
CIRCLE
5
106
100
AcDbEntity
8
0
100
AcDbCircle
10
114.52600000000135
20
-15.026000000000002
30
0
40
1.5000000000000036
210
0
220
0
230
1
0
CIRCLE
5
107
100
AcDbEntity
8
0
100
AcDbCircle
10
-114.52600000000135
20
-15.026000000000002
30
0
40
1.5000000000000036
210
0
220
0
230
1
0
LWPOLYLINE
5
108
100
AcDbEntity
8
0
100
AcDbPolyline
90
40
70
1
43
0.0
10
-123.00000000000384
20
-13.499999999990083
42
0.41421356237309459
10
-113.00000000000384
20
-23.499999999990102
10
-85.879528589225643
20
-23.499999999990081
42
-0.17774409631224261
10
-59.999999999999019
20
-32.999999999999886
10
-40.000000000000007
20
-33.000000000001215
10
-40.000000000000007
20
-30.00000000000189
10
-25
20
-30.000000000001972
10
-25
20
-33.000000000001975
10
-7.5
20
-33.000000000004938
10
-7.5
20
-30.000000000004718
10
7.5
20
-30.000000000004718
10
7.5
20
-33.000000000004725
10
25
20
-33.000000000001975
10
25
20
-30.000000000001972
10
40.000000000000014
20
-30.000000000002114
10
40.000000000000014
20
-33.000000000001215
10
60.000000000000981
20
-32.999999999986287
42
-0.17774409631210736
10
85.879528589211617
20
-23.499999999990067
10
113.00000000000384
20
-23.499999999990081
42
0.41421356237309515
10
123.00000000000384
20
-13.499999999990081
10
123.00000000000384
20
13.500000000009919
42
0.41421356237309509
10
113.00000000000384
20
23.500000000009923
10
85.879528589220442
20
23.500000000009926
42
-0.17774409631214905
10
60.000000000004889
20
33.000000000010338
10
40.000000000000014
20
33.000000000001428
10
40.000000000000014
20
30.000000000002103
10
25
20
30.000000000001972
10
25
20
33.000000000001975
10
7.5
20
33.000000000004718
10
7.5
20
30.000000000004718
10
-7.5
20
30.000000000004718
10
-7.5
20
33.000000000004931
10
-25
20
33.000000000001975
10
-25.000000000000004
20
30.000000000001972
10
-40.000000000000007
20
30.000000000002103
10
-40.000000000000007
20
33.000000000001428
10
-60.000000000003823
20
32.999999999996035
42
-0.17774409631200658
10
-85.879528589202536
20
23.500000000009926
10
-113.00000000000384
20
23.500000000009919
42
0.4142135623730952
10
-123.00000000000384
20
13.500000000009916
0
CIRCLE
5
109
100
AcDbEntity
8
0
100
AcDbCircle
10
-50.000000000015028
20
19.999999999986297
30
0
40
1.5000000000000036
210
0
220
-0
230
1
0
CIRCLE
5
110
100
AcDbEntity
8
0
100
AcDbCircle
10
-99.500000000001336
20
1.9934565821614617e-31
30
0
40
15
210
0
220
-0
230
1
0
LWPOLYLINE
5
111
100
AcDbEntity
8
0
100
AcDbPolyline
90
4
70
1
43
0.0
10
39.800000000000004
20
10.000000000000862
42
0.99999999999999989
10
39.800000000000004
20
25.00000000000086
10
-39.800000000000004
20
25.00000000000086
42
0.99999999999999989
10
-39.800000000000004
20
10.000000000000862
0
CIRCLE
5
112
100
AcDbEntity
8
0
100
AcDbCircle
10
50.000000000015028
20
-19.999999999986297
30
0
40
1.5000000000000036
210
0
220
-0
230
1
0
CIRCLE
5
113
100
AcDbEntity
8
0
100
AcDbCircle
10
99.500000000001336
20
8.5105388639242329e-32
30
0
40
15
210
0
220
-0
230
1
0
CIRCLE
5
114
100
AcDbEntity
8
0
100
AcDbCircle
10
50.000000000015028
20
19.999999999986297
30
0
40
1.5000000000000036
210
0
220
-0
230
1
0
CIRCLE
5
115
100
AcDbEntity
8
0
100
AcDbCircle
10
-50.000000000015028
20
-19.999999999986297
30
0
40
1.5000000000000036
210
0
220
-0
230
1
0
ENDSEC
0
SECTION
2
OBJECTS
0
DICTIONARY
5
C
100
AcDbDictionary
3
ACAD_GROUP
350
D
3
ACAD_MLINESTYLE
350
17
0
DICTIONARY
5
D
100
AcDbDictionary
0
DICTIONARY
5
1A
330
C
100
AcDbDictionary
0
DICTIONARY
5
17
100
AcDbDictionary
0
ENDSEC
0
EOF
