0
SECTION
2
HEADER
9
$INSUNITS
70
4
9
$ACADVER
1
AC1014
9
$HANDSEED
5
FFFF
0
ENDSEC
0
SECTION
2
TABLES
0
TABLE
2
VPORT
5
8
100
AcDbSymbolTable
0
ENDTAB
0
TABLE
2
LTYPE
5
5
100
AcDbSymbolTable
0
LTYPE
5
14
100
AcDbSymbolTableRecord
100
AcDbLinetypeTableRecord
2
BYBLOCK
70
0
0
LTYPE
5
15
100
AcDbSymbolTableRecord
100
AcDbLinetypeTableRecord
2
BYLAYER
70
0
0
ENDTAB
0
TABLE
2
LAYER
5
2
100
AcDbSymbolTable
70
2
0
LAYER
5
50
100
AcDbSymbolTableRecord
100
AcDbLayerTableRecord
2
0
70
0
6
CONTINUOUS
0
ENDTAB
0
TABLE
2
STYLE
5
3
100
AcDbSymbolTable
70
1
0
STYLE
5
11
100
AcDbSymbolTableRecord
100
AcDbTextStyleTableRecord
2
STANDARD
70
0
0
ENDTAB
0
TABLE
2
VIEW
5
6
100
AcDbSymbolTable
70
0
0
ENDTAB
0
TABLE
2
UCS
5
7
100
AcDbSymbolTable
70
0
0
ENDTAB
0
TABLE
2
APPID
5
9
100
AcDbSymbolTable
70
2
0
APPID
5
12
100
AcDbSymbolTableRecord
100
AcDbRegAppTableRecord
2
ACAD
70
0
0
ENDTAB
0
TABLE
2
DIMSTYLE
5
A
100
AcDbSymbolTable
70
1
0
ENDTAB
0
TABLE
2
BLOCK_RECORD
5
1
100
AcDbSymbolTable
70
1
0
BLOCK_RECORD
5
1F
100
AcDbSymbolTableRecord
100
AcDbBlockTableRecord
2
*MODEL_SPACE
0
BLOCK_RECORD
5
1B
100
AcDbSymbolTableRecord
100
AcDbBlockTableRecord
2
*PAPER_SPACE
0
ENDTAB
0
ENDSEC
0
SECTION
2
BLOCKS
0
BLOCK
5
20
100
AcDbEntity
100
AcDbBlockBegin
2
*MODEL_SPACE
0
ENDBLK
5
21
100
AcDbEntity
100
AcDbBlockEnd
0
BLOCK
5
1C
100
AcDbEntity
100
AcDbBlockBegin
2
*PAPER_SPACE
0
ENDBLK
5
1D
100
AcDbEntity
100
AcDbBlockEnd
0
ENDSEC
0
SECTION
2
ENTITIES
0
CIRCLE
5
100
100
AcDbEntity
8
0
100
AcDbCircle
10
-114.52600000000001
20
-15.025999999999868
30
0
40
1.5000000000000036
210
0
220
0
230
1
0
CIRCLE
5
101
100
AcDbEntity
8
0
100
AcDbCircle
10
84.474000000000004
20
-15.025999999999996
30
0
40
1.5000000000000036
210
0
220
0
230
1
0
CIRCLE
5
102
100
AcDbEntity
8
0
100
AcDbCircle
10
84.474000000000004
20
15.026000000000007
30
0
40
1.5000000000000036
210
0
220
0
230
1
0
CIRCLE
5
103
100
AcDbEntity
8
0
100
AcDbCircle
10
-114.52600000000001
20
15.026000000000135
30
0
40
1.5000000000000036
210
0
220
0
230
1
0
CIRCLE
5
104
100
AcDbEntity
8
0
100
AcDbCircle
10
-84.474000000000004
20
-15.025999999999902
30
0
40
1.5000000000000036
210
0
220
0
230
1
0
CIRCLE
5
105
100
AcDbEntity
8
0
100
AcDbCircle
10
114.52600000000001
20
-15.025999999999996
30
0
40
1.5000000000000036
210
0
220
0
230
1
0
CIRCLE
5
106
100
AcDbEntity
8
0
100
AcDbCircle
10
114.52600000000001
20
15.026000000000007
30
0
40
1.5000000000000036
210
0
220
0
230
1
0
CIRCLE
5
107
100
AcDbEntity
8
0
100
AcDbCircle
10
-84.474000000000004
20
15.026000000000101
30
0
40
1.5000000000000036
210
0
220
0
230
1
0
LWPOLYLINE
5
108
100
AcDbEntity
8
0
100
AcDbPolyline
90
40
70
1
43
0.0
10
113
20
-23.500000000000007
42
0.4142135623730952
10
123
20
-13.500000000000004
10
123
20
13.499999999999996
42
0.41421356237309542
10
113
20
23.500000000000011
10
81.857492994394391
20
23.500000000000007
42
-0.14554084732128714
10
60
20
30.000000000000007
10
40
20
30.000000000000007
10
40
20
33.000000000000007
10
25
20
33
10
25
20
30
10
7.4999999999999822
20
30
10
7.4999999999999822
20
33
10
-7.5000000000000089
20
33
10
-7.5000000000000089
20
30
10
-25
20
29.999999999999993
10
-25
20
32.999999999999986
10
-40
20
32.999999999999986
10
-40
20
29.999999999999993
10
-60
20
29.999999999999986
42
-0.14554084732128703
10
-81.857492994394391
20
23.499999999999996
10
-113
20
23.499999999999996
42
0.4142135623730952
10
-123
20
13.499999999999995
10
-123
20
-13.500000000000005
42
0.41421356237309453
10
-113
20
-23.500000000000021
10
-81.857492994394391
20
-23.499999999999996
42
-0.14554084732128714
10
-60
20
-30
10
-40
20
-30
10
-40
20
-33
10
-25
20
-33
10
-25
20
-30
10
-7.5
20
-30
10
-7.5
20
-33
10
7.5
20
-33
10
7.5
20
-30
10
25
20
-30
10
25
20
-33
10
40
20
-33
10
40
20
-30
10
60.000000000000007
20
-29.999999999999996
42
-0.14554084732128714
10
81.85749299439442
20
-23.499999999999996
0
CIRCLE
5
109
100
AcDbEntity
8
0
100
AcDbCircle
10
-99.500000000000014
20
-1.5330768917902778e-14
30
0
40
15
210
0
220
-0
230
1
0
CIRCLE
5
110
100
AcDbEntity
8
0
100
AcDbCircle
10
50
20
-19.999999999999996
30
0
40
1.5000000000000036
210
0
220
-0
230
1
0
CIRCLE
5
111
100
AcDbEntity
8
0
100
AcDbCircle
10
-50
20
-19.999999999999996
30
0
40
1.5000000000000036
210
0
220
-0
230
1
0
CIRCLE
5
112
100
AcDbEntity
8
0
100
AcDbCircle
10
50
20
20
30
0
40
1.5000000000000036
210
0
220
-0
230
1
0
CIRCLE
5
113
100
AcDbEntity
8
0
100
AcDbCircle
10
-50
20
19.999999999999982
30
0
40
1.5000000000000036
210
0
220
-0
230
1
0
LWPOLYLINE
5
114
100
AcDbEntity
8
0
100
AcDbPolyline
90
4
70
1
43
0.0
10
-42.500000000000007
20
7.5
42
0.26794919243099602
10
-42.500000000000007
20
-7.5000000000000044
10
42.499999999999993
20
-7.5
42
0.26794919243112275
10
42.499999999999993
20
7.5
0
CIRCLE
5
115
100
AcDbEntity
8
0
100
AcDbCircle
10
99.500000000000014
20
-1.3327753883402916e-14
30
0
40
15
210
0
220
-0
230
1
0
ENDSEC
0
SECTION
2
OBJECTS
0
DICTIONARY
5
C
100
AcDbDictionary
3
ACAD_GROUP
350
D
3
ACAD_MLINESTYLE
350
17
0
DICTIONARY
5
D
100
AcDbDictionary
0
DICTIONARY
5
1A
330
C
100
AcDbDictionary
0
DICTIONARY
5
17
100
AcDbDictionary
0
ENDSEC
0
EOF
