0
SECTION
2
HEADER
9
$INSUNITS
70
4
9
$ACADVER
1
AC1014
9
$HANDSEED
5
FFFF
0
ENDSEC
0
SECTION
2
TABLES
0
TABLE
2
VPORT
5
8
100
AcDbSymbolTable
0
ENDTAB
0
TABLE
2
LTYPE
5
5
100
AcDbSymbolTable
0
LTYPE
5
14
100
AcDbSymbolTableRecord
100
AcDbLinetypeTableRecord
2
BYBLOCK
70
0
0
LTYPE
5
15
100
AcDbSymbolTableRecord
100
AcDbLinetypeTableRecord
2
BYLAYER
70
0
0
ENDTAB
0
TABLE
2
LAYER
5
2
100
AcDbSymbolTable
70
2
0
LAYER
5
50
100
AcDbSymbolTableRecord
100
AcDbLayerTableRecord
2
0
70
0
6
CONTINUOUS
0
ENDTAB
0
TABLE
2
STYLE
5
3
100
AcDbSymbolTable
70
1
0
STYLE
5
11
100
AcDbSymbolTableRecord
100
AcDbTextStyleTableRecord
2
STANDARD
70
0
0
ENDTAB
0
TABLE
2
VIEW
5
6
100
AcDbSymbolTable
70
0
0
ENDTAB
0
TABLE
2
UCS
5
7
100
AcDbSymbolTable
70
0
0
ENDTAB
0
TABLE
2
APPID
5
9
100
AcDbSymbolTable
70
2
0
APPID
5
12
100
AcDbSymbolTableRecord
100
AcDbRegAppTableRecord
2
ACAD
70
0
0
ENDTAB
0
TABLE
2
DIMSTYLE
5
A
100
AcDbSymbolTable
70
1
0
ENDTAB
0
TABLE
2
BLOCK_RECORD
5
1
100
AcDbSymbolTable
70
1
0
BLOCK_RECORD
5
1F
100
AcDbSymbolTableRecord
100
AcDbBlockTableRecord
2
*MODEL_SPACE
0
BLOCK_RECORD
5
1B
100
AcDbSymbolTableRecord
100
AcDbBlockTableRecord
2
*PAPER_SPACE
0
ENDTAB
0
ENDSEC
0
SECTION
2
BLOCKS
0
BLOCK
5
20
100
AcDbEntity
100
AcDbBlockBegin
2
*MODEL_SPACE
0
ENDBLK
5
21
100
AcDbEntity
100
AcDbBlockEnd
0
BLOCK
5
1C
100
AcDbEntity
100
AcDbBlockBegin
2
*PAPER_SPACE
0
ENDBLK
5
1D
100
AcDbEntity
100
AcDbBlockEnd
0
ENDSEC
0
SECTION
2
ENTITIES
0
LWPOLYLINE
5
100
100
AcDbEntity
8
0
100
AcDbPolyline
90
4
70
1
43
0.0
10
-50
20
15.000000000000009
10
-50
20
-14.999999999999998
42
-0.99999999999999989
10
-53.000000000000007
20
-14.999999999999998
10
-53.000000000001165
20
14.99999999986856
42
-1.0000008778103249
0
LWPOLYLINE
5
101
100
AcDbEntity
8
0
100
AcDbPolyline
90
4
70
1
43
0.0
10
50
20
-14.999999999999998
10
50.000000000001151
20
14.999999999868558
42
-1.0000008778103249
10
53.000000000000007
20
15.000000000000011
10
53.000000000000007
20
-14.999999999999998
42
-0.99999999999999989
0
CIRCLE
5
102
100
AcDbEntity
8
0
100
AcDbCircle
10
-51.5
20
22.300000000000004
30
0
40
2.0500000000000007
210
0
220
0
230
1
0
CIRCLE
5
103
100
AcDbEntity
8
0
100
AcDbCircle
10
6.8999999999999861
20
22.299999999999997
30
0
40
2.0499999999999998
210
0
220
0
230
1
0
CIRCLE
5
104
100
AcDbEntity
8
0
100
AcDbCircle
10
-6.899999999999995
20
-22.29999999999999
30
0
40
2.0499999999999998
210
0
220
0
230
1
0
CIRCLE
5
105
100
AcDbEntity
8
0
100
AcDbCircle
10
51.5
20
22.300000000000011
30
0
40
2.0500000000000007
210
0
220
0
230
1
0
CIRCLE
5
106
100
AcDbEntity
8
0
100
AcDbCircle
10
29.199999999999999
20
-2.2228848235774324e-15
30
0
40
3.9999999999999991
210
0
220
0
230
1
0
CIRCLE
5
107
100
AcDbEntity
8
0
100
AcDbCircle
10
-51.5
20
-22.299999999999997
30
0
40
2.0500000000000007
210
0
220
0
230
1
0
CIRCLE
5
108
100
AcDbEntity
8
0
100
AcDbCircle
10
-6.899999999999995
20
22.299999999999997
30
0
40
2.0499999999999998
210
0
220
0
230
1
0
CIRCLE
5
109
100
AcDbEntity
8
0
100
AcDbCircle
10
6.9000000000000039
20
-22.29999999999999
30
0
40
2.0499999999999998
210
0
220
0
230
1
0
CIRCLE
5
110
100
AcDbEntity
8
0
100
AcDbCircle
10
51.5
20
-22.299999999999986
30
0
40
2.0500000000000007
210
0
220
0
230
1
0
CIRCLE
5
111
100
AcDbEntity
8
0
100
AcDbCircle
10
-29.199999999999999
20
-5.7988534770877047e-15
30
0
40
3.9999999999999991
210
0
220
0
230
1
0
CIRCLE
5
112
100
AcDbEntity
8
0
100
AcDbCircle
10
114.52600000000001
20
15.026
30
0
40
1.5000000000000036
210
0
220
0
230
1
0
CIRCLE
5
113
100
AcDbEntity
8
0
100
AcDbCircle
10
-114.52600000000001
20
-15.026000000000019
30
0
40
1.5000000000000036
210
0
220
0
230
1
0
CIRCLE
5
114
100
AcDbEntity
8
0
100
AcDbCircle
10
-114.52600000000001
20
15.025999999999984
30
0
40
1.5000000000000036
210
0
220
0
230
1
0
CIRCLE
5
115
100
AcDbEntity
8
0
100
AcDbCircle
10
114.52600000000001
20
-15.026000000000003
30
0
40
1.5000000000000036
210
0
220
0
230
1
0
CIRCLE
5
116
100
AcDbEntity
8
0
100
AcDbCircle
10
84.474000000000004
20
15.025999999999993
30
0
40
1.5000000000000036
210
0
220
0
230
1
0
CIRCLE
5
117
100
AcDbEntity
8
0
100
AcDbCircle
10
-84.474000000000004
20
-15.026000000000019
30
0
40
1.5000000000000036
210
0
220
0
230
1
0
CIRCLE
5
118
100
AcDbEntity
8
0
100
AcDbCircle
10
-84.474000000000004
20
15.025999999999984
30
0
40
1.5000000000000036
210
0
220
0
230
1
0
CIRCLE
5
119
100
AcDbEntity
8
0
100
AcDbCircle
10
84.474000000000004
20
-15.02600000000001
30
0
40
1.5000000000000036
210
0
220
0
230
1
0
LWPOLYLINE
5
120
100
AcDbEntity
8
0
100
AcDbPolyline
90
40
70
1
43
0.0
10
113
20
-23.500000000000018
42
0.4142135623730952
10
123
20
-13.500000000000016
10
123
20
13.499999999999982
42
0.41421356237309515
10
113
20
23.499999999999986
10
81.85749299439442
20
23.499999999999996
42
-0.14554084732128714
10
60
20
30.000000000000007
10
40
20
30.000000000000007
10
40
20
33.000000000000007
10
25
20
33
10
25
20
30
10
7.4999999999999822
20
30
10
7.4999999999999822
20
33
10
-7.5000000000000089
20
33
10
-7.5000000000000089
20
30
10
-25
20
29.999999999999993
10
-25
20
32.999999999999986
10
-40
20
32.999999999999986
10
-40
20
29.999999999999993
10
-60
20
29.999999999999986
42
-0.14554084732128691
10
-81.857492994394377
20
23.499999999999996
10
-113
20
23.499999999999982
42
0.4142135623730952
10
-123
20
13.49999999999998
10
-123
20
-13.500000000000018
42
0.41421356237309515
10
-113
20
-23.500000000000021
10
-81.857492994394391
20
-23.500000000000014
42
-0.14554084732128703
10
-60
20
-30.000000000000004
10
-40
20
-30
10
-40
20
-33
10
-25
20
-33
10
-25
20
-30
10
-7.5
20
-30
10
-7.5
20
-33
10
7.5
20
-33
10
7.5
20
-30
10
25
20
-30
10
25
20
-33
10
40
20
-33
10
40
20
-30
10
60.000000000000007
20
-29.999999999999996
42
-0.14554084732128714
10
81.85749299439442
20
-23.500000000000007
0
CIRCLE
5
121
100
AcDbEntity
8
0
100
AcDbCircle
10
-99.500000000000014
20
-1.9759791814048857e-14
30
0
40
15
210
0
220
-0
230
1
0
CIRCLE
5
122
100
AcDbEntity
8
0
100
AcDbCircle
10
99.500000000000014
20
-1.9164019196539844e-14
30
0
40
15
210
0
220
-0
230
1
0
CIRCLE
5
123
100
AcDbEntity
8
0
100
AcDbCircle
10
0
20
0
30
0
40
10
210
0
220
-0
230
1
0
ENDSEC
0
SECTION
2
OBJECTS
0
DICTIONARY
5
C
100
AcDbDictionary
3
ACAD_GROUP
350
D
3
ACAD_MLINESTYLE
350
17
0
DICTIONARY
5
D
100
AcDbDictionary
0
DICTIONARY
5
1A
330
C
100
AcDbDictionary
0
DICTIONARY
5
17
100
AcDbDictionary
0
ENDSEC
0
EOF
