<?xml version="1.0" encoding="UTF-8" standalone="no"?>
<svg
   viewBox="0 0 793.7007874015749 1122.5196850393702"
   width="793.7007874015749"
   height="1122.5196850393702"
   version="1.1"
   id="svg4701"
   sodipodi:docname="MK_plexi.svg"
   inkscape:version="1.2.1 (9c6d41e410, 2022-07-14)"
   xmlns:inkscape="http://www.inkscape.org/namespaces/inkscape"
   xmlns:sodipodi="http://sodipodi.sourceforge.net/DTD/sodipodi-0.dtd"
   xmlns="http://www.w3.org/2000/svg"
   xmlns:svg="http://www.w3.org/2000/svg">
  <sodipodi:namedview
     id="namedview4703"
     pagecolor="#ffffff"
     bordercolor="#000000"
     borderopacity="0.25"
     inkscape:showpageshadow="2"
     inkscape:pageopacity="0.0"
     inkscape:pagecheckerboard="0"
     inkscape:deskcolor="#d1d1d1"
     showgrid="false"
     inkscape:zoom="1.9527774"
     inkscape:cx="426.31587"
     inkscape:cy="685.43399"
     inkscape:window-width="1920"
     inkscape:window-height="991"
     inkscape:window-x="-9"
     inkscape:window-y="-9"
     inkscape:window-maximized="1"
     inkscape:current-layer="g4699" />
  <desc
     id="desc4619">plexi_v2.dxf - scale = 1.000000, origin = (0.000000, 0.000000), method = manual</desc>
  <defs
     id="defs4633">
    <rect
       x="359.48798"
       y="630.38419"
       width="159.77243"
       height="109.5875"
       id="rect4930" />
    <marker
       id="DistanceX"
       orient="auto"
       refX="0.0"
       refY="0.0"
       style="overflow:visible">
      <path
         d="M 3,-3 L -3,3 M 0,-5 L  0,5"
         style="stroke:#000000; stroke-width:0.5"
         id="path4621" />
    </marker>
    <pattern
       id="Hatch"
       patternUnits="userSpaceOnUse"
       width="8"
       height="8"
       x="0"
       y="0">
      <path
         d="M8 4 l-4,4"
         stroke="#000000"
         stroke-width="0.25"
         linecap="square"
         id="path4624" />
      <path
         d="M6 2 l-4,4"
         stroke="#000000"
         stroke-width="0.25"
         linecap="square"
         id="path4626" />
      <path
         d="M4 0 l-4,4"
         stroke="#000000"
         stroke-width="0.25"
         linecap="square"
         id="path4628" />
    </pattern>
    <symbol
       id="*MODEL_SPACE" />
    <symbol
       id="*PAPER_SPACE" />
  </defs>
  <g
     inkscape:groupmode="layer"
     inkscape:label="0"
     id="g4699">
    <path
       d="m 279.50909,793.84359 a 13.228346,13.228346 0 0 0 17.0896,17.56124 13.228346,13.228346 0 0 1 -17.0896,-17.56124 z"
       style="fill:none;stroke:#ff0000;stroke-opacity:1;stroke-width:0.37795276;stroke-dasharray:none"
       id="path4635" />
    <path
       d="m 581.83909,811.40483 a 13.228346,13.228346 0 0 0 17.22942,-17.22942 13.228346,13.228346 0 0 1 -17.22942,17.22942 z"
       style="fill:none;stroke:#ff0000;stroke-opacity:1;stroke-width:0.37795276;stroke-dasharray:none"
       id="path4637" />
    <path
       d="m 596.8395,557.56476 a 15.11811,15.11811 0 0 0 -20.94857,-18.7442 15.11811,15.11811 0 0 1 20.94857,18.7442 z"
       style="fill:none;stroke:#ff0000;stroke-opacity:1;stroke-width:0.37795276;stroke-dasharray:none"
       id="path4639" />
    <path
       d="m 296.59869,540.08354 a 13.228346,13.228346 0 0 0 -14.0714,21.85907 13.228346,13.228346 0 0 1 14.0714,-21.85907 z"
       style="fill:none;stroke:#ff0000;stroke-opacity:1;stroke-width:0.37795276;stroke-dasharray:none"
       id="path4641" />
    <path
       style="fill:none;stroke:#ff0000;stroke-opacity:1;stroke-width:0.37795276;stroke-dasharray:none"
       d="m 279.5091,793.84009 12.1192,-27.7"
       id="path4643" />
    <path
       style="fill:none;stroke:#ff0000;stroke-opacity:1;stroke-width:0.37795276;stroke-dasharray:none"
       d="m 291.6283,766.14009 v -8.57"
       id="path4645" />
    <path
       style="fill:none;stroke:#ff0000;stroke-opacity:1;stroke-width:0.37795276;stroke-dasharray:none"
       d="M 291.6283,757.57009 H 285.959"
       id="path4647" />
    <path
       style="fill:none;stroke:#ff0000;stroke-opacity:1;stroke-width:0.37795276;stroke-dasharray:none"
       d="m 285.959,757.57009 v -75.59"
       id="path4649" />
    <path
       style="fill:none;stroke:#ff0000;stroke-opacity:1;stroke-width:0.37795276;stroke-dasharray:none"
       d="m 285.959,681.98009 h 5.6693"
       id="path4651" />
    <path
       style="fill:none;stroke:#ff0000;stroke-opacity:1;stroke-width:0.37795276;stroke-dasharray:none"
       d="m 291.6283,681.98009 v -40.67"
       id="path4653" />
    <path
       style="fill:none;stroke:#ff0000;stroke-opacity:1;stroke-width:0.37795276;stroke-dasharray:none"
       d="M 291.6283,641.31009 H 270.8409"
       id="path4655" />
    <path
       style="fill:none;stroke:#ff0000;stroke-opacity:1;stroke-width:0.37795276;stroke-dasharray:none"
       d="m 270.8409,641.31009 v -79.37"
       id="path4657" />
    <path
       style="fill:none;stroke:#ff0000;stroke-opacity:1;stroke-width:0.37795276;stroke-dasharray:none"
       d="m 296.5987,811.40009 30.2362,-12.25"
       id="path4659" />
    <path
       style="fill:none;stroke:#ff0000;stroke-opacity:1;stroke-width:0.37795276;stroke-dasharray:none"
       d="M 326.8349,799.15009 H 551.6025"
       id="path4661" />
    <path
       style="fill:none;stroke:#ff0000;stroke-opacity:1;stroke-width:0.37795276;stroke-dasharray:none"
       d="m 551.6025,799.15009 30.237,12.25"
       id="path4663" />
    <path
       style="fill:none;stroke:#ff0000;stroke-opacity:1;stroke-width:0.37795276;stroke-dasharray:none"
       d="m 599.0685,794.18009 -12.259,-30.24"
       id="path4665" />
    <path
       style="fill:none;stroke:#ff0000;stroke-opacity:1;stroke-width:0.37795276;stroke-dasharray:none"
       d="m 586.8095,735.73009 v 28.21"
       id="path4667" />
    <path
       style="fill:none;stroke:#ff0000;stroke-opacity:1;stroke-width:0.37795276;stroke-dasharray:none"
       d="m 596.2585,724.40009 -9.449,11.33"
       id="path4669" />
    <path
       style="fill:none;stroke:#ff0000;stroke-opacity:1;stroke-width:0.37795276;stroke-dasharray:none"
       d="m 596.2585,724.40009 v -141.1"
       id="path4671" />
    <path
       style="fill:none;stroke:#ff0000;stroke-opacity:1;stroke-width:0.37795276;stroke-dasharray:none"
       d="m 596.2585,583.30009 -6.803,-5.67"
       id="path4673" />
    <path
       style="fill:none;stroke:#ff0000;stroke-opacity:1;stroke-width:0.37795276;stroke-dasharray:none"
       d="m 589.4555,577.63009 7.384,-20.07"
       id="path4675" />
    <path
       style="fill:none;stroke:#ff0000;stroke-opacity:1;stroke-width:0.37795276;stroke-dasharray:none"
       d="m 575.8905,538.82009 -27.044,13.52"
       id="path4677" />
    <path
       style="fill:none;stroke:#ff0000;stroke-opacity:1;stroke-width:0.37795276;stroke-dasharray:none"
       d="M 548.8465,552.34009 H 326.8349"
       id="path4679" />
    <path
       style="fill:none;stroke:#ff0000;stroke-opacity:1;stroke-width:0.37795276;stroke-dasharray:none"
       d="m 326.8349,552.34009 -30.2362,-12.26"
       id="path4681" />
    <path
       style="fill:none;stroke:#ff0000;stroke-opacity:1;stroke-width:0.37795276;stroke-dasharray:none"
       d="m 270.8409,561.94009 h 11.6864"
       id="path4683" />
    <path
       d="M 549.01416,691.27804 H 567.9118 V 664.82135 H 549.01416 Z"
       style="fill:none;stroke:#ff0000;stroke-opacity:1;stroke-width:0.37795276;stroke-dasharray:none"
       id="path4685" />
    <path
       d="m 299.18739,799.14576 a 7.559055,7.559055 0 0 0 -15.11811,0 7.559055,7.559055 0 0 0 15.11811,0 z"
       style="fill:none;stroke:#ff0000;stroke-opacity:1;stroke-width:0.37795276;stroke-dasharray:none"
       id="path4687" />
    <path
       d="m 594.36849,799.14576 a 7.559055,7.559055 0 0 0 -15.11811,0 7.559055,7.559055 0 0 0 15.11811,0 z"
       style="fill:none;stroke:#ff0000;stroke-opacity:1;stroke-width:0.37795276;stroke-dasharray:none"
       id="path4689" />
    <path
       d="m 590.21101,552.34261 a 7.559055,7.559055 0 0 0 -15.11811,0 7.559055,7.559055 0 0 0 15.11811,0 z"
       style="fill:none;stroke:#ff0000;stroke-opacity:1;stroke-width:0.37795276;stroke-dasharray:none"
       id="path4691" />
    <path
       d="m 299.18739,552.34261 a 7.559055,7.559055 0 0 0 -15.11811,0 7.559055,7.559055 0 0 0 15.11811,0 z"
       style="fill:none;stroke:#ff0000;stroke-opacity:1;stroke-width:0.37795276;stroke-dasharray:none"
       id="path4693" />
    <path
       d="m 382.71495,774.42765 h 177.6378 a 7.559055,7.559055 0 0 0 0,-15.11811 h -177.6378 a 7.559055,7.559055 0 0 0 0,15.11811 z"
       style="fill:none;stroke:#ff0000;stroke-opacity:1;stroke-width:0.37795276;stroke-dasharray:none"
       id="path4695" />
    <path
       d="m 412.57322,590.13789 h 143.62205 a 7.559055,7.559055 0 0 0 0,-15.11811 H 412.57322 a 7.559055,7.559055 0 0 0 0,15.11811 z"
       style="fill:none;stroke:#ff0000;stroke-opacity:1;stroke-width:0.37795276;stroke-dasharray:none"
       id="path4697" />
    <text
       xml:space="preserve"
       id="text4928"
       style="font-size:16px;font-family:'Times New Roman';-inkscape-font-specification:'Times New Roman, ';text-align:center;white-space:pre;shape-inside:url(#rect4930);fill:none;stroke:#ff0000;stroke-width:0.377953" />
    <path
       style="fill:none;stroke:#0000ff;stroke-width:0.37795276;stroke-opacity:1;stroke-dasharray:none"
       d="m 430.15655,758.40697 c -7.31819,-4.18183 -11.91008,-6.765 -20.48364,-12.29019 -2.98565,-1.92408 -11.7781,-7.32387 -11.7781,-11.77809 0,-0.7038 -0.0951,-1.69244 0.51209,-2.04837 4.54602,-2.6649 9.36486,-4.91639 14.33855,-6.65718 4.22112,-1.47739 8.64457,0.44738 12.80228,-0.51209 1.2667,-0.29232 2.33046,-1.19423 3.58464,-1.53628 0.65873,-0.17965 1.52995,0.44436 2.04837,0 1.62525,-1.39307 7.20034,-7.06052 6.14509,-10.75391 -0.36626,-1.28189 -1.92477,-1.88222 -3.07255,-2.56046 -2.62886,-1.55341 -5.33435,-3.02456 -8.19346,-4.09672 -2.24241,-0.84091 -12.83077,-0.54059 -13.82646,-1.53628 -2.65986,-2.65986 -2.87804,-6.55664 -4.60882,-9.72973 -0.92007,-1.6868 -2.49876,-3.098 -4.09673,-4.09673 -0.45774,-0.28609 -1.3358,-0.0109 -1.53627,-0.51209 -0.26138,-0.65346 0.0313,-1.5344 0.51209,-2.04836 10.76298,-11.50525 18.18042,-18.02231 32.26174,-25.60456 4.85615,-2.61485 10.18311,-4.25011 15.36274,-6.14509 1.82776,-0.6687 6.71258,0.0831 5.633,-1.53628 -1.23091,-1.84637 -4.44508,-0.17556 -6.65718,0 -31.97199,2.53746 -17.79089,1.52674 -46.6003,6.65719 -5.44295,0.96929 -10.95469,1.53273 -16.38691,2.56045 -0.90321,0.17088 -2.81299,1.90805 -2.56046,1.02418 0.53468,-1.87136 2.15962,-3.28322 3.58464,-4.60882 5.93764,-5.52338 12.6496,-10.19246 18.43528,-15.87482 3.80464,-3.7367 6.63355,-8.36354 10.24182,-12.29019 2.20659,-2.40128 4.79837,-4.41799 7.16928,-6.65718 0.70201,-0.66301 2.28256,-1.11159 2.04836,-2.04837 -0.207,-0.828 -1.70777,-0.0371 -2.56045,0 -13.52032,0.58784 -4.83606,0.51209 -13.31437,0.51209 -3.28879,0 -0.5933,0.0842 1.53627,-0.51209 7.43322,-2.0813 14.85147,-4.71173 21.50783,-8.70555 0.73186,-0.43911 1.30228,-1.12178 2.04836,-1.53627 0.1533,-0.0852 3.31421,-0.96663 3.58464,-2.04836 0.5382,-2.15281 0.45715,-4.48573 0,-6.65719 -0.098,-0.46535 -3.23879,-8.18811 -4.09673,-9.21764 -0.78801,-0.94561 -1.97158,-1.49788 -3.07255,-2.04836 -0.42636,-0.21318 -1.72353,0.32482 -2.04836,0 -0.1207,-0.12071 0.15268,-0.43576 0,-0.5121 -0.30535,-0.15267 -0.70031,0.10796 -1.02418,0 -0.89103,-0.297 -2.62435,-1.96286 -3.07255,-2.56045 -0.32387,-0.43183 -0.27069,-1.05347 -0.51209,-1.53627"
       id="path5041" />
    <path
       style="fill:none;stroke:#0000ff;stroke-width:0.37795276;stroke-opacity:1;stroke-dasharray:none"
       d="m 470.61175,591.46526 c -1.87766,1.53627 -3.89418,2.917 -5.633,4.60882 -23.10655,22.48205 -4.97472,4.67867 -25.09246,35.33429 -2.72242,4.14845 -6.52459,7.4781 -9.72974,11.266 -0.51209,0.68279 -1.02418,1.36558 -1.53627,2.04837 -0.1707,0.51209 -0.21267,1.08714 -0.51209,1.53627 -0.0947,0.14203 -0.68279,0 -0.51209,0 7.90437,0 0.39728,0.0786 16.38691,-1.02418 12.12072,-0.83591 24.21571,-2.1557 36.35847,-2.56046 0.64371,-0.0214 13.85175,1.35715 16.38692,0.5121 0.16194,-0.054 0.0335,-0.34471 0,-0.5121 -0.83415,-4.17073 -0.37545,-5.20051 -4.09673,-7.68136 -5.75389,-3.83593 -5.28452,-3.07255 -11.266,-3.07255 -2.26826,0 -4.921,-0.21221 -4.09673,1.02418 0.34139,0.51209 0.97598,-0.7695 1.53627,-1.02418 1.32771,-0.6035 2.77512,-0.91952 4.09673,-1.53627 4.64306,-2.16676 8.69519,-5.46416 13.31437,-7.68137 0.93606,-0.44931 2.08752,-0.18375 3.07255,-0.51209 1.20707,-0.40236 -2.58484,-1.41435 1.02418,-0.51209 3.86278,0.96569 5.41872,8.96413 7.16927,12.29019 0.8317,1.58023 6.59937,9.75447 6.65719,11.77809 0.25576,8.95177 0.13023,18.72168 -7.68137,24.58038 -5.62642,4.21981 -10.8353,7.05095 -17.92319,6.65718 -6.68292,-0.37127 -2.49446,-0.40698 -8.70555,-1.53627 -0.50383,-0.0916 -1.07824,0.22901 -1.53627,0 -0.34139,-0.1707 -0.1707,-0.85349 -0.51209,-1.02418 -1.86703,-0.93352 -5.91255,-1.59441 -8.19346,-1.02419 -1.03627,0.25907 -1.21632,1.25893 -2.04836,1.53628 -0.32388,0.10795 -0.75107,-0.20484 -1.02419,0 -1.40594,1.05446 -2.05546,2.9255 -2.56045,4.60882 -0.34335,1.14448 -0.19644,2.40601 0,3.58463 0.42927,2.57564 1.08249,5.10994 1.53627,7.68137 0.0593,0.3362 -0.10796,0.70031 0,1.02418 0.59755,1.79265 5.1944,1.89626 6.1451,2.04837 3.0758,0.49213 6.14877,1.00256 9.21764,1.53627 0.33019,0.0574 5.02374,0.44116 5.12091,1.02418 0.30996,1.85976 0.40137,3.75085 0.51209,5.63301 0.0601,1.02241 0.42919,2.14263 0,3.07254 -0.65949,1.4289 -2.15113,2.30884 -3.07255,3.58464 -1.30308,1.80426 -2.22765,3.86893 -3.58464,5.633 -1.68207,2.1867 -5.4376,2.77946 -7.68136,6.1451 -0.13391,0.20086 -0.51209,0.27069 -0.51209,0.51209 0,6.0462 5.22151,8.55794 9.72973,11.77809 0.43924,0.31375 1.15458,0.13041 1.53627,0.5121 0.1207,0.1207 -0.1389,0.41287 0,0.51209 1.11986,0.7999 2.40455,1.34031 3.58464,2.04836 0.52775,0.31665 0.9524,0.82956 1.53627,1.02418 0.48581,0.16194 1.06081,-0.19018 1.53628,0 0.44827,0.17931 0.68278,0.68279 1.02418,1.02419 0.68279,0.68278 1.52995,1.23371 2.04836,2.04836 1.09835,1.72598 3.63829,6.58565 2.04837,8.70555 -0.98166,1.30887 -2.00793,0.82653 -3.07255,1.53627 -1.6336,1.08907 -1.24739,2.27157 -1.53627,2.56046 -0.24141,0.2414 -0.74013,-0.18937 -1.02419,0 -0.96574,0.64383 -1.02418,3.50052 -1.02418,4.60882"
       id="path5043" />
    <path
       style="fill:none;stroke:#0000ff;stroke-width:0.37795276;fill-opacity:1;stroke-opacity:1;stroke-dasharray:none"
       d="m 521.82087,758.40697 c -2.1275,-7.51708 -3.59839,-15.29741 -4.60882,-23.0441 -0.23362,-1.79103 0.39339,-3.86275 0,-5.633 -0.17286,-0.77787 -1.65516,-6.73766 -2.04837,-7.68137 -0.38282,-0.91876 -1.20501,-1.62187 -1.53627,-2.56046 -0.70272,-1.99103 -0.99224,-4.10497 -1.53627,-6.14509 -0.13909,-0.52156 -0.97496,-1.25855 -0.5121,-1.53627 0.87823,-0.52694 2.07665,-0.23902 3.07255,0 3.3072,0.79373 6.50315,1.99702 9.72973,3.07254 3.60058,1.2002 12.25506,3.8202 15.36274,5.63301 0.99359,0.5796 3.51389,3.8317 4.09673,4.60882 0.14484,0.19312 -0.32526,-0.35923 -0.5121,-0.51209 -3.56947,-2.92048 -7.33649,-5.60852 -10.75391,-8.70555 -7.09979,-6.43419 -4.20844,-5.3949 -10.24182,-12.29019 -8.22183,-9.39637 0.96308,2.78218 -3.58464,-3.58464 -0.26298,-0.36817 -5.39126,-7.80223 -4.60882,-8.19346 1.557,-0.77849 3.41146,0.69545 5.12091,1.02419 2.72875,0.52475 5.51763,0.78704 8.19346,1.53627 1.61891,0.45329 3.11377,1.27948 4.60882,2.04836 4.48256,2.30532 8.98177,4.59314 13.31437,7.16928 4.25043,-0.43468 4.60524,4.00134 7.16927,5.633 1.53899,0.97936 7.49712,4.28099 9.72974,2.04837 0.53979,-0.53979 0.73514,-1.34182 1.02418,-2.04837 2.56446,-6.26868 5.63691,-17.58701 9.72973,-23.0441 0.22901,-0.30535 0.68279,-0.34139 1.02418,-0.51209 0.85349,-2.38976 1.54865,-4.84212 2.56046,-7.16928 0.70073,-1.61169 1.90776,-2.97708 2.56045,-4.60882 1.17036,-2.92589 0.60546,-7.87799 0,-10.75391 -1.79728,-8.53712 -6.13151,-13.19927 -12.29018,-18.94737 -1.41183,-1.31771 -2.60597,-2.86904 -4.09673,-4.09673 -1.42527,-1.17375 -3.13173,-1.96473 -4.60882,-3.07255 -3.38924,-2.54193 0.27118,-0.64975 -3.07255,-2.56045 -1.96449,-1.12257 -4.19826,-1.44798 -6.14509,-2.56046 -0.41919,-0.23954 -0.66694,-0.69941 -1.02419,-1.02418 -1.52092,-1.38266 -3.24324,-2.56046 -4.60882,-4.09673 -1.91327,-2.15244 -6.45116,-9.72775 -7.68136,-11.7781 -2.04837,-3.41394 -4.2116,-6.76153 -6.1451,-10.24182 -0.16579,-0.29843 0.10796,-0.70031 0,-1.02418 -0.46119,-1.3836 -0.97533,-2.75048 -1.53627,-4.09673 -1.31465,-3.15517 -2.85168,-5.59293 -4.09673,-8.70555"
       id="path5051" />
  </g>
</svg>
