<?xml version="1.0" encoding="UTF-8" standalone="no"?>
<svg
   viewBox="0 0 187.24191 1134.998"
   width="187.24191"
   height="1134.9979"
   version="1.1"
   id="svg2493"
   sodipodi:docname="cadre2.0_jetson.svg"
   inkscape:version="1.2.1 (9c6d41e410, 2022-07-14)"
   xmlns:inkscape="http://www.inkscape.org/namespaces/inkscape"
   xmlns:sodipodi="http://sodipodi.sourceforge.net/DTD/sodipodi-0.dtd"
   xmlns="http://www.w3.org/2000/svg"
   xmlns:svg="http://www.w3.org/2000/svg">
  <sodipodi:namedview
     id="namedview2495"
     pagecolor="#ffffff"
     bordercolor="#000000"
     borderopacity="0.25"
     inkscape:showpageshadow="2"
     inkscape:pageopacity="0.0"
     inkscape:pagecheckerboard="0"
     inkscape:deskcolor="#d1d1d1"
     showgrid="false"
     inkscape:zoom="0.69041107"
     inkscape:cx="206.39877"
     inkscape:cy="765.48598"
     inkscape:window-width="1920"
     inkscape:window-height="991"
     inkscape:window-x="-9"
     inkscape:window-y="-9"
     inkscape:window-maximized="1"
     inkscape:current-layer="g2491" />
  <desc
     id="desc2347">cadre2.0_jetson.dxf - scale = 1.000000, origin = (0.000000, 0.000000), method = manual</desc>
  <defs
     id="defs2361">
    <marker
       id="DistanceX"
       orient="auto"
       refX="0"
       refY="0"
       style="overflow:visible">
      <path
         d="M 3,-3 -3,3 M 0,-5 V 5"
         style="stroke:#000000;stroke-width:0.5"
         id="path2349" />
    </marker>
    <pattern
       id="Hatch"
       patternUnits="userSpaceOnUse"
       width="8"
       height="8"
       x="0"
       y="0">
      <path
         d="M8 4 l-4,4"
         stroke="#000000"
         stroke-width="0.25"
         linecap="square"
         id="path2352" />
      <path
         d="M6 2 l-4,4"
         stroke="#000000"
         stroke-width="0.25"
         linecap="square"
         id="path2354" />
      <path
         d="M4 0 l-4,4"
         stroke="#000000"
         stroke-width="0.25"
         linecap="square"
         id="path2356" />
    </pattern>
    <symbol
       id="*MODEL_SPACE" />
    <symbol
       id="*PAPER_SPACE" />
  </defs>
  <g
     inkscape:groupmode="layer"
     inkscape:label="0"
     id="g2491"
     transform="translate(-26.597273,-8.9695274)">
    <path
       d="M 119.63758,155.05158 A 56.692914,56.692914 0 0 0 119.48127,41.665864 56.692914,56.692914 0 0 0 119.63758,155.05158 Z"
       style="fill:none;stroke:#ff0000;stroke-opacity:1"
       id="path2363" />
    <path
       d="m 120.95583,1111.2711 a 56.692913,56.692913 0 0 0 -0.15631,-113.3857 56.692913,56.692913 0 0 0 0.15631,113.3857 z"
       style="fill:none;stroke:#ff0000;stroke-opacity:1"
       id="path2365" />
    <path
       d="m 129.93987,774.1246 a 28.346457,28.346457 0 0 0 56.69286,-0.078"
       style="fill:none;stroke:#ff0000;stroke-opacity:1"
       id="path2367" />
    <path
       style="fill:none;stroke:#ff0000;stroke-opacity:1"
       d="M 129.94073,774.1243 129.39572,378.78666"
       id="path2369" />
    <path
       d="m 186.08771,378.70821 a 28.346457,28.346457 0 0 0 -56.69286,0.0782"
       style="fill:none;stroke:#ff0000;stroke-opacity:1"
       id="path2371" />
    <path
       style="fill:none;stroke:#ff0000;stroke-opacity:1"
       d="m 186.08566,378.70851 0.54502,395.33759"
       id="path2373" />
    <path
       d="M 68.413403,9.6102541 A 37.795276,37.795276 0 0 0 30.670268,47.457594"
       style="fill:none;stroke:#ff0000;stroke-opacity:1"
       id="path2375" />
    <path
       style="fill:none;stroke:#ff0000;stroke-opacity:1"
       d="M 30.668851,47.457454 30.854559,182.16432"
       id="path2377" />
    <path
       d="m 27.099164,198.64376 a 37.795276,37.795276 0 0 0 3.756811,-16.47977"
       style="fill:none;stroke:#ff0000;stroke-opacity:1"
       id="path2379" />
    <path
       style="fill:none;stroke:#ff0000;stroke-opacity:1"
       d="m 27.097273,198.64352 0.20842,151.18085"
       id="path2381" />
    <path
       style="fill:none;stroke:#ff0000;stroke-opacity:1"
       d="m 27.305693,349.82437 11.339989,-0.0156"
       id="path2383" />
    <path
       style="fill:none;stroke:#ff0000;stroke-opacity:1"
       d="m 38.645682,349.80874 0.07816,56.69295"
       id="path2385" />
    <path
       style="fill:none;stroke:#ff0000;stroke-opacity:1"
       d="m 38.723839,406.50169 -11.339989,0.0156"
       id="path2387" />
    <path
       style="fill:none;stroke:#ff0000;stroke-opacity:1"
       d="M 27.38385,406.51732 27.48806,482.108"
       id="path2389" />
    <path
       style="fill:none;stroke:#ff0000;stroke-opacity:1"
       d="m 27.48806,482.108 11.339989,-0.016"
       id="path2391" />
    <path
       style="fill:none;stroke:#ff0000;stroke-opacity:1"
       d="m 38.828049,482.0924 0.07816,56.6929"
       id="path2393" />
    <path
       style="fill:none;stroke:#ff0000;stroke-opacity:1"
       d="m 38.906206,538.7853 -11.339989,0.016"
       id="path2395" />
    <path
       style="fill:none;stroke:#ff0000;stroke-opacity:1"
       d="m 27.566217,538.8009 0.10421,75.5905"
       id="path2397" />
    <path
       style="fill:none;stroke:#ff0000;stroke-opacity:1"
       d="m 27.670427,614.3914 11.339989,-0.016"
       id="path2399" />
    <path
       style="fill:none;stroke:#ff0000;stroke-opacity:1"
       d="m 39.010416,614.3758 0.07816,56.6928"
       id="path2401" />
    <path
       style="fill:none;stroke:#ff0000;stroke-opacity:1"
       d="m 39.088573,671.0686 -11.339989,0.016"
       id="path2403" />
    <path
       style="fill:none;stroke:#ff0000;stroke-opacity:1"
       d="m 27.748584,671.0843 0.10421,75.5907"
       id="path2405" />
    <path
       style="fill:none;stroke:#ff0000;stroke-opacity:1"
       d="m 27.852794,746.675 11.339989,-0.016"
       id="path2407" />
    <path
       style="fill:none;stroke:#ff0000;stroke-opacity:1"
       d="m 39.192783,746.6594 0.07816,56.6929"
       id="path2409" />
    <path
       style="fill:none;stroke:#ff0000;stroke-opacity:1"
       d="m 39.270941,803.3523 -11.33999,0.016"
       id="path2411" />
    <path
       style="fill:none;stroke:#ff0000;stroke-opacity:1"
       d="m 27.930951,803.3679 0.20842,151.1809"
       id="path2413" />
    <path
       d="M 31.943496,971.0179 A 37.795276,37.795276 0 0 0 28.14126,954.5486"
       style="fill:none;stroke:#ff0000;stroke-opacity:1"
       id="path2415" />
    <path
       style="fill:none;stroke:#ff0000;stroke-opacity:1"
       d="m 31.942078,971.0176 0.185708,134.7068"
       id="path2417" />
    <path
       d="m 32.129203,1105.7243 a 37.795276,37.795276 0 0 0 37.847345,37.7431"
       style="fill:none;stroke:#ff0000;stroke-opacity:1"
       id="path2419" />
    <path
       style="fill:none;stroke:#ff0000;stroke-opacity:1"
       d="m 69.979855,1143.4673 102.039905,-0.1407"
       id="path2421" />
    <path
       d="m 172.02369,1143.3268 a 37.795276,37.795276 0 0 0 37.74314,-37.8474"
       style="fill:none;stroke:#ff0000;stroke-opacity:1"
       id="path2423" />
    <path
       style="fill:none;stroke:#ff0000;stroke-opacity:1"
       d="M 209.76762,1105.4795 209.58191,970.7727"
       id="path2425" />
    <path
       d="m 213.33793,954.2932 a 37.795276,37.795276 0 0 0 -3.75681,16.4798"
       style="fill:none;stroke:#ff0000;stroke-opacity:1"
       id="path2427" />
    <path
       style="fill:none;stroke:#ff0000;stroke-opacity:1"
       d="M 213.33919,954.2935 213.13077,803.1126"
       id="path2429" />
    <path
       style="fill:none;stroke:#ff0000;stroke-opacity:1"
       d="m 213.13077,803.1126 -11.33998,0.016"
       id="path2431" />
    <path
       style="fill:none;stroke:#ff0000;stroke-opacity:1"
       d="m 201.79079,803.1283 -0.0782,-56.693"
       id="path2433" />
    <path
       style="fill:none;stroke:#ff0000;stroke-opacity:1"
       d="m 201.71263,746.4353 11.33999,-0.016"
       id="path2435" />
    <path
       style="fill:none;stroke:#ff0000;stroke-opacity:1"
       d="M 213.05262,746.4197 212.94841,670.829"
       id="path2437" />
    <path
       style="fill:none;stroke:#ff0000;stroke-opacity:1"
       d="m 212.94841,670.829 -11.33999,0.016"
       id="path2439" />
    <path
       style="fill:none;stroke:#ff0000;stroke-opacity:1"
       d="m 201.60842,670.8446 -0.0782,-56.6929"
       id="path2441" />
    <path
       style="fill:none;stroke:#ff0000;stroke-opacity:1"
       d="m 201.53026,614.1517 11.33999,-0.016"
       id="path2443" />
    <path
       style="fill:none;stroke:#ff0000;stroke-opacity:1"
       d="m 212.87025,614.1361 -0.10421,-75.5905"
       id="path2445" />
    <path
       style="fill:none;stroke:#ff0000;stroke-opacity:1"
       d="m 212.76604,538.5456 -11.33999,0.016"
       id="path2447" />
    <path
       style="fill:none;stroke:#ff0000;stroke-opacity:1"
       d="m 201.42605,538.5612 -0.0782,-56.6928"
       id="path2449" />
    <path
       style="fill:none;stroke:#ff0000;stroke-opacity:1"
       d="m 201.34789,481.8684 11.33999,-0.016"
       id="path2451" />
    <path
       style="fill:none;stroke:#ff0000;stroke-opacity:1"
       d="M 212.68788,481.8527 212.58367,406.262"
       id="path2453" />
    <path
       style="fill:none;stroke:#ff0000;stroke-opacity:1"
       d="m 212.58367,406.262 -11.33999,0.0156"
       id="path2455" />
    <path
       style="fill:none;stroke:#ff0000;stroke-opacity:1"
       d="m 201.24368,406.27764 -0.0782,-56.69295"
       id="path2457" />
    <path
       style="fill:none;stroke:#ff0000;stroke-opacity:1"
       d="m 201.16553,349.58469 11.33999,-0.0156"
       id="path2459" />
    <path
       style="fill:none;stroke:#ff0000;stroke-opacity:1"
       d="M 212.50552,349.56906 212.2971,198.3882"
       id="path2461" />
    <path
       d="m 208.4936,181.91909 a 37.795276,37.795276 0 0 0 3.80224,16.46936"
       style="fill:none;stroke:#ff0000;stroke-opacity:1"
       id="path2463" />
    <path
       style="fill:none;stroke:#ff0000;stroke-opacity:1"
       d="M 208.49439,181.91943 208.30868,47.212554"
       id="path2465" />
    <path
       d="M 208.30789,47.212704 A 37.795276,37.795276 0 0 0 170.46055,9.4695641"
       style="fill:none;stroke:#ff0000;stroke-opacity:1"
       id="path2467" />
    <path
       style="fill:none;stroke:#ff0000;stroke-opacity:1"
       d="m 170.45661,9.4697041 -102.0399,0.14068"
       id="path2469" />
    <path
       d="m 77.152625,865.662 a 5.6693054,5.6693054 0 0 0 -0.01563,-11.3386 5.6693054,5.6693054 0 0 0 0.01563,11.3386 z"
       style="fill:none;stroke:#ff0000;stroke-opacity:1"
       id="path2471" />
    <path
       d="m 76.371053,298.73341 a 5.669291,5.669291 0 0 0 -0.01563,-11.33857 5.669291,5.669291 0 0 0 0.01563,11.33857 z"
       style="fill:none;stroke:#ff0000;stroke-opacity:1"
       id="path2473" />
    <path
       d="m 62.697747,47.315104 a 5.6692915,5.6692915 0 0 0 -0.01563,-11.33857 5.6692915,5.6692915 0 0 0 0.01563,11.33857 z"
       style="fill:none;stroke:#ff0000;stroke-opacity:1"
       id="path2475" />
    <path
       d="m 64.172585,1117.1171 a 5.6693054,5.6693054 0 0 0 -0.01563,-11.3386 5.6693054,5.6693054 0 0 0 0.01563,11.3386 z"
       style="fill:none;stroke:#ff0000;stroke-opacity:1"
       id="path2477" />
    <path
       d="m 177.75498,1116.9605 a 5.6693054,5.6693054 0 0 0 -0.0156,-11.3386 5.6693054,5.6693054 0 0 0 0.0156,11.3386 z"
       style="fill:none;stroke:#ff0000;stroke-opacity:1"
       id="path2479" />
    <path
       d="m 176.28014,47.158514 a 5.6692915,5.6692915 0 0 0 -0.0156,-11.33857 5.6692915,5.6692915 0 0 0 0.0156,11.33857 z"
       style="fill:none;stroke:#ff0000;stroke-opacity:1"
       id="path2481" />
    <path
       d="m 62.854332,160.8975 a 5.6692954,5.6692954 0 0 0 -0.01563,-11.33858 5.6692954,5.6692954 0 0 0 0.01563,11.33858 z"
       style="fill:none;stroke:#ff0000;stroke-opacity:1"
       id="path2483" />
    <path
       d="m 64.015999,1003.5347 a 5.6693054,5.6693054 0 0 0 -0.01563,-11.3386 5.6693054,5.6693054 0 0 0 0.01563,11.3386 z"
       style="fill:none;stroke:#ff0000;stroke-opacity:1"
       id="path2485" />
    <path
       d="m 177.5984,1003.3781 a 5.6693054,5.6693054 0 0 0 -0.0156,-11.3386 5.6693054,5.6693054 0 0 0 0.0156,11.3386 z"
       style="fill:none;stroke:#ff0000;stroke-opacity:1"
       id="path2487" />
    <path
       d="m 176.43673,160.74091 a 5.669291,5.669291 0 0 0 -0.0156,-11.33857 5.669291,5.669291 0 0 0 0.0156,11.33857 z"
       style="fill:none;stroke:#ff0000;stroke-opacity:1"
       id="path2489" />
  </g>
</svg>
