<?xml version="1.0" encoding="UTF-8" standalone="no"?>
<svg
   viewBox="0 0 1513.3801 607.59552"
   width="1513.3801"
   height="607.59552"
   version="1.1"
   id="svg4994"
   sodipodi:docname="plaque_support.svg"
   inkscape:version="1.2 (dc2aedaf03, 2022-05-15)"
   xmlns:inkscape="http://www.inkscape.org/namespaces/inkscape"
   xmlns:sodipodi="http://sodipodi.sourceforge.net/DTD/sodipodi-0.dtd"
   xmlns="http://www.w3.org/2000/svg"
   xmlns:svg="http://www.w3.org/2000/svg">
  <sodipodi:namedview
     id="namedview4996"
     pagecolor="#ffffff"
     bordercolor="#000000"
     borderopacity="0.25"
     inkscape:showpageshadow="2"
     inkscape:pageopacity="0.0"
     inkscape:pagecheckerboard="0"
     inkscape:deskcolor="#d1d1d1"
     showgrid="false"
     inkscape:zoom="0.69041107"
     inkscape:cx="821.97407"
     inkscape:cy="462.04358"
     inkscape:window-width="1920"
     inkscape:window-height="1137"
     inkscape:window-x="-8"
     inkscape:window-y="-8"
     inkscape:window-maximized="1"
     inkscape:current-layer="g4992" />
  <desc
     id="desc4930">plaque_support.dxf - scale = 1.000000, origin = (0.000000, 0.000000), method = manual</desc>
  <defs
     id="defs4944">
    <marker
       id="DistanceX"
       orient="auto"
       refX="0"
       refY="0"
       style="overflow:visible">
      <path
         d="M 3,-3 -3,3 M 0,-5 V 5"
         style="stroke:#000000;stroke-width:0.5"
         id="path4932" />
    </marker>
    <pattern
       id="Hatch"
       patternUnits="userSpaceOnUse"
       width="8"
       height="8"
       x="0"
       y="0">
      <path
         d="M8 4 l-4,4"
         stroke="#000000"
         stroke-width="0.25"
         linecap="square"
         id="path4935" />
      <path
         d="M6 2 l-4,4"
         stroke="#000000"
         stroke-width="0.25"
         linecap="square"
         id="path4937" />
      <path
         d="M4 0 l-4,4"
         stroke="#000000"
         stroke-width="0.25"
         linecap="square"
         id="path4939" />
    </pattern>
    <symbol
       id="*MODEL_SPACE" />
    <symbol
       id="*PAPER_SPACE" />
  </defs>
  <g
     inkscape:groupmode="layer"
     inkscape:label="0"
     id="g4992"
     transform="translate(495.97532,-375.50771)">
    <path
       d="m 633.42446,645.7706 a 6.614208,6.614208 0 0 0 13.2284,-0.0166 6.614208,6.614208 0 0 0 -13.2284,0.0166 z"
       style="fill:none;stroke:#ff0000;stroke-opacity:1"
       id="path4946" />
    <path
       d="m 633.55709,751.37052 a 6.614208,6.614208 0 0 0 13.2284,-0.0167 6.614208,6.614208 0 0 0 -13.2284,0.0167 z"
       style="fill:none;stroke:#ff0000;stroke-opacity:1"
       id="path4948" />
    <path
       d="m 825.35196,587.9295 a 6.614208,6.614208 0 0 0 13.2284,-0.0167 6.614208,6.614208 0 0 0 -13.2284,0.0167 z"
       style="fill:none;stroke:#ff0000;stroke-opacity:1"
       id="path4950" />
    <path
       d="m 830.38104,770.32332 a 6.6142103,6.6142103 0 0 0 13.22841,-0.0167 6.6142103,6.6142103 0 0 0 -13.22841,0.0167 z"
       style="fill:none;stroke:#ff0000;stroke-opacity:1"
       id="path4952" />
    <path
       d="m 810.93889,920.50435 a 5.6692915,5.6692915 0 0 0 11.33857,-0.0142 5.6692915,5.6692915 0 0 0 -11.33857,0.0142 z"
       style="fill:none;stroke:#ff0000;stroke-opacity:1"
       id="path4954" />
    <path
       d="m 255.34873,921.20218 a 5.6693106,5.6693106 0 0 0 11.33861,-0.0142 5.6693106,5.6693106 0 0 0 -11.33861,0.0142 z"
       style="fill:none;stroke:#ff0000;stroke-opacity:1"
       id="path4956" />
    <path
       d="m -300.24138,921.9 a 5.6693144,5.6693144 0 0 0 11.33862,-0.0142 5.6693144,5.6693144 0 0 0 -11.33862,0.0142 z"
       style="fill:none;stroke:#ff0000;stroke-opacity:1"
       id="path4958" />
    <path
       d="m 810.33126,436.72521 a 5.6692944,5.6692944 0 0 0 11.33858,-0.0142 5.6692944,5.6692944 0 0 0 -11.33858,0.0142 z"
       style="fill:none;stroke:#ff0000;stroke-opacity:1"
       id="path4960" />
    <path
       d="m 254.74113,437.42303 a 5.6693106,5.6693106 0 0 0 11.33861,-0.0142 5.6693106,5.6693106 0 0 0 -11.33861,0.0142 z"
       style="fill:none;stroke:#ff0000;stroke-opacity:1"
       id="path4962" />
    <path
       d="m -300.84898,438.12085 a 5.6693106,5.6693106 0 0 0 11.33861,-0.0142 5.6693106,5.6693106 0 0 0 -11.33861,0.0142 z"
       style="fill:none;stroke:#ff0000;stroke-opacity:1"
       id="path4964" />
    <path
       d="m -395.1857,859.65699 a 6.047244,6.047244 0 0 0 12.09441,-0.0152 6.047244,6.047244 0 0 0 -12.09441,0.0152 z"
       style="fill:none;stroke:#ff0000;stroke-opacity:1"
       id="path4966" />
    <path
       d="m -177.10717,859.38309 a 6.0472648,6.0472648 0 0 0 12.09452,-0.0152 6.0472648,6.0472648 0 0 0 -12.09452,0.0152 z"
       style="fill:none;stroke:#ff0000;stroke-opacity:1"
       id="path4968" />
    <path
       d="m -177.55812,500.32825 a 6.047244,6.047244 0 0 0 12.09441,-0.0152 6.047244,6.047244 0 0 0 -12.09441,0.0152 z"
       style="fill:none;stroke:#ff0000;stroke-opacity:1"
       id="path4970" />
    <path
       d="m -395.63676,500.60216 a 6.0472612,6.0472612 0 0 0 12.09451,-0.0152 6.0472612,6.0472612 0 0 0 -12.09451,0.0152 z"
       style="fill:none;stroke:#ff0000;stroke-opacity:1"
       id="path4972" />
    <path
       d="m -483.97077,585.75254 -11.33861,0.0142 0.0713,56.69287 11.33851,-0.0142 0.095,75.59049 -11.33861,0.0142 0.0713,56.69287 11.33861,-0.0142 0.0949,75.59049 -11.33851,0.0142 0.0712,56.69287 11.33861,-0.0142 0.0949,75.59049 1489.13277,-1.87035 -0.095,-75.5905 11.3386,-0.0142 -0.071,-56.69287 -11.3386,0.0142 -0.095,-75.59049 11.3385,-0.0142 -0.071,-56.69286 -11.3385,0.0142 -0.095,-75.5905 11.3386,-0.0142 -0.071,-56.69286 -11.3386,0.0142 -0.095,-75.5905 11.3385,-0.0142 -0.071,-56.69286 -11.3385,0.0142 -0.095,-75.59049 -1489.13268,1.87035 0.095,75.59049 -11.33861,0.0142 0.0712,56.69287 11.33852,-0.0142 z"
       style="fill:none;stroke:#ff0000;stroke-opacity:1"
       id="path4974" />
    <path
       d="m -451.37016,963.66465 a 5.6693106,5.6693106 0 0 0 11.33861,-0.0142 5.6693106,5.6693106 0 0 0 -11.33861,0.0142 z"
       style="fill:none;stroke:#ff0000;stroke-opacity:1"
       id="path4976" />
    <path
       d="m 962.17209,961.88924 a 5.6692944,5.6692944 0 0 0 11.33858,-0.0142 5.6692944,5.6692944 0 0 0 -11.33858,0.0142 z"
       style="fill:none;stroke:#ff0000;stroke-opacity:1"
       id="path4978" />
    <path
       d="m 961.46003,394.96056 a 5.6692915,5.6692915 0 0 0 11.33857,-0.0142 5.6692915,5.6692915 0 0 0 -11.33857,0.0142 z"
       style="fill:none;stroke:#ff0000;stroke-opacity:1"
       id="path4980" />
    <path
       d="m -452.08222,396.73597 a 5.6693106,5.6693106 0 0 0 11.33861,-0.0142 5.6693106,5.6693106 0 0 0 -11.33861,0.0142 z"
       style="fill:none;stroke:#ff0000;stroke-opacity:1"
       id="path4982" />
    <path
       d="m -22.97797,498.24433 a 5.6693106,5.6693106 0 0 0 11.338612,-0.0142 5.6693106,5.6693106 0 0 0 -11.338612,0.0142 z"
       style="fill:none;stroke:#ff0000;stroke-opacity:1"
       id="path4984" />
    <path
       d="m 532.61216,497.54651 a 5.6692915,5.6692915 0 0 0 11.33857,-0.0142 5.6692915,5.6692915 0 0 0 -11.33857,0.0142 z"
       style="fill:none;stroke:#ff0000;stroke-opacity:1"
       id="path4986" />
    <path
       d="m -22.522268,861.07869 a 5.6693106,5.6693106 0 0 0 11.338612,-0.0142 5.6693106,5.6693106 0 0 0 -11.338612,0.0142 z"
       style="fill:none;stroke:#ff0000;stroke-opacity:1"
       id="path4988" />
    <path
       d="m 533.06788,860.38088 a 5.6692915,5.6692915 0 0 0 11.33857,-0.0142 5.6692915,5.6692915 0 0 0 -11.33857,0.0142 z"
       style="fill:none;stroke:#ff0000;stroke-opacity:1"
       id="path4990" />
  </g>
</svg>
