0
SECTION
2
HEADER
9
$INSUNITS
70
4
9
$ACADVER
1
AC1014
9
$HANDSEED
5
FFFF
0
ENDSEC
0
SECTION
2
TABLES
0
TABLE
2
VPORT
5
8
100
AcDbSymbolTable
0
ENDTAB
0
TABLE
2
LTYPE
5
5
100
AcDbSymbolTable
0
LTYPE
5
14
100
AcDbSymbolTableRecord
100
AcDbLinetypeTableRecord
2
BYBLOCK
70
0
0
LTYPE
5
15
100
AcDbSymbolTableRecord
100
AcDbLinetypeTableRecord
2
BYLAYER
70
0
0
ENDTAB
0
TABLE
2
LAYER
5
2
100
AcDbSymbolTable
70
2
0
LAYER
5
50
100
AcDbSymbolTableRecord
100
AcDbLayerTableRecord
2
0
70
0
6
CONTINUOUS
0
ENDTAB
0
TABLE
2
STYLE
5
3
100
AcDbSymbolTable
70
1
0
STYLE
5
11
100
AcDbSymbolTableRecord
100
AcDbTextStyleTableRecord
2
STANDARD
70
0
0
ENDTAB
0
TABLE
2
VIEW
5
6
100
AcDbSymbolTable
70
0
0
ENDTAB
0
TABLE
2
UCS
5
7
100
AcDbSymbolTable
70
0
0
ENDTAB
0
TABLE
2
APPID
5
9
100
AcDbSymbolTable
70
2
0
APPID
5
12
100
AcDbSymbolTableRecord
100
AcDbRegAppTableRecord
2
ACAD
70
0
0
ENDTAB
0
TABLE
2
DIMSTYLE
5
A
100
AcDbSymbolTable
70
1
0
ENDTAB
0
TABLE
2
BLOCK_RECORD
5
1
100
AcDbSymbolTable
70
1
0
BLOCK_RECORD
5
1F
100
AcDbSymbolTableRecord
100
AcDbBlockTableRecord
2
*MODEL_SPACE
0
BLOCK_RECORD
5
1B
100
AcDbSymbolTableRecord
100
AcDbBlockTableRecord
2
*PAPER_SPACE
0
ENDTAB
0
ENDSEC
0
SECTION
2
BLOCKS
0
BLOCK
5
20
100
AcDbEntity
100
AcDbBlockBegin
2
*MODEL_SPACE
0
ENDBLK
5
21
100
AcDbEntity
100
AcDbBlockEnd
0
BLOCK
5
1C
100
AcDbEntity
100
AcDbBlockBegin
2
*PAPER_SPACE
0
ENDBLK
5
1D
100
AcDbEntity
100
AcDbBlockEnd
0
ENDSEC
0
SECTION
2
ENTITIES
0
LWPOLYLINE
5
100
100
AcDbEntity
8
0
100
AcDbPolyline
90
4
70
1
43
0.0
10
-4.1282061435523705
20
-7.9227781766458127
10
-4.4615402011102523
20
-9.8948046485959207
10
0.96153259675251124
20
-10.811473306880172
10
1.2948666543104337
20
-8.8394468349300013
0
LWPOLYLINE
5
101
100
AcDbEntity
8
0
100
AcDbPolyline
90
4
70
1
43
0.0
10
13.23910062872544
20
-4.528061779145931
10
11.243139924883174
20
-4.4010150605049061
10
10.893761448620346
20
-9.8899069960711561
10
12.889722152462621
20
-10.016953714712187
0
CIRCLE
5
102
100
AcDbEntity
8
0
100
AcDbCircle
10
8.6722421159312635
20
-149.46341488998769
30
0
40
0.99999999999999978
210
0
220
0
230
1
0
CIRCLE
5
103
100
AcDbEntity
8
0
100
AcDbCircle
10
23.57853520147664
20
-151.29672864862249
30
0
40
1.0000000000000009
210
0
220
0
230
1
0
CIRCLE
5
104
100
AcDbEntity
8
0
100
AcDbCircle
10
19.416564559574169
20
-136.86632278926709
30
0
40
1.0000000000000009
210
0
220
0
230
1
0
LWPOLYLINE
5
105
100
AcDbEntity
8
0
100
AcDbPolyline
90
348
70
1
43
0.0
10
5.0869880472104478
20
-151.23711120349085
10
4.3057380472104416
20
-146.29852350684109
10
2.2740253620968165
20
-146.61992623019887
42
-0.064359477888612182
10
-0.0055447865037226013
20
-21.016387168555148
42
-0.0030012409181511298
10
-0.25783853378346844
20
-21.014806200718652
42
-0.38420474780064856
10
-0.40537398425054383
20
-20.878487946293625
42
0.076436230882234349
10
-0.47876124593969921
20
-20.58351090653932
42
0.63168278213654216
10
-1.4799937261349609
20
-20.535816325163211
42
0.076436230882233142
10
-1.581088034885757
20
-20.82248178331719
42
-0.38420474780065278
10
-1.740913307305626
20
-20.944158641962993
42
-0.0061344565459079568
10
-2.2542553491833628
20
-20.895140420297366
42
-0.38420474780064706
10
-2.388164873811732
20
-20.745415289314572
42
0.076436230882233697
10
-2.433180482033185
20
-20.444798025710341
42
0.63168278213654572
10
-3.4253456458431186
20
-20.302146211096556
42
0.076436230882232573
10
-3.5532314759405708
20
-20.577904000869971
42
-0.38420474780064551
10
-3.7238991678965219
20
-20.683837539262548
42
-0.0061344565459102883
10
-4.2302572790609965
20
-20.586245012537326
42
-0.38420474780065267
10
-4.3493281724592228
20
-20.424468938968463
42
0.076436230882233974
10
-4.3655644588940801
20
-20.120933888005233
42
0.63168278213654072
10
-5.3396771049546459
20
-19.884616717077094
42
0.076436230882233697
10
-5.4931963025177799
20
-20.146969533223608
42
-0.38420474780064162
10
-5.673160820963437
20
-20.236200400834932
42
-0.0061344565459057364
10
-6.1679493439478872
20
-20.090917382084854
42
-0.38420474780064884
10
-6.2711032816667744
20
-19.918555435103801
42
0.076436230882233516
10
-6.2584132079908317
20
-19.614851457206669
42
0.63168278213654361
10
-7.205651621334229
20
-19.287009054858711
42
0.076436230882233794
10
-7.3834138927368764
20
-19.533580989648954
42
-0.38420474780064962
10
-7.5710454511246494
20
-19.605301097924279
42
-0.0061344565459057364
10
-8.0497835044454096
20
-19.413643292664695
42
-0.38420474780064118
10
-8.1360863084511887
20
-19.232256408754228
42
0.076436230882233336
10
-8.0945847979367613
20
-18.93113389417675
42
0.63168278213654638
10
-9.0063706408082584
20
-18.514735251972294
42
0.076436230882233239
10
-9.2067661433934251
20
-18.743293311782207
42
-0.38420474780064628
10
-9.4003655212747699
20
-18.796853152315038
42
-0.0061344565459102883
10
-9.8587175789868766
20
-18.560556243309133
42
-0.38420474780064257
10
-9.9273876777221535
20
-18.371787090178394
42
0.076436230882233058
10
-9.8574505744751288
20
-18.075973051042556
42
0.63168278213654649
10
-10.72552657308815
20
-17.574789139566331
42
0.076436230882232489
10
-10.946740494152412
20
-17.783263467213178
42
-0.38420474780064634
10
-11.144554425581939
20
-17.818177993793547
42
-0.0061344565459102883
10
-11.57836958047284
20
-17.539381922440931
42
-0.38420474780064895
10
-11.628785086889639
20
-17.344940022772299
42
0.076436230882233419
10
-11.531045752147049
20
-17.057113396824455
42
0.63168278213654638
10
-12.347550475833263
20
-16.475683015189038
42
0.076436230882232781
10
-12.587579467851642
20
-16.662185634878604
42
-0.38420474780065111
10
-12.787816519234267
20
-16.678138656147034
42
-0.0061344565459079568
10
-13.193166074083164
20
-16.359368242842621
42
-0.38420474780064667
10
-13.224870417548342
20
-16.161014492589565
42
0.076436230882233419
10
-13.100213993860928
20
-15.883781882325357
42
0.63168278213654638
10
-13.85775304940374
20
-15.227370554103562
42
0.076436230882232392
10
-14.114423372655111
20
-15.39021246923129
42
-0.38420474780064806
10
-14.315270166245861
20
-15.387059512156892
42
-0.0061344565459079568
10
-14.688483212714281
20
-15.031201591126283
42
-0.38420474780064473
10
-14.701189273783877
20
-14.830732312566939
42
0.076436230882233697
10
-14.550744669028074
20
-14.566604379435447
42
0.63168278213654516
10
-15.242457665432669
20
-13.841156667263455
42
0.076436230882233697
10
-15.513444873723291
20
-13.978863156229258
42
-0.3842047478006404
10
-15.71308250985739
20
-13.956632774479701
42
-0.0061344565459102883
10
-16.050779172803164
20
-13.566910050161558
42
-0.38420474780064151
10
-16.044371883420553
20
-13.366140724125993
42
0.076436230882233516
10
-15.869501547233956
20
-13.117509451590879
42
0.63168278213654672
10
-16.489124224490485
20
-12.329595122288479
42
0.076436230882232961
10
-16.771974215698663
20
-12.440919093803904
42
-0.38420474780064301
10
-16.96859474502887
20
-12.399812609158465
42
-0.0061344565459079568
10
-17.267716791178501
20
-11.97975447089458
42
-0.38420474780064628
10
-17.242254176748521
20
-11.780503295489265
42
0.076436230882234169
10
-17.044541761974973
20
-11.549620326856111
42
0.63168278213654261
10
-17.586462721167258
20
-10.706374854601021
42
0.076436230882233891
10
-17.878613961972206
20
-10.790308141541081
42
-0.38420474780064601
10
-18.070436758537337
20
-10.73069782069037
42
-0.0061344565459079568
10
-18.328275292320821
20
-10.284108380028314
42
-0.3842047478006429
10
-18.283987946222734
20
-10.088179804752532
42
0.076436230882233419
10
-18.065223967106952
20
-9.8771360519383968
42
0.63168278213654672
10
-18.524535488110011
20
-8.9861959983071458
42
0.076436230882233794
10
-18.823342211634262
20
-9.0419784878279188
42
-0.38420474780064306
10
-19.008630098484151
20
-8.9644041710684323
42
-0.0061344565459079568
10
-19.222850094212255
20
-8.4953278111389263
42
-0.38420474780064429
10
-19.160139089510391
20
-8.304496195510664
42
0.076436230882233336
10
-18.92230470652369
20
-8.1152029034219648
42
0.63168278213654627
10
-19.294847193077167
20
-7.1846367595057181
42
0.076436230882233336
10
-19.597603359361116
20
-7.2117632767439721
42
-0.38420474780064329
10
-19.774678340699847
20
-7.1169274891011556
42
-0.0061344565459102883
10
-19.943339788918529
20
-6.6296122380578071
42
-0.38420474780064601
10
-19.862773046182511
20
-6.4456057827392046
42
0.076436230882233419
10
-19.60802212432678
20
-6.2797772207418854
42
0.63168278213654383
10
-19.890421773982816
20
-5.318012337641683
42
0.076436230882234807
10
-20.194385576301652
20
-5.3162372206566664
42
-0.38420474780064034
10
-20.361644033677571
20
-5.204998809708723
42
-0.0061344565459079568
10
-20.483219510193781
20
-4.703857869927984
42
-0.3842047478006449
10
-20.385526654321886
20
-4.5283429658725085
42
0.076436230882233794
10
-20.116166257394607
20
-4.3874809031032056
42
0.63168278213654383
10
-20.305865615195255
20
-3.4032271725333771
42
0.076436230882232961
10
-20.608284310285207
20
-3.3725664970593927
42
-0.38420474780064851
10
-20.764211525207674
20
-3.245932855081759
42
-0.0061344565459079568
10
-20.837600023679713
20
-2.7355046365176943
42
-0.38420474780065783
10
-20.723665776302838
20
-2.5700707738756257
42
0.076436230882231754
10
-20.442135273770084
20
-2.4554508789878087
42
0.63168278213654672
10
-20.537416392955418
20
-1.4576218551478597
42
0.076436230882234626
10
-20.835551230283073
20
-1.3983532890099091
42
-0.38420474780064162
10
-20.978735101747816
20
-1.2574712298742248
42
-0.0061344565459102883
10
-21.00327200456902
20
-0.7423782495157174
42
-0.38420474780064495
10
-20.87412817187456
20
-0.58852362296521199
42
0.076436230882233613
10
-20.582977147563327
20
-0.50118391147631314
42
0.63168278213654672
10
-20.582977147563376
20
0.50118391147622043
42
0.076436230882233336
10
-20.87412817187456
20
0.58852362296521599
42
-0.38420474780064395
10
-21.003272004569027
20
0.74237824951548281
42
-0.0061344565459102883
10
-20.978735101747819
20
1.2574712298739896
42
-0.38420474780065222
10
-20.835551230283073
20
1.3983532890099126
42
0.076436230882233613
10
-20.537416392955382
20
1.4576218551477591
42
0.63168278213654949
10
-20.442135273770141
20
2.4554508789877207
42
0.076436230882231476
10
-20.723665776302838
20
2.5700707738756301
42
-0.38420474780064889
10
-20.83760002367972
20
2.7355046365176561
42
-0.0061344565459079568
10
-20.764211525207688
20
3.2459328550817212
42
-0.38420474780064895
10
-20.608284310285214
20
3.3725664970593994
42
0.076436230882233419
10
-20.305865615195231
20
3.4032271725332857
42
0.63168278213654561
10
-20.116166257394674
20
4.3874809031031328
42
0.076436230882233142
10
-20.385526654321886
20
4.5283429658725192
42
-0.38420474780063962
10
-20.483219510193837
20
4.7038578699277656
42
-0.0061344565459102883
10
-20.361644033677578
20
5.2049988097086928
42
-0.3842047478006454
10
-20.194385576301642
20
5.3162372206566744
42
0.076436230882233974
10
-19.890421773982791
20
5.3180123376415871
42
0.63168278213654361
10
-19.60802212432684
20
6.2797772207418143
42
0.076436230882233697
10
-19.862773046182497
20
6.4456057827392144
42
-0.38420474780063979
10
-19.943339788918479
20
6.6296122380579465
42
-0.0061344565459057364
10
-19.774678340699907
20
7.1169274891009326
42
-0.38420474780064362
10
-19.597603359361116
20
7.2117632767439748
42
0.076436230882233697
10
-19.294847193077157
20
7.1846367595056115
42
0.63168278213654483
10
-18.922304706523768
20
8.1152029034218938
42
0.076436230882233794
10
-19.160139089510395
20
8.3044961955106675
42
-0.38420474780064306
10
-19.222850094212269
20
8.4953278111388908
42
-0.0061344565459079568
10
-19.008630098484161
20
8.964404171068395
42
-0.38420474780064734
10
-18.823342211634259
20
9.0419784878279206
42
0.076436230882233058
10
-18.524535488110015
20
8.986195998307041
42
0.63168278213654527
10
-18.065223967107038
20
9.8771360519383364
42
0.076436230882233419
10
-18.283987946222734
20
10.088179804752533
42
-0.38420474780064423
10
-18.328275292320843
20
10.284108380028281
42
-0.0061344565459079568
10
-18.070436758537362
20
10.730697820690338
42
-0.38420474780064451
10
-17.878613961972199
20
10.790308141541091
42
0.076436230882233419
10
-17.586462721167265
20
10.706374854600924
42
0.63168278213654483
10
-17.044541761975058
20
11.549620326856068
42
0.076436230882234252
10
-17.242254176748514
20
11.780503295489279
42
-0.38420474780063291
10
-17.267716791178518
20
11.97975447089455
42
-0.0061344565459079568
10
-16.968594745028891
20
12.399812609158438
42
-0.38420474780065589
10
-16.771974215698652
20
12.440919093803915
42
0.076436230882233697
10
-16.489124224490499
20
12.329595122288383
42
0.63168278213654516
10
-15.869501547234044
20
13.117509451590841
42
0.076436230882232961
10
-16.044371883420542
20
13.366140724126003
42
-0.38420474780065339
10
-16.050779172803185
20
13.566910050161534
42
-0.0061344565459079568
10
-15.713082509857532
20
13.956632774479518
42
-0.38420474780064856
10
-15.513444873723286
20
13.978863156229259
42
0.076436230882233613
10
-15.242457665432699
20
13.841156667263352
42
0.63168278213654405
10
-14.55074466902817
20
14.566604379435407
42
0.076436230882234349
10
-14.701189273783875
20
14.830732312566941
42
-0.38420474780064223
10
-14.688483212714312
20
15.031201591126251
42
-0.0061344565459079568
10
-14.31527016624589
20
15.387059512156856
42
-0.38420474780065028
10
-14.114423372655111
20
15.39021246923129
42
0.076436230882233142
10
-13.857753049403778
20
15.227370554103462
42
0.63168278213654494
10
-13.100213993861026
20
15.88378188232533
42
0.076436230882232864
10
-13.224870417548338
20
16.161014492589562
42
-0.38420474780065211
10
-13.193166074083202
20
16.359368242842606
42
-0.0061344565459079568
10
-12.787816519234301
20
16.678138656147009
42
-0.38420474780065111
10
-12.587579467851647
20
16.662185634878607
42
0.07643623088223267
10
-12.347550475833316
20
16.475683015188949
42
0.63168278213654683
10
-11.531045752147159
20
17.057113396824441
42
0.076436230882233794
10
-11.628785086889641
20
17.344940022772303
42
-0.3842047478006419
10
-11.578369580472877
20
17.539381922440921
42
-0.0061344565459079568
10
-11.144554425582138
20
17.818177993793423
42
-0.38420474780064318
10
-10.946740494152408
20
17.783263467213189
42
0.076436230882233613
10
-10.725526573088203
20
17.574789139566249
42
0.63168278213654605
10
-9.8574505744752283
20
18.075973051042556
42
0.076436230882233891
10
-9.9273876777221446
20
18.371787090178405
42
-0.38420474780064084
10
-9.8587175789870809
20
18.560556243309033
42
-0.0061344565459102883
10
-9.4003655212749671
20
18.796853152314924
42
-0.38420474780064257
10
-9.2067661433934251
20
18.74329331178221
42
0.076436230882233613
10
-9.0063706408083277
20
18.514735251972215
42
0.63168278213654672
10
-8.0945847979368697
20
18.931133894176757
42
0.076436230882233613
10
-8.1360863084511905
20
19.232256408754232
42
-0.38420474780064046
10
-8.049783504445454
20
19.413643292664688
42
-0.0061344565459079568
10
-7.5710454511245198
20
19.60530109792434
42
-0.38420474780064495
10
-7.383413892736872
20
19.533580989648964
42
0.076436230882234071
10
-7.2056516213343027
20
19.28700905485864
42
0.63168278213654372
10
-6.2584132079909374
20
19.614851457206687
42
0.076436230882233697
10
-6.2711032816667736
20
19.918555435103809
42
-0.38420474780064684
10
-6.1679493439477611
20
20.090917382084903
42
-0.0061344565459057364
10
-5.6731608209633064
20
20.236200400834974
42
-0.38420474780064107
10
-5.4931963025177737
20
20.146969533223611
42
0.076436230882233419
10
-5.3396771049547267
20
19.884616717077034
42
0.63168278213654383
10
-4.3655644588941822
20
20.120933888005268
42
0.076436230882232781
10
-4.3493281724592228
20
20.424468938968474
42
-0.38420474780065272
10
-4.230257279061032
20
20.586245012537326
42
-0.0061344565459079568
10
-3.7238991678967484
20
20.683837539262498
42
-0.3842047478006399
10
-3.5532314759405703
20
20.577904000869975
42
0.076436230882233697
10
-3.4253456458432097
20
20.302146211096499
42
0.63168278213654372
10
-2.4331804820332921
20
20.444798025710377
42
0.076436230882235279
10
-2.3881648738117329
20
20.745415289314582
42
-0.38420474780064073
10
-2.2542553491834143
20
20.895140420297359
42
-0.0061344565459079568
10
-1.7409133073056773
20
20.944158641962986
42
-0.38420474780064112
10
-1.581088034885755
20
20.822481783317201
42
0.076436230882233794
10
-1.4799937261350542
20
20.535816325163164
42
0.63168278213655027
10
-0.47876124593979635
20
20.583510906539367
42
0.076436230882232781
10
-0.40537398425054394
20
20.878487946293625
42
-0.38420474780064257
10
-0.25783853378331512
20
21.014806200718652
42
-0.0061344565459057364
10
0.25783853378346377
20
21.014806200718649
42
-0.38420474780064878
10
0.4053739842505395
20
20.878487946293621
42
0.076436230882233142
10
0.47876124593969455
20
20.58351090653932
42
0.63168278213654228
10
1.4799937261349565
20
20.535816325163211
42
0.076436230882234349
10
1.581088034885757
20
20.822481783317194
42
-0.38420474780065317
10
1.7409133073056293
20
20.944158641962993
42
-0.0061344565459079568
10
2.2542553491833668
20
20.89514042029737
42
-0.38420474780064029
10
2.3881648738117374
20
20.745415289314582
42
0.076436230882234904
10
2.4331804820331899
20
20.444798025710345
42
0.63168278213654572
10
3.4253456458431231
20
20.302146211096563
42
0.076436230882232781
10
3.5532314759405761
20
20.577904000869975
42
-0.38420474780064584
10
3.7238991678968918
20
20.683837539262477
42
-0.0061344565459057364
10
4.2302572790609911
20
20.586245012537333
42
-0.38420474780065106
10
4.3493281724592174
20
20.424468938968467
42
0.076436230882233891
10
4.3655644588940747
20
20.12093388800524
42
0.63168278213654061
10
5.3396771049546397
20
19.884616717077098
42
0.076436230882233891
10
5.4931963025177755
20
20.146969533223611
42
-0.38420474780064162
10
5.6731608209634397
20
20.236200400834935
42
-0.0061344565459057364
10
6.1679493439478916
20
20.090917382084857
42
-0.38420474780064479
10
6.2711032816667771
20
19.918555435103805
42
0.076436230882233516
10
6.2584132079908343
20
19.614851457206672
42
0.63168278213654516
10
7.2056516213342325
20
19.287009054858718
42
0.076436230882233336
10
7.3834138927368791
20
19.533580989648961
42
-0.38420474780065061
10
7.5710454511244869
20
19.605301097924364
42
-0.0061344565459079568
10
8.0497835044454149
20
19.413643292664698
42
-0.38420474780064212
10
8.1360863084511958
20
19.232256408754232
42
0.076436230882233891
10
8.0945847979367667
20
18.931133894176753
42
0.63168278213654638
10
9.0063706408082655
20
18.514735251972297
42
0.076436230882233419
10
9.2067661433934322
20
18.74329331178221
42
-0.38420474780064157
10
9.4003655212749333
20
18.796853152314938
42
-0.0061344565459079568
10
9.8587175789868748
20
18.56055624330914
42
-0.38420474780064978
10
9.9273876777221517
20
18.371787090178398
42
0.076436230882233058
10
9.8574505744751271
20
18.075973051042563
42
0.63168278213654649
10
10.725526573088146
20
17.574789139566334
42
0.076436230882232489
10
10.94674049415241
20
17.783263467213182
42
-0.38420474780065195
10
11.144554425582108
20
17.818177993793441
42
-0.0061344565459079568
10
11.57836958047284
20
17.539381922440931
42
-0.38420474780064895
10
11.628785086889639
20
17.344940022772299
42
0.076436230882233419
10
11.531045752147049
20
17.057113396824455
42
0.63168278213654638
10
12.347550475833263
20
16.475683015189038
42
0.076436230882232781
10
12.587579467851642
20
16.662185634878604
42
-0.38420474780065111
10
12.787816519234113
20
16.678138656147155
42
-0.0061344565459102883
10
13.193166074083164
20
16.359368242842621
42
-0.38420474780064839
10
13.22487041754834
20
16.161014492589565
42
0.076436230882233419
10
13.100213993860926
20
15.883781882325358
42
0.63168278213654583
10
13.85775304940374
20
15.227370554103564
42
0.076436230882232392
10
14.114423372655111
20
15.390212469231292
42
-0.38420474780064806
10
14.315270166245856
20
15.387059512156897
42
-0.0061344565459079568
10
14.688483212714276
20
15.031201591126289
42
-0.38420474780064767
10
14.701189273783871
20
14.830732312566944
42
0.076436230882233697
10
14.550744669028068
20
14.56660437943545
42
0.63168278213654461
10
15.242457665432667
20
13.841156667263459
42
0.07643623088223267
10
15.513444873723284
20
13.978863156229263
42
-0.38420474780065106
10
15.713082509857376
20
13.956632774479697
42
-0.0061344565459102883
10
16.050779172803161
20
13.566910050161567
42
-0.38420474780064673
10
16.044371883420546
20
13.366140724125996
42
0.076436230882233516
10
15.86950154723395
20
13.117509451590884
42
0.63168278213654672
10
16.489124224490482
20
12.329595122288485
42
0.076436230882232961
10
16.771974215698656
20
12.440919093803908
42
-0.38420474780064862
10
16.968594745028749
20
12.399812609158634
42
-0.0061344565459102883
10
17.267716791178497
20
11.979754470894587
42
-0.38420474780064628
10
17.242254176748517
20
11.780503295489273
42
0.076436230882233142
10
17.044541761974973
20
11.549620326856122
42
0.63168278213654461
10
17.586462721167251
20
10.70637485460103
42
0.076436230882233697
10
17.878613961972199
20
10.79030814154109
42
-0.38420474780064812
10
18.070436758537344
20
10.730697820690372
42
-0.0061344565459079568
10
18.328275292320825
20
10.284108380028316
42
-0.38420474780064068
10
18.283987946222741
20
10.088179804752533
42
0.076436230882233613
10
18.065223967106959
20
9.8771360519383986
42
0.63168278213654727
10
18.524535488110018
20
8.9861959983071458
42
0.076436230882233794
10
18.823342211634269
20
9.0419784878279206
42
-0.38420474780064118
10
19.008630098484147
20
8.9644041710684341
42
-0.0061344565459079568
10
19.222850094212255
20
8.4953278111389281
42
-0.38420474780064579
10
19.160139089510391
20
8.3044961955106658
42
0.076436230880702602
10
18.922304706518577
20
8.1152029034349802
42
0.62822668204419607
10
19.289367197222965
20
7.1850108813702027
42
0.078457411000678559
10
19.600190633172613
20
7.2110191479384955
42
-0.38090213725849453
10
19.776498408262576
20
7.1174805786493023
42
-0.0052216597978455501
10
20.03415690080579
20
6.4000011490009872
42
-0.38090213725812183
10
19.95763730236558
20
6.2156681721458114
42
0.078458237936002706
10
19.701277657975954
20
6.037990382998216
42
0.28670951955261081
10
19.555942898659712
20
5.468081738603412
10
19.557747912796387
20
5.462523682674493
42
0.28671112214327737
10
20.010202353782351
20
5.086749397146483
42
0.078457410999624735
10
20.322036825906636
20
5.0935977734373008
42
-0.38090213725850508
10
20.492259908040182
20
4.9893960565095821
42
-0.0052216597978482146
10
20.705317385023019
20
4.2574321624202511
42
-0.38090213725812921
10
20.617609018249539
20
4.0781526663821683
42
0.078458237936001624
10
20.350810038940146
20
3.9165730616437697
42
0.2867095195526031
10
20.170709950575791
20
3.3566784167394159
10
20.172169817944052
20
3.3510198967023546
42
0.28671112214328132
10
20.600664119192757
20
2.9481378188813063
42
0.078457410999622737
10
20.912329686988574
20
2.93580039154185
42
-0.38090213725812405
10
21.075823974477753
20
2.8213298125266566
42
-0.0052216597978495469
10
21.243474254512442
20
2.0776511088156431
42
-0.38090213725811861
10
21.144908996295626
20
1.9041034635582244
42
0.078458237936002262
10
20.868680214209725
20
1.7592334391387827
42
0.28670951955260265
10
20.654496271773944
20
1.2114713612033956
10
20.655605468428252
20
1.2057337881515868
42
0.28671112214327749
10
21.058518264028034
20
0.77726837067430765
42
0.078457410999624014
10
21.368835626099827
20
0.74579182290215162
42
-0.38090213725811461
10
21.524982478128017
20
0.62148552336985063
42
-0.0052216597978482146
10
21.646591194670179
20
-0.13109400784905983
42
-0.38089863161428311
10
21.537543775756891
20
-0.29825264002011298
42
0.078458699983358263
10
21.252928631355648
20
-0.42586539596789258
42
0.28670951955260937
10
21.005471278632839
20
-0.95942224748875482
10
21.006225607519355
20
-0.96521716333573482
42
0.28671112214327676
10
21.382032328601397
20
-1.4176446638499829
42
0.078457410999624291
10
21.689827284986201
20
-1.4681412289502589
42
-0.38090213725810712
10
21.838035862463194
20
-1.601812890359553
42
-0.0052216597978495469
10
21.913142864171352
20
-2.3604455874161814
42
-0.38090213725811034
10
21.794022366694236
20
-2.5205836602862659
42
0.078458237936002442
10
21.502101345055085
20
-2.6304553179287433
42
0.2867095195526122
10
21.222306928024921
20
-3.1477880342923914
10
21.222703534862646
20
-3.1536183657374126
42
0.28670951955260998
10
21.569979126266368
20
-3.6282948016750884
42
0.078458237936002082
10
21.874090073553681
20
-3.6976215333953295
42
-0.38090213725811334
10
22.013799574773046
20
-3.8401527607481678
42
-0.0052216597978495469
10
22.042120666660367
20
-4.6019680575907254
42
-0.38089863161429088
10
21.913381418113151
20
-4.7544788892206364
42
0.078458699983357444
10
21.615255518628693
20
-4.8461944492947504
42
0.28670951955260759
10
21.30418274245649
20
-5.3453455117457338
10
21.304220126537473
20
-5.3511891975837269
42
0.28671112214327776
10
21.621656635890822
20
-5.8463208945710736
42
0.078457873046922824
10
21.920928587323779
20
-5.934213267460029
42
-0.3808986316142895
10
22.051608548355862
20
-6.0850645049941967
42
-0.0052216597978482146
10
22.033036567146574
20
-6.8471797930331313
42
-0.38090213725811656
10
21.895162069877951
20
-6.9914868209446821
42
0.078458237936002886
10
21.591962991610259
20
-7.0646987254792233
42
0.28670951955260526
10
21.250788914646282
20
-7.5437794122421131
10
21.250466934514094
20
-7.5496143407367224
42
0.28671112214327399
10
21.53686017183783
20
-8.0633265641140035
42
0.078457873046922907
10
21.830161941237229
20
-8.1694531027069619
42
-0.38089863161428622
10
21.951319719043081
20
-8.3280536731915085
42
-0.0052216597978495469
10
21.885924938664196
20
-9.0875852087107383
42
-0.38089863161428933
10
21.739440546574681
20
-9.2231420999229279
42
0.07845869998335861
10
21.43231189984942
20
-9.2775736189522515
42
0.28670951955260604
10
21.062327479795357
20
-9.7347711519056581
10
21.061647353780341
20
-9.7405752444571636
42
0.28671112214327521
10
21.315913644843633
20
-10.270924174936823
42
0.078457410999626734
10
21.602133638184995
20
-10.394882852222953
42
-0.22573753015156942
10
21.701023805761388
20
-10.477524206340911
10
21.466126803155561
20
-10.445021473520875
42
0.064339172589174237
10
20.347637862941419
20
-130.89882957521439
42
-0.014877342947606191
10
21.206967001721285
20
-131.13967812636423
10
20.610166187672291
20
-133.04855968066519
42
-1.5142159996646425
0
CIRCLE
5
106
100
AcDbEntity
8
0
100
AcDbCircle
10
0
20
0
30
0
40
2.8999999999999995
210
0
220
0
230
1
0
ENDSEC
0
SECTION
2
OBJECTS
0
DICTIONARY
5
C
100
AcDbDictionary
3
ACAD_GROUP
350
D
3
ACAD_MLINESTYLE
350
17
0
DICTIONARY
5
D
100
AcDbDictionary
0
DICTIONARY
5
1A
330
C
100
AcDbDictionary
0
DICTIONARY
5
17
100
AcDbDictionary
0
ENDSEC
0
EOF
